<?xml version="1.0" encoding="UTF-8"?>
<!DOCTYPE svg PUBLIC "-//W3C//DTD SVG 1.1//EN" "http://www.w3.org/Graphics/SVG/1.1/DTD/svg11.dtd">
<!-- Creator: CorelDRAW 2021 (64-Bit Evaluation Version) -->
<svg xmlns="http://www.w3.org/2000/svg" xml:space="preserve" width="50mm" height="50mm" version="1.1" style="shape-rendering:geometricPrecision; text-rendering:geometricPrecision; image-rendering:optimizeQuality; fill-rule:evenodd; clip-rule:evenodd"
viewBox="0 0 1562.5 1562.5"
 xmlns:xlink="http://www.w3.org/1999/xlink"
 xmlns:xodm="http://www.corel.com/coreldraw/odm/2003">
 <defs>
  <style type="text/css">
   <![CDATA[
    .str2 {stroke:#332C2B;stroke-width:6.25;stroke-miterlimit:22.9256}
    .str0 {stroke:#332C2B;stroke-width:6.25;stroke-miterlimit:22.9256}
    .str1 {stroke:#332C2B;stroke-width:3.12;stroke-miterlimit:22.9256}
    .fil19 {fill:none}
    .fil18 {fill:#FEFEFE}
    .fil12 {fill:#FEFEFE}
    .fil3 {fill:#020201}
    .fil10 {fill:#2D320D}
    .fil13 {fill:#5B7827}
    .fil6 {fill:#7E8235}
    .fil15 {fill:#8EB447}
    .fil14 {fill:#8F9C40}
    .fil7 {fill:#9DB01C}
    .fil16 {fill:#A6D43C}
    .fil5 {fill:#AAB659}
    .fil17 {fill:#B7EA55}
    .fil2 {fill:#D4E17F}
    .fil9 {fill:#DA8164}
    .fil8 {fill:#E6B6AE}
    .fil4 {fill:#FAF1D3}
    .fil11 {fill:white}
    .fil0 {fill:#94DE6E}
    .fil1 {fill:#61913D}
   ]]>
  </style>
 </defs>
 <g id="圖層_x0020_1">
  <metadata id="CorelCorpID_0Corel-Layer"/>
  <g id="_2082150996160">
   <g>
    <path class="fil0 str0" d="M135.12 894.21c31.73,65.37 69.03,121.91 110.83,170.11 292.96,337.77 733.24,310.56 1181.42,-45.23 -706.01,-359.66 -672.09,91.19 -1292.26,-124.88z"/>
    <path class="fil1 str1" d="M1423.6 1017.17c-246.31,200.56 -494.91,296.69 -715.85,284.21 -144.44,-8.16 -274.97,-72.55 -376.74,-152.59 -70.85,-55.73 -108.4,-101.99 -155.31,-180.52 -12.21,-20.44 -17.7,-42.46 -33.28,-68.12 282.59,400.24 708.12,457.24 1281.18,117.02z"/>
   </g>
   <g>
    <ellipse class="fil1" cx="773.21" cy="1096.35" rx="330.63" ry="39.21"/>
    <path class="fil2" d="M790.03 678.7c-20.72,88.21 -153.92,56.97 -133.86,-31.18 19.96,-87.7 154.73,-57.72 133.86,31.18zm264.46 -29.49c-17.59,89.33 -151.23,63.92 -135.02,-25.88 15.84,-87.75 152.56,-63.16 135.02,25.88zm-122.7 -198.69l-8.46 -3.69c-55.25,-13.97 -128.83,-10.32 -176.83,19.26l-65.93 50.9 -2.08 -1.89 19.48 -26.81c-4.93,-15.44 -68.04,-69.61 -84.19,-79.29 -27.58,-16.53 -97.45,-45.06 -129.6,-39.89l8.52 2.78c40.32,13.04 74.26,24.78 103.17,57.91 36.47,41.79 36.16,52.99 53.49,103.67l14.41 37.64c-4.12,-9.14 -10.26,-20.62 -14.38,-29.76 -4.92,7.3 -3.63,17.96 1.34,31.23 -6.93,-4.29 -12.84,-17.32 -26.27,-24.04 2.03,9.61 4.07,19.21 6.1,28.82 -12.43,-4.03 -20.33,-11.97 -37.1,-11.86 6.79,9.6 20.4,15.85 30.6,23.77 10.36,19.86 -0.39,101.63 5.15,133.87 3.03,17.62 28.57,75.08 45.8,78.97 61.02,-1.43 79.93,-10.09 120.21,-54.99 37.13,-41.4 14.59,-96.67 6.43,-143.43 -33.14,-190.02 101.08,-189.1 101.48,-64.82 0.16,51.5 -19.09,108.06 10.77,155.35 29.52,46.74 56.97,68.7 115.75,63.78 54.6,-4.58 63.5,-77.31 53.63,-120.64 -18.48,-81.13 -18.9,-61.83 11.72,-139.54 -5.21,5.29 -11.87,0.68 -15.62,15.87 -3.24,-3.9 0.76,-14.3 -2.43,-21.65 -2.18,7.13 -7.01,11.01 -9.19,18.14 -2.88,-0.58 -7.79,-19.39 -18.42,-24.95l-1.95 1.2 15.26 35.98c-12.53,-16.91 -19.58,-47.51 -20.99,-53.2 -11.69,-47.18 -1.86,-93.96 25.33,-133.43 8.93,-12.96 70.72,-43.34 44.88,-69.56 -34.19,33.57 -48.34,43.76 -77.8,85.32 -18.6,26.24 -49.68,77.1 -59.87,107.04l30.82 20.23 -73.27 -28.29z"/>
    <path class="fil3" d="M961.13 1073.78l-0.68 -1.87 -0.89 -1.91 -1.01 -1.35 -1.17 -1.29 -1.21 -1.19 -1.68 -1.12 -1.69 -0.8c-3.34,-0.51 -25.93,-9.83 -34.14,-12.12 -12.43,-3.47 -16.44,-15.52 -16.92,-27.73l46.32 -36.81 1.37 -1.77 25.6 -36.57c27.41,42.86 -6.64,65.85 -6.47,83.23 0.29,28.04 62.92,26.88 49.83,57.35 -11.08,10.81 -52.98,-0.92 -57.26,-16.06zm-115.06 -8.11c18.6,3 33.49,25.01 24.27,36.72 -7.22,3.11 -34.12,-2.29 -42.95,-4.02 -23.03,-4.52 -21.83,-18.31 -33.19,-17.87 -30.88,0.98 -59.45,-36.5 -75.42,-57.97 -19.34,-26.01 -21.18,-40.94 -26.35,-72.41 -2.56,-15.56 1.17,-20.26 -9.99,-17.52l2.7 -0.4 3.53 32.42c3.48,4.96 7.1,32.69 15.29,46.27 5.39,8.93 21.99,30.96 24.7,37.76 -11.09,2.84 -37.66,7.36 -46.65,0.74 10.18,-24.52 14.13,-45.44 4.76,-72.07 -3.47,-10.83 -22.23,-38.55 -34.55,-31.76 4.28,8.19 36.04,15.86 32.54,71.69 -2.92,46.67 -49.61,37 -40.54,63.78 1.9,3 4.73,4.67 9.08,5.41l29.35 2.18c4.72,4.43 9.15,9.85 4.87,14.13 -11.66,11.66 -124.07,2.83 -112.03,-9.15 9.28,-9.24 15.66,-17.69 18.72,-32.5 -14.86,-19.08 -67.78,-26.62 -80.17,-61.56 -12.81,-36.13 0.44,-82.05 30.54,-104.6 15.21,-13.69 65.76,-16.26 86.08,-18.8 42.11,-5.27 63.92,-17.25 71.31,-40.69 34.2,8.23 69.58,11.68 105.26,12.76l7.75 19.1 23.97 45.02c0.48,52.11 -2.4,44.42 -15.21,86.2 -17.3,28.61 -12.87,57.86 22.35,67.12zm49.37 -45.69l-2.77 1.33 -34.11 7.66c-7.62,4.96 -27.84,3.88 -36.99,2.34 -0.17,-9.5 2.61,-20.24 6.99,-28.65 1.67,-3.2 12.12,-19.35 14.15,-20.32l8.38 -57.45 0 0c6.45,11.87 -0.43,24.54 14.09,42.29 8.9,10.88 11.34,1.96 13.99,13.51 2.45,11.93 -3.52,24.85 9.18,34.12l34.6 -39.49 8.32 -22.72 -1.51 -5.4 0.58 -2.25 3.28 -19.04 11.21 12.13c7.41,-26.32 27.58,-36.03 22.23,-78.96 13.93,25.49 7.73,77.39 -4.92,103.12 -6.34,12.9 -53.88,54.5 -66.69,57.78zm-14.07 -173.55l74.43 -12.71c10.63,18.94 7.12,58.35 -6.47,74.55l3.15 -23.66 -11.75 1.97 0.07 40.88c-2.81,-5.16 -8.41,-10.12 -11.41,-13.21 -5.96,5.8 1.2,16.46 -4.37,27.8 -7.14,14.52 -11.04,3.71 -16.58,6.71l-3.64 27.73 -7.03 -5.86c-2.52,1.98 -8.79,22.46 -10.38,26.92 -3.84,-4.23 -3.25,-24.06 -6.17,-31.75 -10.14,-26.72 -4.66,11.6 -15.23,-8.29l-0.88 -2.31 -11.83 -40.49 -9.26 -11.13 -2.17 -27.56 -5.8 13.93 -3.82 -32.25 -9.56 10.68 -0.62 -3.35c-1.07,-5.71 -0.76,-10.29 -1.83,-16.01 23.27,1.94 28.65,1.32 61.13,-2.6zm176.67 -90.03c-31.68,53.95 -110.42,74.07 -167.03,82.9 -47.68,7.45 -130.24,2.22 -179.62,-7.39 -24.13,-4.7 -40.24,-20.4 -42.15,-22.41 7.33,-0.92 72.95,9.57 107.82,-34.71 28.73,-27.39 44.39,-40.7 44.17,-89.47 0.06,-55.07 -50.6,-180.73 12.43,-223.56 34.68,-23.56 61.51,38.37 63.34,65.91 2.87,43.11 -12.74,89.93 -2.53,131.71 17.27,70.65 88.28,131.96 163.57,97.02zm-686.28 -101.81c4.54,44.33 -0.2,113.91 10.95,151.67 13.73,46.49 52.37,73.77 61.94,105.52l6.62 21c-25.55,-4.82 -99.61,-56.15 -113.4,-77.96 -28.38,-44.87 -44.54,-81.84 -49.22,-136.27 -8.75,-101.95 26.41,-233.5 -43.18,-319.64 75.86,65.86 116.07,155.93 126.28,255.68zm133.84 299.98l-2.03 22.13c-6.45,-5.43 -11.06,-12.9 -19.09,-19.52 -8.18,-6.74 -15.61,-11.34 -24.59,-17.09 1.08,-5.67 1.16,-11.68 -0.48,-17.4 -8.62,-47.51 -38.94,-87.15 -51.43,-135.47 -14.68,-56.76 0.63,-110.99 -11.09,-171.8 -17.15,-88.9 -56,-193.83 -146.33,-232.03 21.38,-9.16 111.53,66.76 128.21,86.79 32.75,39.32 62.56,83 79.13,132.07 10.8,31.97 8.96,58.49 10.8,91.04 2.33,40.94 -6.73,64.23 -7.54,100.41 -2.87,72.56 58.35,72.21 44.44,160.87zm-57.67 -53.01c-28.46,-37.07 -59.42,-74.18 -64.17,-122.48 -5.82,-59.18 2.17,-108.5 -13.55,-169.46 -22.09,-85.63 -61.17,-193.05 -150.57,-228.36 40.49,-7.32 89.97,50.7 111.61,79.28 28.36,37.47 46.32,86.19 55.15,132.14 5.27,27.44 11.16,52.69 10.61,80.94 -0.61,31.62 -3.13,59.06 0.52,90.92 6.46,56.44 36.66,89.49 50.4,137.01zm124.49 -483.63c65.27,57.57 69.31,134.72 69.65,134.11l-31.39 -28 9.85 35.31 -2.69 -0.45 -15.55 -11.48c-22.57,-14.44 -40.82,-53.8 -44.5,-79.94 -6.1,-43.28 -27.06,-51.73 -41.51,-83.67l0 0 56.14 34.12zm509.49 64.15c-7.79,0.17 -9.36,10.5 -14.04,15.75 -12.95,-18.66 -15.8,-8.82 -21.03,-35.55 -8.95,-45.77 -1.67,-97.43 30.36,-132.06l27.23 -24.18c0.06,0.23 -5.75,40.31 -4.05,53.57 4.31,33.55 40.1,94.69 -16,135.33 -0.83,-4.29 -1.65,-8.58 -2.48,-12.86zm-406.92 320.03c-19.58,-2.38 -34.29,-18.22 -40.34,-28.32 -23.86,-39.81 -20.02,-73.78 -11.86,-118.57 5.89,-32.35 4.36,-34.2 1.34,-65.62 -3.93,-8.79 -22.05,-12.9 -28.29,-23.14 18.1,0.43 20.86,12.1 36.22,11.46 -5.14,-9.2 1.66,-15.23 -7.63,-29.38 14.75,9.18 14.45,19.53 26.27,24.04 0.87,-9.99 -5.83,-19.87 -0.91,-28.85 3.23,10.95 4.35,14.12 13.95,27.37l-14.41 -37.64c-17.34,-50.68 -17.02,-61.88 -53.49,-103.67 -28.91,-33.13 -62.85,-44.87 -103.17,-57.91l-7.78 -2.66 -0.36 -2.07 27.42 -7.53c64.66,-15.71 86.18,1.6 140.85,22.67 20.37,7.85 88.92,60.4 89.73,81.35l3.95 2.43c48,-29.58 121.58,-33.23 176.83,-19.26l0 0c51.83,-35.93 91.25,-187.31 188.57,-180.61 23.38,24.18 -104.43,71.62 -70.21,202.99 1.41,5.69 3.1,31.42 20.99,53.2l-13.31 -37.19c12.93,9.53 13.18,29.73 19.27,29.7 0.63,-9.6 6.74,-12.54 8.34,-22.89 2.45,8.76 -1.84,17.03 2.43,21.65 2.61,-8.88 10.56,-5.93 15.62,-15.87 -30.63,77.71 -30.21,58.41 -11.72,139.54 9.87,43.33 0.97,116.06 -53.63,120.64 -58.78,4.93 -86.23,-17.04 -115.75,-63.78 -29.87,-47.29 -10.61,-103.85 -10.77,-155.35 -0.4,-124.27 -134.62,-125.2 -101.48,64.82 8.16,46.76 30.7,102.03 -6.43,143.43 -40.28,44.9 -59.19,53.57 -120.21,54.99zm148.35 236.98c14.96,-3.41 35.66,-1.67 56.35,-7.22 36.77,-9.88 6.03,11.89 30.89,24.01 12.66,6.18 36.41,7.37 44.08,22.18 14.57,28.15 88.59,37.14 70.76,-6.44 -4.43,-10.84 -27.62,-18.99 -38.98,-26.82 -24.71,-17.04 21.16,-34.64 -4.82,-93.21 -10.72,-24.16 11.51,-60.19 -15.17,-108.23 -2.62,-4.71 -3.31,-9.54 -0.02,-12.1 11.91,-9.29 44.04,-19.32 62.51,-36.38 62.55,-36.88 72.17,-121.17 53.13,-185.11 -24.44,-82.09 48.72,-116.22 38.9,-195.3 -3.57,-28.77 -27.54,-80.23 -9.16,-106.56 33.16,-47.5 -1.83,-58.31 -43.36,-38.5 -52.69,24.2 -102.56,89.64 -123.57,128.16 -17.6,37.37 -22.28,41.07 -35.05,38.07 -42.11,-6.26 -74.57,-1.63 -114.43,5.87 -14.19,2.67 -42.37,13.21 -47.7,14.07 -0.13,-0.07 -17.9,-23.06 -21.3,-26.54 -21.33,-21.85 -61.02,-50.25 -88.88,-61.66 -31.51,-12.91 -49.28,-15.8 -83.03,-18.41 -11.51,-0.89 -75.28,5.22 -74.53,19.55 2.25,7.44 17.11,7.12 26.09,13.58 6.93,4.98 12.55,15.37 17.02,22.7 11.48,18.87 20.43,30.67 26.15,52.59 5.81,22.31 5.98,38.6 18.38,59.48 5.4,9.09 40.79,45.98 41.28,47.41 -7.87,-2.83 -15.44,1.22 -20.12,-0.4 -0.57,17.16 39.72,11.09 32.82,69 -3.83,32.13 -15.14,54.5 -11.89,89.87 7.14,77.76 72.07,106.21 87.74,112.79 -15.82,34.14 -71.25,33.87 -95.72,37.16 -65.97,8.88 -54.73,13.15 -85.62,49.8 -25.3,-74.63 -60.13,-79.91 -43.47,-168.4 11.17,-59.35 0.96,-129.31 -22.45,-184.11 -32.33,-75.68 -145.79,-212.85 -239.15,-191.68 11.52,14.69 22.27,11.99 34.23,31.14 11.86,18.98 15.79,20.95 22.19,43.97 11.12,39.97 18.22,71.97 16.43,113.98 -4.32,101.54 -10.52,139.11 18.68,238.32 18.58,63.12 83.71,105.06 139.98,130.99 30.44,14.03 53.6,38.07 67.07,68.05 16.39,36.47 65.42,41.07 78.31,57.92 -3.19,13.26 -7.57,20.17 -18.7,27.87 -11.02,35.4 117.24,28.81 123.9,16.5 17.45,-32.26 -37.28,-16.64 -42.22,-29.36 -8.98,-23.12 41.12,-18.62 53.06,-19.55 52.45,-4.11 15.53,-10.53 54.55,15.44 5.62,3.74 22.24,12.66 28.35,13.64 19.95,3.2 7.18,4.71 25.75,13.82 14.9,7.31 51.45,16.15 66.5,6.92 10.34,-56.03 -56.01,-44.02 -55.73,-68.86z"/>
    <path class="fil2" d="M544.38 895.27c-15.94,25.24 -2.53,66.29 8.13,92.36 8.76,21.4 39.05,61.82 41.69,73.49 -3.19,13.88 -9.69,24.18 -18.72,32.5 1.92,0.33 13.88,-0.75 17.93,-1.08 8.02,-0.66 12.85,-1.09 21.13,-0.6 9.18,0.55 33.97,2.92 38.76,-5.48 -4.42,-0.84 -6.81,-2.02 -9.08,-5.41 -9.07,-26.78 37.62,-17.12 40.54,-63.78 3.5,-55.83 -28.26,-63.5 -32.54,-71.69 12.32,-6.8 31.08,20.93 34.55,31.76 3.42,-3.26 2.19,-6.9 1.9,-12.7l-3.53 -32.42 -2.7 0.4c11.15,-2.74 7.43,1.96 9.99,17.52 5.17,31.47 7.01,46.4 26.35,72.41 15.97,21.47 44.54,58.96 75.42,57.97l51.88 -14.83c-35.22,-9.26 -39.66,-38.51 -22.35,-67.12 29.07,-48.07 18.89,-81.02 17.12,-87.16 -1.77,-2.97 -0.76,-13.64 -2.31,-16.5 -0.42,-0.78 -0.54,1.65 -1.28,1.48 -12.44,-2.83 -10.84,-23.18 -11.95,-25.3 -0.55,-1.04 -3,6.58 -3.95,5.94 -8.76,-5.88 -3.79,-21.77 -14.13,-28.79 -36.97,-2.1 -67.99,-3.74 -105.26,-12.76 -7.88,22.62 -29.2,35.42 -71.31,40.69 -20.32,2.54 -72.92,2.98 -86.27,19.12z"/>
    <path class="fil4" d="M862.29 730.2c-6.44,-5.45 -32.6,-16.33 -20.06,-28.64 6.83,-6.7 36.38,-7.44 44.27,-3.97 1.99,9.88 -11.25,22.49 -14.88,29.68 22.44,10.29 25.89,-1.46 35.43,-3.34 -0.93,5.59 -11.04,11.93 -16.78,12.83 -11.17,1.76 -15.13,-3.3 -23.19,-6.37 -4.98,8.86 -7,12.85 -18.07,14.52 -8.64,1.31 -16.05,0.69 -24.92,-5.57 5.12,-3.12 29.59,7.27 38.2,-9.15zm195.75 26.2c-75.29,34.94 -146.29,-26.37 -163.57,-97.02 -10.21,-41.78 5.4,-88.59 2.53,-131.71 -1.83,-27.54 -28.67,-89.47 -63.34,-65.91 -63.03,42.82 -12.37,168.49 -12.43,223.56 -0.06,52.53 -15.66,59.41 -48.21,93.38 -35.53,30.9 -86.03,29.74 -103.78,30.8 7.61,9.48 20.28,17.43 43.29,23.4 49.38,9.62 130.79,13.85 178.47,6.4 56.61,-8.84 135.35,-28.96 167.03,-82.9z"/>
    <path class="fil2" d="M459.42 922.69c5.91,4.98 42.99,34.2 43.39,37.87l2.8 -5.99c14.42,-88.21 -47.23,-87.92 -44.44,-160.87 0.81,-36.18 9.87,-59.47 7.54,-100.41 -1.85,-32.55 -0.01,-59.07 -10.8,-91.04 -16.57,-49.06 -46.38,-92.74 -79.13,-132.07 -16.25,-19.52 -37.41,-33.75 -55.52,-51.12 -9.84,-9.44 -56.15,-42.42 -72.69,-35.67 90.33,38.2 129.18,143.13 146.33,232.03 11.73,60.8 -3.59,115.03 11.09,171.8 12.5,48.33 42.81,87.96 51.43,135.47z"/>
    <path class="fil5" d="M266.92 417.53l-21.43 -18.61c69.59,86.14 34.43,217.69 43.18,319.64 4.67,54.42 20.84,91.4 49.22,136.27 13.79,21.81 87.85,73.14 113.4,77.96l-6.62 -21c-53.45,-26.86 -107.23,-160.66 -117.41,-224.5 -16.48,-68.66 -24.74,-160.37 -39.79,-213.49 -1.94,-6.87 -17.9,-52.2 -20.55,-56.28zm3.66 3.6l1.37 1.53 -1.37 -1.53 0 0z"/>
    <path class="fil2" d="M444.67 911.78c-9.58,-31.75 -48.22,-59.03 -61.94,-105.52 -11.15,-37.76 -6.41,-107.34 -10.95,-151.67 -8.72,-88.94 -41.95,-168.2 -101.19,-233.47l-1.11 -1.27 -1.45 -1.55 -1.1 -0.78c-0.41,-0.03 18.61,49.41 20.55,56.28 15.04,53.12 26.04,186.28 42.52,254.94 10.97,75.18 76.5,169.61 114.68,183.05z"/>
    <path class="fil6" d="M451.12 907.13c-13.75,-47.52 -47.12,-86.12 -53.58,-142.57 -3.65,-31.87 -1.13,-59.3 -0.52,-90.92 0.54,-28.26 -5.34,-53.51 -10.61,-80.94 -8.83,-45.95 -26.79,-94.67 -55.15,-132.14 -21.63,-28.58 -71.11,-86.6 -111.61,-79.28 89.39,35.31 128.48,142.73 150.57,228.36 15.72,60.95 7.73,110.28 13.55,169.46 2.89,47.76 38.89,90.97 67.35,128.04z"/>
    <path class="fil2" d="M881.38 846.43c-0.2,2.8 4.84,22.75 5.58,28.84 3.89,31.97 -6.61,12.03 -7.26,24.27 -1.62,30.74 -5.51,9.05 -7.46,26.23 -1.55,13.71 -3.77,17.09 -6.9,29.41l0.66 2.34c10.57,19.88 11.9,10.06 15.23,8.29 2.92,7.69 2.33,27.52 6.17,31.75 1.59,-4.46 12.56,-18.58 10.38,-26.92 2.34,1.95 2.17,6.42 7.03,5.86 1.22,-9.24 10.41,-11.56 3.64,-27.73 5.53,-3 9.44,7.81 16.58,-6.71 5.57,-11.34 -1.3,-21.26 4.67,-27.05 1.5,6.26 9.78,13.15 13.64,13.59 -4.52,-12.74 5.99,-20.32 -2.6,-42.01 5.16,-1.25 10.41,12.26 8.6,21.69 13.59,-16.19 17.1,-55.6 6.47,-74.55l-74.43 12.71z"/>
    <path class="fil7" d="M484.92 369.23c55.04,-7.67 182.37,70.83 213.05,119.06l-19.48 26.81 2.08 1.89 65.93 -50.9 -3.95 -2.43c-15.61,6.88 -11.34,2.19 -24.27,-10.71 -17.45,-17.41 -53.1,-44.03 -74.02,-54.11 -22.65,-10.91 -35.94,-19.09 -61.27,-26.43 -37.74,-17.37 -71.37,-12.54 -71.03,-12.78l-27.42 7.53 0.36 2.07 0 0z"/>
    <path class="fil6" d="M982.36 585.41c65.27,-7.1 79.1,89.85 14.04,101.08 -68.06,11.74 -82.24,-93.66 -14.04,-101.08zm72.13 63.8c17.54,-89.04 -119.18,-113.63 -135.02,-25.88 -16.21,89.79 117.43,115.2 135.02,25.88z"/>
    <path class="fil6" d="M718.64 614.58c66.24,-10.47 81.42,92.38 14.12,101.34 -65.67,8.74 -81.96,-90.61 -14.12,-101.34zm71.38 64.12c20.88,-88.9 -113.9,-118.88 -133.86,-31.18 -20.06,88.15 113.14,119.39 133.86,31.18z"/>
    <path class="fil7" d="M932.52 433.46c-2.82,6.93 -6.63,9.89 -11.62,12.78l84.16 32.58 -30.82 -20.23c10.19,-29.93 41.26,-80.79 59.87,-107.04 24.84,-35.06 48.6,-55.22 77.8,-85.32 -6.13,-2.29 -11.42,-1.75 -17.06,-0.76 0.38,0.17 -41.08,31.44 -46.84,37.1 -39.61,38.93 -84.65,91.42 -97.22,146.27 -6.09,-5.12 -12.18,-10.25 -18.27,-15.37z"/>
    <path class="fil3" d="M992.59 613.68c4.43,-7.85 11.71,-13.53 21.14,-7.77 10,6.11 6.46,14.11 3.23,22.55 0.43,2.99 0.99,2.4 -1.92,1.47l-1.78 0.36c-6.42,7.17 2.43,19.88 6.93,26.49l-11.6 -12.38 6.8 14.66c-5.1,-2.91 -0.87,-5.63 -10.35,-3.08l4.54 10.88c-3.88,-0.86 -0.33,-3.71 -5.84,-5.22 -4.16,-1.14 -1.12,1.59 -5.76,-3.25 -2.08,5.68 -5.57,6.92 -11.22,6.15l-1.15 -9.36c-3.11,4.99 -6.26,10.87 -12.47,10.63 -4.75,-6.81 -1.5,-6.18 1.17,-13.66 -1.9,-4.2 -3.81,-3.02 -4.95,-6.33 -1.08,-3.12 0.77,-2.7 -0.5,-5.68 -1.45,-3.39 -2.69,-7.98 0.35,-11.17 6.05,-6.35 -5.22,-3.75 14.88,-14.17l2.93 4.15 5.59 -5.27zm-10.23 -28.27c-68.2,7.42 -54.03,112.82 14.04,101.08 65.07,-11.23 51.24,-108.18 -14.04,-101.08z"/>
    <path class="fil3" d="M716.71 691.94c0.88,3.51 1.81,3.21 -1.55,2.13l-4.54 -1.26 -0.73 -5.6c-0.81,-3.56 -1.7,-3.3 1.64,-1.93l1.28 -6.43c-3.19,-0.12 -2.53,1.25 -4.9,-1.86 -3.46,-4.55 -1.56,-3.53 -1.67,-5.93 -0.31,-6.41 -1.39,3.53 -1.66,-3.43 -0.12,-2.91 1.12,-3.33 4.35,-5.14l-4.69 -2.16c3.92,-2.41 1.96,-0.51 3.68,-1.28 8.24,-3.71 -6.86,1.42 3.71,-3.8l-5.29 -1.51c3.79,-4.43 10.64,-11.92 16.72,-11.58l2.01 6.58c3.69,-8.33 -1.61,-1.37 6.2,-9.39 -0.79,-3.12 -1.81,-2.98 1.06,-2.18 6.88,-7.52 20.96,-5.83 24.86,4.25 3.7,9.56 -1.33,16.89 -10.25,19.54 -1.77,3.41 -0.43,3.77 -4.67,2.28 2.79,1.11 2.98,5.83 7.46,9.48 6.51,5.3 1.87,1.67 4.72,8.03 1.66,3.69 2.51,2.08 4.09,5.63l-13.28 -13.08c7.84,8.03 4.39,5.31 8.25,15.27l-3.36 -1.22 1.66 4.85c-3.19,-4.6 0.35,-3.94 -5.08,-6.45 -5.42,7.08 0.23,3.55 -0.05,10.3l-4.05 -5.2c-6.32,7.87 3.1,4.03 -0.99,8.15l-5.64 -11.68 -4.19 8.44 -7.88 -2.53 -0.89 -10.4c-2.3,4.22 1.37,3.94 -2.61,5.72 -1.75,0.78 -1.26,-3.25 -3.72,3.38zm1.93 -77.36c-67.84,10.73 -51.55,110.09 14.12,101.34 67.29,-8.96 52.11,-111.82 -14.12,-101.34z"/>
    <path class="fil8" d="M1077.22 330.23c-34.78,111.19 -8.24,144.05 4.71,151.86 1.42,5.52 -1.17,9.22 2.48,12.86 56.1,-40.65 20.31,-101.78 16,-135.33 -1.7,-13.26 4.11,-53.34 4.05,-53.57l-27.23 24.18z"/>
    <path class="fil5" d="M949.42 985.82l-1.37 1.77c-0.03,11.9 -6.02,26.83 -5.92,42.25 0.14,21.78 8.82,24.6 10.66,34.41l1.69 0.8 1.68 1.12 1.21 1.19 1.17 1.29 1.01 1.35 0.89 1.91 0.68 1.87c4.28,15.14 46.19,26.87 57.26,16.06 13.08,-30.47 -49.54,-29.31 -49.83,-57.35 -0.18,-17.38 33.88,-40.38 6.46,-83.23l-25.6 36.57z"/>
    <path class="fil8" d="M602.31 547.43c14.77,8.81 -8.26,-106.24 -29.87,-129.48l-56.14 -34.12c14.45,31.94 35.41,40.39 41.51,83.67 3.68,26.14 21.93,65.5 44.5,79.94z"/>
    <path class="fil5" d="M594.2 1061.12c-2.65,-11.67 -32.94,-52.08 -41.69,-73.49 -10.66,-26.07 -23.88,-67.43 -7.93,-92.68 -30.1,22.56 -43.35,68.47 -30.54,104.6 12.38,34.93 65.31,42.48 80.17,61.56z"/>
    <path class="fil2" d="M511.97 359.64c-0.34,0.24 42.96,0.18 71.03,12.78 25.33,7.34 38.62,15.52 61.27,26.43 20.92,10.07 56.57,36.7 74.02,54.11 12.93,12.9 8.66,17.58 24.27,10.71 -0.82,-20.95 -69.37,-73.5 -89.73,-81.35 -54.67,-21.08 -76.19,-38.39 -140.85,-22.67z"/>
    <path class="fil9" d="M1081.93 482.09c-12.95,-7.81 -34.99,-40.43 -4.71,-151.86 -32.03,34.62 -39.31,86.29 -30.36,132.06 5.23,26.73 8.08,16.89 21.03,35.55 4.68,-5.25 6.78,-14.29 14.04,-15.75z"/>
    <path class="fil6" d="M866.02 957.51c7.85,-5.17 4.68,-18.03 6.24,-31.74 1.95,-17.18 5.84,4.51 7.46,-26.23 0.64,-12.24 11.15,7.7 7.26,-24.27 -0.74,-6.09 -5.78,-26.03 -5.58,-28.84 -32.45,3.42 -50.36,1.92 -63.83,1.27 4.25,8.14 -0.19,15.28 5.14,20.69 1.95,-1.95 3.9,-3.9 5.85,-5.84 -0.02,0.23 -1.96,15.57 7.94,29.69 0.93,-3.67 3.86,-10.14 4.78,-13.81 -1.54,20.07 1.17,31.46 12.03,36.29 3.01,10.28 5.16,17.66 6.34,27.66 1.44,8.43 6.45,15.41 6.38,15.14z"/>
    <path class="fil5" d="M842.72 982.33c-5.44,6.14 -0.65,19.88 1.66,27.31 1.46,4.69 2.29,7.09 4.4,11.47 3.5,7.26 2.29,7.68 9.79,7.85l34.11 -7.66 2.77 -1.33c16.72,-12.9 43.73,-58.68 34.9,-75.03l-0.58 2.25 -1.75 1.86c-6.73,7.45 -2.65,18.67 -9.08,22.96 -1.17,-1.61 -2.34,-3.21 -3.52,-4.82 -7.1,3.48 -6.39,14.55 -9.59,21.83 -0.98,-2.57 -0.03,-6.35 -2.93,-7.7 -7.77,3.9 -12.27,16.72 -13.29,29.37 -8.65,-10.1 -7.5,-17.22 -10.44,-30.02 -2.65,-11.55 -5.09,-2.63 -13.99,-13.51 -12.27,-14.99 -6.04,-41.26 -14.09,-42.29l-8.38 57.45z"/>
    <path class="fil2" d="M928.97 439.72l21.82 9.11c12.57,-54.85 58.43,-108.12 98.04,-147.04 5.75,-5.66 46.39,-36.16 46.01,-36.32 -61.33,1.35 -145.21,120.47 -165.87,174.26z"/>
    <path class="fil6" d="M930.35 944.95l-0.58 2.25 -1.75 1.86 1.75 -1.86 0.58 -2.25c8.83,16.35 -18.19,62.13 -34.9,75.03l-2.77 1.33 2.77 -1.33c12.81,-3.28 60.35,-44.88 66.69,-57.78 15.08,-25.11 24.83,-93.05 4.92,-103.12 2.21,39.84 -19.07,50.29 -22.23,78.96l-11.21 -12.13 -3.28 19.04z"/>
    <path class="fil9" d="M602.31 547.43c3.23,2.55 14.94,14.73 18.24,11.93 1.37,-11.96 -4.62,-20.33 -6.67,-30.36 8.26,9.26 16.21,16.77 28.21,23.05 3.17,-1.85 7.05,-54.73 -55.87,-120.76 -4.27,-4.48 -8.5,-8.92 -13.77,-13.34 21.61,23.24 44.64,138.29 29.87,129.48z"/>
    <path class="fil5" d="M675.02 802.12c-17.23,-3.9 -40.54,-63.36 -43.57,-80.98 -5.55,-32.23 3.07,-111.67 -7.29,-131.53 3.02,31.42 4.55,33.27 -1.34,65.62 -8.16,44.79 -12,78.76 11.86,118.57 6.05,10.1 20.17,26.74 40.34,28.32z"/>
    <path class="fil6" d="M952.8 1064.25l1.69 0.8 1.68 1.12 1.21 1.19 1.17 1.29 1.01 1.35 0.89 1.91 0.68 1.87 -0.68 -1.87 -0.89 -1.91 -1.01 -1.35 -1.17 -1.29 -1.21 -1.19 -1.68 -1.12 -1.69 -0.8c-1.84,-9.81 -10.53,-12.63 -10.66,-34.41 -0.1,-15.42 5.89,-30.35 5.92,-42.25l1.37 -1.77 -1.37 1.77 -47.01 34.78c-1.44,15.82 5.17,26.29 17.61,29.76 8.22,2.29 30.8,11.61 34.14,12.12z"/>
    <path class="fil5" d="M794.2 1080.5c11.36,-0.44 10.16,13.35 33.19,17.87 8.82,1.73 35.73,7.13 42.95,4.02 9.23,-11.72 -5.67,-33.73 -24.27,-36.72l-51.88 14.83z"/>
    <path class="fil5" d="M686.77 977.32c9.37,26.63 5.42,47.55 -4.76,72.07 8.99,6.62 35.56,2.1 46.65,-0.74 -2.7,-6.8 -19.31,-28.83 -24.7,-37.76 -8.19,-13.58 -11.81,-41.31 -15.29,-46.27 0.29,5.81 1.52,9.45 -1.9,12.7z"/>
    <path class="fil5" d="M575.48 1093.62c-9.03,19.5 104.94,21.58 114.67,8.19 3.15,-4.33 1.59,-8.78 -7.51,-13.18l-29.35 -2.18c-4.79,8.4 -29.58,6.03 -38.76,5.48 -8.28,-0.49 -13.11,-0.06 -21.13,0.6 -4.04,0.33 -16.01,1.42 -17.93,1.08z"/>
    <path class="fil10" d="M711.53 685.29c-3.34,-1.37 -2.45,-1.63 -1.64,1.93 2.57,0.14 1.94,0.71 1.64,-1.93l4.39 1.25 0.79 5.4c-2.09,0.33 -1.42,-0.24 -1.55,2.13 3.36,1.07 2.43,1.38 1.55,-2.13 2.46,-6.63 1.97,-2.6 3.72,-3.38 3.98,-1.78 0.32,-1.49 2.61,-5.72l0.89 10.4 7.88 2.53 4.19 -8.44 5.64 11.68c4.09,-4.12 -5.33,-0.28 0.99,-8.15l4.05 5.2c0.28,-6.75 -5.37,-3.22 0.05,-10.3 5.43,2.51 1.89,1.85 5.08,6.45l-1.66 -4.85 3.36 1.22c-3.86,-9.95 -0.41,-7.24 -8.25,-15.27l13.28 13.08c-1.58,-3.55 -2.43,-1.94 -4.09,-5.63 -2.86,-6.37 1.79,-2.73 -4.72,-8.03 -4.49,-3.65 -4.67,-8.38 -7.46,-9.48 4.24,1.48 2.9,1.12 4.67,-2.28 -17.47,0.88 -16.57,-9.32 -15.67,-21.61l1.06 -2.18 1.17 -1.28 1.25 -1.06 1.99 -1.02c-2.67,-0.82 -2.32,-1.57 -1.99,1.02 -2.03,-0.68 -1.62,-1.04 -1.25,1.06l-1.17 1.28c-2.87,-0.8 -1.85,-0.94 -1.06,2.18 -7.82,8.02 -2.51,1.06 -6.2,9.39l-2.01 -6.58c-6.08,-0.34 -12.93,7.15 -16.72,11.58l5.29 1.51c-10.57,5.22 4.53,0.1 -3.71,3.8 -1.73,0.78 0.24,-1.13 -3.68,1.28l4.69 2.16c-3.23,1.81 -4.46,2.23 -4.35,5.14 0.28,6.96 1.36,-2.98 1.66,3.43 0.12,2.41 -1.79,1.38 1.67,5.93 2.37,3.1 1.7,1.73 4.9,1.86l-1.28 6.43zm22.29 -13.38c-5.04,11.61 -23.41,3.38 -17.76,-8.95 5.07,-11.06 23.08,-3.3 17.76,8.95z"/>
    <path class="fil10" d="M1013.25 630.29l1.78 -0.36c2.92,0.93 2.36,1.52 1.92,-1.47l-1.92 1.47 -1.78 0.36c-14.42,5.4 -21.47,-2.62 -20.66,-16.61l-5.59 5.27 -2.93 -4.15c-20.1,10.41 -8.83,7.82 -14.88,14.17 -3.04,3.19 -1.8,7.78 -0.35,11.17 1.27,2.98 -0.58,2.57 0.5,5.68 1.14,3.31 3.04,2.13 4.95,6.33 -2.67,7.48 -5.92,6.85 -1.17,13.66 6.21,0.24 9.36,-5.64 12.47,-10.63l1.15 9.36c5.65,0.77 9.15,-0.47 11.22,-6.15 4.65,4.84 1.6,2.11 5.76,3.25 5.51,1.51 1.96,4.36 5.84,5.22l-4.54 -10.88c9.48,-2.54 5.25,0.18 10.35,3.08l-6.8 -14.66 11.6 12.38c-4.51,-6.6 -13.35,-19.32 -6.93,-26.49zm-35.87 9.74c-1.59,-14.54 18.05,-14.89 19.48,-3.52 1.79,14.15 -18.13,15.86 -19.48,3.52z"/>
    <path class="fil3" d="M844.38 706.75c7.14,-6.57 27.02,-7.38 36.22,-6.32 -1.37,6.1 -9.33,22.23 -15.78,22.81 -5.75,0.52 -7.68,-4.33 -11.31,-7.99 -3.17,-3.19 -6.78,-4.94 -9.13,-8.5zm17.92 23.45c-8.61,16.42 -33.08,6.03 -38.2,9.15 6.56,7.63 16.01,8.2 24.66,6.89 11.07,-1.67 14.25,-6.64 19.23,-15.49 8.06,3.07 11.12,7.78 22.3,6.02 5.74,-0.9 15.85,-7.24 16.78,-12.83 -8.84,0.06 -12.99,13.63 -35.43,3.34 3.62,-7.19 16.6,-18.6 16.73,-29.54 -8.98,-3.95 -46.86,-1.67 -50.76,6.93 -4.88,10.79 18.9,20.64 24.7,25.55z"/>
    <path class="fil6" d="M858.56 1028.97c-7.49,-0.17 -6.29,-0.59 -9.79,-7.85 -2.11,-4.38 -2.93,-6.78 -4.4,-11.47 -2.31,-7.43 -7.1,-21.17 -1.66,-27.31 -2.03,0.98 -12.48,17.12 -14.15,20.32 -4.38,8.4 -7.17,19.15 -6.99,28.65 9.15,1.54 29.36,2.62 36.99,-2.34z"/>
    <path class="fil5" d="M505.61 954.58l-2.8 5.99c-0.4,-3.67 -37.48,-32.89 -43.39,-37.87 1.65,5.72 1.57,11.73 0.48,17.4 8.98,5.76 16.41,10.35 24.59,17.09 8.03,6.61 12.64,14.08 19.09,19.52l2.03 -22.13z"/>
    <path class="fil11" d="M992.59 613.68c-0.8,14 6.24,22.01 20.66,16.61l1.78 -0.36 1.92 -1.47c3.23,-8.44 6.77,-16.44 -3.23,-22.55 -9.43,-5.76 -16.71,-0.08 -21.14,7.77z"/>
    <path class="fil10" d="M844.38 706.75c2.36,3.56 4.24,6.1 7.41,9.29 3.63,3.65 7.28,7.71 13.03,7.19 6.45,-0.58 14.41,-16.71 15.78,-22.81 -9.19,-1.05 -29.08,-0.25 -36.22,6.32z"/>
    <path class="fil3" d="M977.39 640.03c1.35,12.33 21.27,10.62 19.48,-3.52 -1.43,-11.37 -21.08,-11.02 -19.48,3.52z"/>
    <path class="fil3" d="M733.83 671.9c5.32,-12.25 -12.69,-20.01 -17.76,-8.95 -5.65,12.33 12.72,20.56 17.76,8.95z"/>
    <path class="fil11" d="M709.89 687.22l0.73 5.6 4.54 1.26c0.13,-2.38 -0.54,-1.8 1.55,-2.13l-0.79 -5.4 -4.39 -1.25c0.3,2.63 0.93,2.07 -1.64,1.93z"/>
    <circle class="fil12 str2" transform="matrix(0.385252 0.0208677 -0.0208677 0.385252 1006.3 617.811)" r="40.51"/>
    <circle class="fil12 str2" transform="matrix(0.385252 0.0208677 -0.0208677 0.385252 743.367 647.534)" r="40.51"/>
    <circle class="fil12" transform="matrix(0.117444 0.00636149 -0.00636149 0.117444 713.301 689.678)" r="40.51"/>
    <circle class="fil12" transform="matrix(0.117444 0.00636149 -0.00636149 0.117444 971.041 658.935)" r="40.51"/>
    <circle class="fil12" transform="matrix(0.0619671 0.00335653 -0.00335653 0.0619671 878.99 701.61)" r="40.51"/>
   </g>
   <g>
    <g>
     <path class="fil13" d="M777.61 383.61l-0.96 5.52 5.56 -4.05 6.62 2.5c7.62,3.3 5.53,6.51 11.93,11.3l-6.23 5.93 -20.12 -8.98c1.05,-0.34 2.08,-0.54 3.16,-1.61 2.57,-2.56 0.84,-0.06 2.85,-4.21 -4.35,0.42 -15.14,5.61 -16.68,7.38 13.53,2.69 13.86,3.53 25.72,11.29 0.22,0.14 0.51,0.35 0.73,0.49l6.93 4.22c2.67,1.82 5.5,2.96 7.67,4.6 3.1,2.35 3.66,3.95 6.07,6.23 3.04,2.88 5.82,2.76 6.95,5.67 2.01,5.18 -1.06,3.62 -1.08,11.88 -4.42,0.03 -3.55,0.26 -6.16,1.24 0.23,0.43 0.58,0.87 0.81,1.23l1.91 2.95c0.09,0.17 2.63,0.97 -2.29,6.1 -8.6,8.97 -25.05,-7.14 -28,-11.96 -5.81,-9.48 -10.73,-37.71 -15.74,-42.43 -1.1,-1.04 -0.18,-0.69 -2.74,-1.8 -0.4,-0.17 -2.75,-0.7 -4.49,-0.92 1.94,6.64 -0.08,1.33 2.85,5.87 5.51,8.52 1.84,3.7 4.54,10.9 -2.58,-4.07 -14.04,-11 -18.38,-12.51 7.26,-1.48 14.89,-7.15 19,-12.66 2.3,-3.09 -0.19,-3.45 3.07,-0.45 2.48,-2.19 2.16,3.74 1.97,-3.63 -5.97,-13.52 -28.36,-16.78 -36.21,3.96l-2.73 6.29c-16.3,-5.45 -9.2,-2.95 -11.51,-1 4.71,2.05 7.11,1.11 9.99,5.7l1.53 3.69c9.26,2.56 6.58,-1.33 15.62,4.38l16.03 9.79c3.37,2.34 3.01,4.48 3.65,7.65l4.2 15.2c-6.42,-1.87 -12.54,-5.14 -16.51,-9.39 -5.45,1.68 1.06,0.88 -3.6,1.89 -0.28,0.06 -0.7,0.11 -0.97,0.15 -0.29,0.04 -0.81,-0.02 -1.06,-0l-3.49 -6.15c0.41,-5.45 0.9,-2.64 1.16,-2.92l-5.33 -5.85c-2.33,1.47 -0.19,1.08 -4.61,1.25 2.59,3.74 5.87,8.03 7.51,11.54 -8.06,-2.77 -8.13,-9.11 -16.8,-4.79 0.17,-6.8 2.38,-13.88 1.77,-19.18l-1.76 -5.32c-4.24,-5.37 -1.12,-6.12 -8.4,-6.18 2.18,5.16 4.52,4.22 3.74,11.16 -9.89,-3.2 -12.57,-6.96 -24.38,-6.82l-3.57 6.94c-7.87,-4.39 -33.39,-27.08 -34.66,2.84 -27.69,-3.81 -19,20.54 -11.09,27.11 -3.13,3.98 -2.3,4.75 -1.82,10.4l2.29 -2.68c0.18,-0.23 0.42,-0.56 0.61,-0.81 0.68,-0.89 1.48,-2.17 2.37,-3.22 1.29,1.94 -0.28,2.57 2.7,3.71 -9.46,3.12 -10.47,10.76 -19.52,16.31 -1.09,9.78 3.18,-1.94 -2.42,12.45 -1.84,4.73 -2.11,10.12 -2,16.47 -4.21,2.16 -8.9,4.19 -7.34,9.34 5.73,2.72 6.78,-1.63 17.71,-2.83 -1.26,2.65 -1.01,6.31 -2.05,9.24 -2.3,6.51 -4.31,2.48 -4.24,10.82 11.71,11.23 35.35,6.45 49.42,-3.93 6.55,8.41 0.44,8.77 9.54,16.65 -0.52,-3.7 -3.98,-4.65 -4.01,-11.16 36.61,1.43 23.6,-0.39 40.59,-12.05l1.93 -14.48c7.25,-1.51 10.19,-5.89 11.07,-12.22 -12.32,1.25 -0.92,-0.88 -8.44,4.89 -1.14,0.88 -6.61,3.04 -7.22,3.18 -3.55,0.79 -6.4,0.15 -10.15,0.85 -8.47,1.58 -7.39,4.68 -15.74,-0.65 -3.67,-2.35 -26.7,-10.67 -28.67,-9.59 5.54,-1.18 9.18,2.19 14.79,-2.46 -0.35,-0.29 -0.83,-0.52 -1.18,-0.71 -0.34,-0.18 -0.74,-0.45 -1.15,-0.66l-1.3 -2.83c21.74,-5.06 6.71,3.41 34.53,1.6 12.93,-0.84 11.45,-4.42 12.25,-6.03 -4.08,-2.78 -6.95,-0.04 -6.97,-0.03 -7.71,3.78 -10.61,-0.88 -20.15,-1.19 4.17,-1.59 4.26,-3.88 4.93,-8.63 -11.86,1.53 -3.22,2.93 -10.63,4.78 -4.37,1.09 -7.24,-1.98 -9.78,-4.13l-3.88 -9.38c-0.77,-4.14 -2.59,-3.56 -2.83,-4.83 -1.51,-8.34 2.78,-14.94 -3.99,-21.24l10.76 0.4 -1 6.9c2.58,-5.73 7.08,-4.51 12.55,-2.59 7.99,2.81 21.3,5.38 25.67,12.8l1.41 2.46c3.18,4.93 6.65,8.28 12.54,9.89l-1.76 -0.38c-0.26,0.02 -1.91,0.49 -2.25,0.6 -1.12,0.38 -4.42,1.77 -4.48,1.8 -6.98,2.71 -6.41,3.55 -7.53,7.84 0.48,-0.12 0.97,-0.29 1.41,-0.42 0.43,-0.13 0.86,-0.25 1.37,-0.41 9.17,-2.8 12.42,-4.57 22.26,-6.55 9.24,-1.86 13.18,-5.72 26.57,-1.57 5.46,1.69 19.28,18.05 34.33,11.47 2.28,-1 4.84,-2.82 5.57,-5.57 1.55,-5.88 1.33,0.26 -0.31,-1.88 0,6.78 -0.63,6.94 -4.54,10.08 -9.72,7.82 -23.39,11.36 -35.79,9.68 -27.77,-3.77 -22.28,-21.48 -49.64,-16.05 5.28,6.55 4.55,2.63 11.9,3.84 1.74,0.28 30.22,27.84 57.79,17.28 4.78,-1.83 1.52,-0.19 1.78,-1.42 -0.26,3.85 0.66,-0.99 -1.19,1.46l-2.04 3.11c-8.23,15.17 -22.95,14.56 -40.45,17.4l-9.31 3.21c10.59,2.62 25.19,0.84 35.42,-1.72 16.92,-4.23 7.34,-9.45 26.45,-0.05 -0.58,7.28 -0.6,11.22 5.27,13.78 -2.95,-5.68 -2.7,-5.09 -1.95,-12.41 16.93,7 40.42,9.67 51.18,-8.32l1.93 -2.95c3.28,1.66 11.21,7.12 11.95,10.33 0.52,2.26 0.81,1.27 -1.32,4.68l-1.72 2.11c15.22,-1.72 12.74,-6.75 20.66,-11.1 27.99,14.82 56.05,2.52 45.68,-9.77 -1.13,-1.34 -2.4,-2.1 -3.54,-2.83 -9.55,-6.12 -19.52,-5.08 -24.96,-8.17l5.01 -1.24c3.88,1.45 -1.69,3.82 11.18,5.73 6.12,0.91 12.26,0.64 16.74,-0.58 11.16,-3.03 10.09,-5.27 14.8,-12.1 2.8,-4.06 2.68,-2.11 1.64,-4.14 0.32,4.71 -2.03,18.88 -4.64,22.49 -2.26,3.11 -3.4,2.6 -6.16,4.59 4.38,0.74 17.89,-4.41 21.06,-6.83 4.37,-3.34 10.49,-9.48 13.16,-14.53 28.35,3.4 18.4,8.87 25.89,14.29 12.15,8.79 22.3,-0.44 33.26,-0.39 9.37,0.04 13.97,6.3 22.39,5.23 5.93,-18.12 -0.76,-30.63 -14.43,-36.4 26.06,-20.82 19.98,-43.96 8.29,-38.95 -2.7,1.16 -8.63,4.94 -11.02,6.28 -6.8,3.83 -27.37,16.83 -28.64,23.3 -4.75,-2.15 0.51,-2.01 -6.17,-2.47 0.93,-2.06 3.57,-4.52 5.2,-7.4 2.15,-3.8 3.25,-11.71 10.01,-18.14 2.2,-2.09 2.11,-1.36 4.11,-2.99 2.68,-2.2 2.46,-1.28 3.73,-4.74 -2.72,-1.32 -0.11,-0.69 -3.83,-0.61l-11.83 0.61c0.7,-10.15 3.29,-27.31 -3.91,-33.03 -10.79,-3.12 -14.96,15.14 -17.87,25.38 -3.69,12.98 -0.05,16.03 -5.33,22.62 -0.16,0.2 -0.42,0.47 -0.58,0.68l-3.43 5.22c-1.02,3.44 0.12,0.26 0.32,0.09 -3.28,-1.45 -5.06,-5.89 -6.44,-9.86 -3.05,-3.03 -1.56,-3.39 -6.2,-7.23 -10.42,-8.65 -15.31,-5.18 -24.83,-9.18 -0.16,-0.07 -0.73,0.03 -0.84,-0.31 -0.12,-0.37 -0.58,-0.29 -0.9,-0.31 -0.4,8.65 -2.18,19.38 -0.33,26.53 2.43,9.37 -5.8,3.93 -6.04,20.07l3.53 -2.49c0.91,-0.83 1.29,-1.38 2.01,-2.43l6.78 -11.33 8.63 5.16c0.03,-0.04 0.03,-0.14 0.03,-0.13 -4.92,3.16 -2.38,16.3 -6.61,23.48 -0.31,0.53 -2.27,2.92 -2.53,3.15 -9.34,8.48 -6.36,10.43 -16.22,11.75 -5.79,0.78 -13.82,1.17 -18.7,-1.28 2.74,-2.78 10.41,-4.41 16.78,-12.64 7.25,-9.38 -1.36,-0.99 8.66,-9.54 -1.52,-13.46 -2.2,3.42 -1.14,-12.13 0.42,-6.23 -0.53,-9.88 -1.04,-14.2 -1.07,-9.03 1.65,-23.72 -0.02,-29.14 -9.06,-1.33 -9.3,4.81 -13.71,6.19 -3.06,-3.72 -2.18,-7.67 -0.18,-11.25l6.65 -9.82c2.43,-4.4 3.39,-11.57 3.39,-17.14 4.08,5.36 5.81,9.02 6.18,16.15 0.19,3.68 -0.08,8.23 -0.06,12.2l1.28 10.74c3.03,-4.81 2.27,-3.35 2.46,-9.51 0,-8.26 0.39,-14.95 -1.83,-22.22 -2.35,-7.69 -3.86,-14.27 -11.23,-13.22 -0.22,0.26 -0.55,0.31 -0.63,0.81l-2.77 9.09c-0.86,4.58 -8.28,18.86 -10.76,23.22 -4.29,-5.12 0.63,-39.66 -19.88,-32.47 -1.51,3.67 -1.41,8.85 -1.78,13.86l-12.88 0.43c-0.74,-4.91 -1.24,-10.34 -3.16,-14.02 -6.08,0.86 -4.53,1.72 -5.75,8.21 -1.97,10.55 -9.14,16.97 -14.92,24.35 0.05,-3.56 0.15,-2.29 2.12,-5.14 2.76,-4.01 2.07,-0.09 2.99,-6.91 -16.32,4.2 -28.64,12.54 -39.07,22.52 -3.25,-3.22 -5.6,-4.51 -7.39,-8.07 -2.67,-5.32 -1.8,-7.64 -6.15,-10.97 -6.02,1.1 -9.36,6.6 -13.56,10.01 -6.73,-6.31 -10.77,-17.63 -26.77,-10.79z"/>
     <path class="fil14" d="M733.43 504.29c5.34,-1.88 8.82,-3.61 13.03,-0.39l9.31 -3.21c17.5,-2.84 32.22,-2.23 40.45,-17.4l2.04 -3.11c1.85,-2.46 0.93,2.38 1.19,-1.46 -0.26,1.23 3,-0.42 -1.78,1.42 -27.57,10.57 -56.05,-16.99 -57.79,-17.28 -7.35,-1.21 -6.63,2.71 -11.9,-3.84 27.36,-5.44 21.87,12.27 49.64,16.05 12.4,1.68 26.06,-1.86 35.79,-9.68 3.9,-3.14 4.54,-3.3 4.54,-10.08 1.64,2.13 1.86,-4 0.31,1.88 -0.73,2.75 -3.28,4.57 -5.57,5.57 -15.06,6.57 -28.87,-9.79 -34.33,-11.47 -13.38,-4.14 -17.33,-0.29 -26.57,1.57 -9.84,1.99 -13.09,3.76 -22.26,6.55 -0.51,0.16 -0.94,0.28 -1.37,0.41 -0.44,0.13 -0.93,0.3 -1.41,0.42 1.12,-4.29 0.55,-5.12 7.53,-7.84 0.07,-0.03 3.36,-1.41 4.48,-1.8 0.33,-0.12 1.98,-0.58 2.25,-0.6l1.76 0.38c-5.89,-1.61 -9.36,-4.96 -12.54,-9.89l-1.41 -2.46c-4.37,-7.42 -17.67,-9.99 -25.67,-12.8 -5.47,-1.92 -9.97,-3.13 -12.55,2.59l1 -6.9 -10.76 -0.4c6.78,6.3 2.48,12.9 3.99,21.24 0.23,1.27 2.06,0.69 2.83,4.83l3.88 9.38c2.53,2.16 5.4,5.22 9.78,4.13 7.41,-1.85 -1.23,-3.25 10.63,-4.78 -0.67,4.75 -0.77,7.04 -4.93,8.63 9.54,0.31 12.44,4.97 20.15,1.19 0.02,-0.01 2.88,-2.75 6.97,0.03 -0.8,1.61 0.69,5.18 -12.25,6.03 -27.82,1.81 -12.79,-6.66 -34.53,-1.6l1.3 2.83c0.41,0.2 0.81,0.47 1.15,0.66 0.36,0.19 0.83,0.42 1.18,0.71 -5.61,4.65 -9.25,1.28 -14.79,2.46 1.97,-1.07 25,7.25 28.67,9.59 8.34,5.33 7.27,2.23 15.74,0.65 3.75,-0.7 6.6,-0.05 10.15,-0.85 0.61,-0.14 6.07,-2.3 7.22,-3.18 7.53,-5.77 -3.88,-3.64 8.44,-4.89 -0.88,6.33 -3.81,10.72 -11.07,12.22l-1.93 14.48z"/>
     <path class="fil15" d="M951.02 394.94c-0.19,6.16 0.57,4.7 -2.46,9.51l-1.28 -10.74c-0.02,-3.97 0.25,-8.52 0.06,-12.2 -0.38,-7.13 -2.11,-10.79 -6.18,-16.15 0,5.57 -0.96,12.74 -3.39,17.14l-6.65 9.82c-2,3.58 -2.88,7.53 0.18,11.25 4.41,-1.38 4.65,-7.53 13.71,-6.19 1.67,5.43 -1.04,20.12 0.02,29.14 0.51,4.32 1.47,7.97 1.04,14.2 -1.06,15.54 -0.37,-1.33 1.14,12.13 -10.02,8.55 -1.4,0.17 -8.66,9.54 -6.37,8.23 -14.03,9.87 -16.78,12.64 4.88,2.45 12.91,2.06 18.7,1.28 9.87,-1.33 6.88,-3.27 16.22,-11.75 0.26,-0.23 2.23,-2.62 2.53,-3.15 4.23,-7.18 1.69,-20.32 6.61,-23.48 0,-0 -0.01,0.1 -0.03,0.13l-8.63 -5.16 -6.78 11.33c-0.72,1.06 -1.1,1.6 -2.01,2.43l-3.53 2.49c0.24,-16.13 8.48,-10.7 6.04,-20.07 -1.86,-7.15 -0.07,-17.88 0.33,-26.53 0.32,0.01 0.77,-0.06 0.9,0.31 0.12,0.35 0.68,0.25 0.84,0.31 9.52,4.01 14.42,0.54 24.83,9.18 4.63,3.85 3.14,4.2 6.2,7.23 -0.47,-3.06 0.14,-0.98 2.78,-5.01 8.53,-13.04 7.95,-54.88 -13.11,-54.51 -3.55,7.14 -3.18,12.43 -8.51,20.85 -2.54,4.02 -10.65,14.77 -14.15,14.02z"/>
     <path class="fil16" d="M900.5 454.48c11.23,-2.72 12.66,0.65 19.55,4.68l-0.12 6.92c-1.81,1.16 -3.07,2.54 -4.92,1.57 7.19,-1.03 21.6,-13.88 23.52,-19.26 3.65,-10.22 0.26,-27.02 0.37,-31.13 0.12,-4.79 1.33,-7.11 1.27,-13.24l-11.05 16.95c-7.52,10.11 -15.44,23.03 -27.38,19.57 1.72,-5.37 0.6,-3.17 4.45,-6.03 4.09,-3.04 10.02,-4.11 12.42,-11.08 2.38,-6.9 3.57,-18.1 1.62,-26.03 0.77,2.58 2.09,-2.34 -2.99,2.87 -6.16,6.31 -3.23,9.69 -16.72,13.09 0.19,-0.41 0.57,-1.37 0.72,-1.14l2.74 -3.84c9.04,-12.57 5.92,-7.15 12.72,-15.48 0.15,-0.19 0.38,-0.46 0.53,-0.66 5.52,-7.07 3.16,-10.13 0.32,-17.48 -2.56,-6.6 -10.43,-21.58 -10.07,-2.06 0.32,17.16 -6.66,33.56 -7,39.67 -0.58,10.63 2,19.32 1.25,33.23 -0.18,3.41 -1.39,7.85 -1.24,8.87z"/>
     <path class="fil15" d="M777.61 383.61l-4.53 0.07c0.18,7.37 0.51,1.44 -1.97,3.63 -3.26,-3 -0.76,-2.64 -3.07,0.45 -4.11,5.52 -11.74,11.18 -19,12.66 4.33,1.51 15.8,8.44 18.38,12.51 -2.7,-7.19 0.97,-2.37 -4.54,-10.9 -2.93,-4.53 -0.91,0.77 -2.85,-5.87 1.73,0.22 4.09,0.75 4.49,0.92 2.56,1.1 1.63,0.76 2.74,1.8 5.01,4.71 9.93,32.94 15.74,42.43 2.95,4.82 19.4,20.94 28,11.96 4.92,-5.13 2.38,-5.93 2.29,-6.1l-1.91 -2.95c-0.23,-0.36 -0.58,-0.8 -0.81,-1.23 2.61,-0.98 1.73,-1.21 6.16,-1.24 0.01,-8.26 3.09,-6.7 1.08,-11.88 -1.13,-2.91 -3.91,-2.79 -6.95,-5.67 -2.41,-2.28 -2.97,-3.88 -6.07,-6.23 -2.17,-1.64 -4.99,-2.78 -7.67,-4.6l-6.93 -4.22c-0.22,-0.13 -0.51,-0.35 -0.73,-0.49 -11.86,-7.76 -12.19,-8.6 -25.72,-11.29 1.54,-1.77 12.34,-6.96 16.68,-7.38 -2.01,4.15 -0.27,1.65 -2.85,4.21 -1.08,1.07 -2.11,1.27 -3.16,1.61l20.12 8.98 6.23 -5.93c-6.4,-4.79 -4.3,-8 -11.93,-11.3l-6.62 -2.5 -5.56 4.05 0.96 -5.52z"/>
     <path class="fil15" d="M822.86 441.76c2.44,1.62 5.42,1.29 9.74,3.47 6.84,3.44 6.83,8.42 15.32,0.57 8.67,-8.02 9.35,-19.35 9.44,-32.38 0.04,-5.67 0.52,-7.59 1.37,-12.54 0.96,-5.6 2.63,-7.74 4.8,-12.97l-16.53 8.85c-0.77,0.76 -1.86,2.16 -2.42,2.68l-5.53 4.35c-6.7,5.49 -4.51,5.55 -7.76,11.67 -5.9,11.1 -5.51,7.99 -7.75,22.47 -0.38,2.46 -0.52,-0.1 -0.68,3.84z"/>
     <path class="fil16" d="M854.87 449.15l4.86 9.74c16.98,1 20.48,-9.87 26.32,-10.67 5.99,-0.82 3.28,1.23 7.06,3.67 5.93,-23.23 -2.48,-26.06 0.34,-39.62 1.57,-7.55 -0.44,-7.38 -5.33,-1.59l-1.53 2.13c-2.78,4.26 -6.58,16.32 -14.02,20.88 -7.14,4.38 -7.29,-2.64 -16.24,12.85 -0.56,0.97 -0.77,1.21 -1.47,2.59z"/>
     <path class="fil16" d="M729.94 400.56l1.76 5.32c0.61,5.31 -1.59,12.38 -1.77,19.18 8.67,-4.32 8.74,2.03 16.8,4.79 -1.64,-3.51 -4.92,-7.8 -7.51,-11.54 4.42,-0.17 2.28,0.23 4.61,-1.25l5.33 5.85c-0.26,0.28 -0.74,-2.53 -1.16,2.92l3.49 6.15c0.25,-0.02 0.77,0.04 1.06,0 0.27,-0.04 0.69,-0.08 0.97,-0.15 4.66,-1.02 -1.85,-0.22 3.6,-1.89 3.97,4.25 10.09,7.53 16.51,9.39l-4.2 -15.2c-0.64,-3.17 -0.28,-5.32 -3.65,-7.65l-16.03 -9.79c-9.04,-5.7 -6.36,-1.82 -15.62,-4.38l-1.53 -3.69c-0.27,2.52 1.19,1.22 -2.67,1.93z"/>
     <path class="fil15" d="M858.61 478.72c-5.61,-3.81 -6.56,1.42 -9.86,-8.62l8.66 2.95c-1.72,0.29 0.66,0.22 -1.6,-0.51l-16.92 -14.78c-6.83,0.69 -7.1,2.57 -14.79,0 -0.04,7.33 -6.97,23.25 5.7,29.92 14.87,7.82 24.85,-7.45 28.82,-8.97z"/>
     <path class="fil17" d="M1028.66 461.47c0,7.7 -0.86,15 -3.7,21.12 2.35,0.34 12.06,-4.11 18.5,-4.07 10.14,0.06 12.74,3.96 19.73,4.6 0.71,-8.08 2.09,-7.17 -1.65,-14.03 -2.52,-4.63 -4.65,-6.81 -7.64,-9.42 -4.72,-4.12 -5.97,-4.49 -11.89,-2.08 -4.39,1.79 -1.95,1.39 -7.03,2.45 -3.7,0.78 -3.24,0.48 -6.32,1.43z"/>
     <path class="fil16" d="M648.63 418.34l2.03 3.45c0.14,0.25 0.31,0.57 0.45,0.84 10.82,20.22 11.85,17.9 27.57,17.9 2.47,-18.55 -2.6,-17.16 -9.87,-23.97l-0.99 2.24c-0.08,0.21 -0.21,0.6 -0.3,0.84 -0.73,2.05 -0.05,1.33 -1.19,3.63 -4.83,-4.65 -1.15,-3.12 -3.68,-9.86 -9.27,-0.53 -8.44,-0.74 -14.03,4.93z"/>
    </g>
    <circle class="fil18" cx="946.08" cy="440.72" r="7.48"/>
    <circle class="fil18" cx="907.83" cy="461.32" r="7.48"/>
    <circle class="fil18" cx="823.88" cy="426.87" r="4.8"/>
    <circle class="fil18" cx="790.74" cy="469.68" r="4.8"/>
    <circle class="fil18" cx="1032.56" cy="464.26" r="4.8"/>
    <circle class="fil18" cx="947.92" cy="399.08" r="4.8"/>
    <circle class="fil18" cx="749.75" cy="424.11" r="4.8"/>
    <circle class="fil18" cx="714.43" cy="472.9" r="4.04"/>
    <circle class="fil18" cx="707.68" cy="487.52" r="4.04"/>
    <circle class="fil18" cx="661.32" cy="488.61" r="2.02"/>
    <circle class="fil18" cx="643.89" cy="459.12" r="2.02"/>
    <circle class="fil18" cx="758.6" cy="450.57" r="2.02"/>
    <circle class="fil18" cx="696.07" cy="423.64" r="2.02"/>
    <circle class="fil18" cx="825.37" cy="484.18" r="2.02"/>
    <circle class="fil18" cx="872.58" cy="413.92" r="2.02"/>
    <circle class="fil18" cx="972.98" cy="459.56" r="2.02"/>
    <circle class="fil18" cx="917.23" cy="398.24" r="2.02"/>
    <circle class="fil18" cx="1038.13" cy="442.13" r="2.02"/>
    <circle class="fil18" cx="890.22" cy="425.4" r="2.02"/>
    <circle class="fil18" cx="762.87" cy="400.02" r="2.02"/>
    <circle class="fil18" cx="998.07" cy="435.79" r="2.02"/>
    <circle class="fil18" cx="770.93" cy="489.05" r="2.02"/>
   </g>
   <g>
    <g>
     <path class="fil13" d="M855.24 893.7l-0.96 -2.35 2.84 1.25 2.68 -1.75c3.05,-2.19 1.81,-3.41 4.17,-6.14l-3.33 -2.02 -8.02 5.92c0.5,0.05 0.97,0.03 1.55,0.41 1.38,0.88 0.38,-0.06 1.67,1.58 -1.96,0.23 -7.23,-1.01 -8.08,-1.64 5.71,-2.5 5.78,-2.9 10.27,-7.48 0.08,-0.08 0.19,-0.2 0.27,-0.28l2.65 -2.53c1.01,-1.07 2.14,-1.84 2.94,-2.78 1.14,-1.34 1.23,-2.1 2.08,-3.34 1.07,-1.57 2.3,-1.79 2.52,-3.18 0.39,-2.48 -0.82,-1.5 -1.62,-5.14 -1.96,0.42 -1.59,0.23 -2.84,0.05 0.06,-0.21 0.17,-0.44 0.24,-0.62l0.56 -1.49c0.02,-0.08 1.07,-0.68 -1.61,-2.47 -4.67,-3.13 -10.37,5.58 -11.21,8 -1.65,4.75 -1.08,17.7 -2.84,20.26 -0.39,0.57 -0.01,0.32 -1.03,1.06 -0.16,0.12 -1.15,0.58 -1.89,0.84 0.22,-3.12 -0.16,-0.58 0.69,-2.87 1.61,-4.3 0.45,-1.82 0.95,-5.25 -0.74,2.05 -5.13,6.22 -6.9,7.31 3.35,-0.05 7.27,1.71 9.62,3.75 1.32,1.14 0.25,1.54 1.4,-0.1 1.31,0.73 0.59,-1.86 1.22,1.41 -1.33,6.55 -10.9,10.16 -16.38,1.76l-1.82 -2.52c-6.67,3.99 -3.78,2.19 -4.99,1.56 1.88,-1.36 3.03,-1.18 3.86,-3.48l0.32 -1.78c3.84,-2.03 3.04,-0.05 6.48,-3.44l6.13 -5.88c1.26,-1.36 0.89,-2.27 0.87,-3.73l0.38 -7.12c-2.66,1.45 -5.04,3.48 -6.38,5.75 -2.57,-0.21 0.38,-0.49 -1.77,-0.49 -0.13,0 -0.32,0.02 -0.44,0.03 -0.13,0.01 -0.36,0.09 -0.47,0.1l-0.95 3.06c0.71,2.37 0.65,1.08 0.79,1.18l-1.78 3.1c-1.17,-0.42 -0.19,-0.46 -2.16,-0.1 0.78,-1.9 1.81,-4.12 2.2,-5.82 -3.29,2 -2.71,4.81 -6.96,3.75 0.74,2.98 2.4,5.9 2.64,8.3l-0.26 2.52c-1.35,2.78 0.1,2.81 -3.11,3.55 0.47,-2.49 1.59,-2.31 0.57,-5.29 -4.06,2.37 -4.88,4.29 -10.11,5.38l-2.25 -2.72c-3.05,2.7 -12.12,15.2 -15.58,2.11 -11.86,4.37 -10.38,-7.23 -7.53,-10.9 -1.77,-1.46 -1.48,-1.88 -1.81,-4.42l1.27 0.96c0.1,0.08 0.24,0.21 0.35,0.3 0.39,0.33 0.87,0.81 1.36,1.2 0.38,-0.98 -0.37,-1.11 0.83,-1.9 -4.48,-0.47 -5.67,-3.74 -10.2,-5.31 -1.43,-4.22 1.59,0.55 -2.27,-5.27 -1.27,-1.91 -1.91,-4.26 -2.48,-7.08 -2.07,-0.55 -4.34,-0.99 -4.15,-3.41 2.27,-1.76 3.15,0.06 8.1,-0.47 -0.82,-1.05 -1.06,-2.69 -1.8,-3.88 -1.65,-2.65 -2.15,-0.68 -2.92,-4.37 4.08,-6.1 14.98,-6.28 22.21,-3.05 2.08,-4.35 -0.66,-3.91 2.6,-8.28 0.13,1.68 -1.3,2.44 -0.68,5.32 16.03,-4.18 10.46,-2.12 19.09,1.38l2.26 6.21c3.35,-0.04 5.07,1.62 6.07,4.33 -5.56,0.64 -0.32,0.48 -4.2,-1.34 -0.59,-0.28 -3.21,-0.7 -3.5,-0.7 -1.64,-0.01 -2.84,0.55 -4.56,0.61 -3.89,0.12 -3.72,-1.35 -6.89,1.81 -1.39,1.39 -10.76,7.3 -11.73,7.02 2.56,-0.01 3.84,-1.86 6.77,-0.35 -0.13,0.16 -0.32,0.31 -0.46,0.43 -0.13,0.11 -0.28,0.27 -0.44,0.4l-0.3 1.38c10.09,0.13 2.63,-2.16 15.09,-4.05 5.79,-0.88 5.49,0.84 5.99,1.47 -1.53,1.62 -3.07,0.69 -3.07,0.69 -3.77,-0.92 -4.6,1.42 -8.78,2.48 2,0.3 2.26,1.3 3.02,3.33 -5.39,0.47 -1.71,-0.98 -5.16,-1.08 -2.04,-0.06 -3.01,1.57 -3.92,2.77l-0.81 4.52c0.06,1.9 -0.8,1.82 -0.78,2.41 0.14,3.83 2.68,6.33 0.29,9.77l4.72 -1.22 -1.11 -2.95c1.69,2.28 3.57,1.31 5.79,-0.07 3.26,-2.02 8.88,-4.44 10.09,-8.14l0.38 -1.22c0.93,-2.49 2.13,-4.3 4.58,-5.58l-0.74 0.34c-0.12,0.02 -0.89,-0.03 -1.05,-0.05 -0.53,-0.06 -2.12,-0.35 -2.16,-0.36 -3.34,-0.52 -3.17,-0.95 -4.08,-2.73 0.22,0.01 0.46,0.03 0.66,0.05 0.2,0.02 0.41,0.03 0.64,0.05 4.32,0.35 5.92,0.81 10.47,0.73 4.26,-0.07 6.38,1.25 11.89,-1.88 2.25,-1.28 6.76,-9.84 14.05,-8.4 1.11,0.22 2.41,0.78 3,1.92 1.25,2.45 0.56,-0.24 0.04,0.86 -0.66,-3 -0.95,-3.01 -2.98,-4.01 -5.05,-2.51 -11.43,-2.75 -16.74,-0.81 -11.9,4.36 -7.76,11.65 -20.37,11.9 1.69,-3.41 1.75,-1.61 4.88,-2.85 0.74,-0.29 10.65,-15.22 23.85,-13.23 2.29,0.35 0.69,-0.06 0.92,0.45 -0.49,-1.67 0.39,0.38 -0.67,-0.53l-1.2 -1.17c-5.1,-5.9 -11.54,-4.21 -19.55,-3.76l-4.42 -0.52c4.42,-2.18 11.04,-2.81 15.81,-2.67 7.88,0.23 4.16,3.46 11.68,-2.54 -0.96,-3.16 -1.35,-4.9 1,-6.6 -0.75,2.8 -0.7,2.51 0.34,5.67 6.8,-4.73 16.91,-8.19 23.41,-1.29l1.14 1.12c1.28,-1.05 4.26,-4.23 4.27,-5.72 0.01,-1.05 0.24,-0.64 -1.03,-1.94l-0.96 -0.77c6.88,-0.72 6.28,1.75 10.2,2.9 10.93,-9.26 24.51,-6.55 21.12,-0.11 -0.37,0.7 -0.86,1.16 -1.29,1.59 -3.62,3.63 -8.13,4.13 -10.23,6.03l2.33 0.06c1.57,-1.02 -1.12,-1.52 4.38,-3.62 2.62,-0.99 5.35,-1.47 7.45,-1.37 5.22,0.26 4.97,1.35 7.71,3.91 1.63,1.52 1.39,0.67 1.12,1.67 -0.32,-2.11 -2.73,-8.14 -4.23,-9.48 -1.3,-1.15 -1.75,-0.82 -3.17,-1.43 1.87,-0.75 8.33,0.21 9.96,0.98 2.25,1.05 5.55,3.17 7.22,5.14 12.19,-4.25 7.27,-5.7 10.05,-8.82 4.52,-5.06 9.89,-1.97 14.72,-3.05 4.14,-0.93 5.56,-4.14 9.38,-4.48 4.38,7.43 2.64,13.6 -2.84,17.47 13.53,6.67 13.08,17.48 7.44,16.4 -1.3,-0.25 -4.29,-1.35 -5.48,-1.71 -3.38,-1.03 -13.72,-4.78 -14.91,-7.51 -1.89,1.41 0.42,0.84 -2.48,1.69 0.61,0.82 2.01,1.65 3.01,2.76 1.32,1.47 2.57,4.85 6.18,7.04 1.17,0.71 1.07,0.39 2.11,0.93 1.4,0.71 1.21,0.32 2.11,1.73 -1.07,0.85 0.02,0.31 -1.63,0.64l-5.28 0.88c1.29,4.42 4.1,11.74 1.47,14.97 -4.47,2.43 -8.08,-5.23 -10.35,-9.48 -2.89,-5.38 -1.57,-7.07 -4.55,-9.47 -0.09,-0.07 -0.23,-0.17 -0.32,-0.24l-2.02 -1.97c-0.78,-1.42 0.03,-0.12 0.13,-0.07 -1.31,0.96 -1.66,3.09 -1.89,4.98 -1.05,1.63 -0.36,1.65 -2.04,3.79 -3.76,4.83 -6.26,3.77 -10.08,6.46 -0.06,0.05 -0.33,0.06 -0.34,0.22 -0.02,0.18 -0.23,0.18 -0.37,0.22 -1.01,-3.78 -2.84,-8.35 -2.72,-11.68 0.17,-4.38 -2.94,-1.17 -4.61,-8.28l1.8 0.76c0.48,0.28 0.7,0.48 1.12,0.88l4.09 4.35 3.31 -3.12c0.02,0.02 0.03,0.06 0.03,0.06 -2.48,-0.92 -2.63,-6.97 -5.19,-9.73 -0.18,-0.2 -1.28,-1.07 -1.42,-1.15 -4.95,-2.84 -3.82,-3.99 -8.31,-3.62 -2.63,0.22 -6.22,0.82 -8.13,2.38 1.48,0.96 5.03,0.93 8.64,3.95 4.11,3.44 -0.51,0.57 4.75,3.38 0.63,6.09 -1.3,-1.3 0.67,5.47 0.79,2.71 0.72,4.42 0.92,6.37 0.41,4.09 3.03,10.32 2.82,12.88 -3.87,1.47 -4.57,-1.22 -6.66,-1.41 -0.99,1.94 -0.22,3.6 1.01,4.99l3.89 3.69c1.5,1.71 2.62,4.78 3.16,7.24 1.28,-2.76 1.69,-4.55 1.17,-7.73 -0.27,-1.64 -0.83,-3.62 -1.21,-5.38l-0.48 -4.87c1.81,1.83 1.33,1.26 2.01,3.96 0.8,3.65 1.62,6.56 1.35,9.99 -0.29,3.62 -0.32,6.67 -3.68,6.93 -0.12,-0.09 -0.27,-0.08 -0.36,-0.3l-2.1 -3.75c-0.82,-1.94 -5.49,-7.53 -7,-9.21 -1.4,2.68 4.12,17.46 -5.63,16.27 -1.02,-1.47 -1.48,-3.77 -2.12,-5.95l-5.73 1.06c0.15,2.24 0.45,4.69 -0.03,6.5 -2.77,0.21 -2.17,-0.32 -3.33,-3.07 -1.89,-4.47 -5.68,-6.61 -8.95,-9.31 0.37,1.57 0.29,0.99 1.43,2.07 1.61,1.51 0.92,-0.16 1.99,2.77 -7.62,-0.27 -13.87,-2.77 -19.44,-6.16 -1.13,1.74 -2.04,2.53 -2.48,4.28 -0.67,2.61 -0.06,3.55 -1.65,5.44 -2.77,0.1 -4.77,-2.01 -6.96,-3.11 -2.36,3.44 -3.04,8.83 -10.78,7.36z"/>
     <path class="fil14" d="M824.03 844.68c2.54,0.31 4.25,0.74 5.79,-1.09l4.42 0.52c8.01,-0.44 14.45,-2.14 19.55,3.76l1.2 1.17c1.06,0.91 0.18,-1.14 0.67,0.53 -0.23,-0.52 1.36,-0.11 -0.92,-0.45 -13.2,-1.99 -23.11,12.94 -23.85,13.23 -3.13,1.25 -3.19,-0.55 -4.88,2.85 12.61,-0.25 8.47,-7.54 20.37,-11.9 5.31,-1.95 11.69,-1.7 16.74,0.81 2.03,1.01 2.33,1.02 2.98,4.01 0.52,-1.1 1.21,1.58 -0.04,-0.86 -0.59,-1.14 -1.89,-1.7 -3,-1.92 -7.29,-1.44 -11.8,7.12 -14.05,8.4 -5.51,3.12 -7.63,1.81 -11.89,1.88 -4.54,0.08 -6.14,-0.39 -10.47,-0.73 -0.24,-0.02 -0.44,-0.03 -0.64,-0.05 -0.21,-0.02 -0.44,-0.04 -0.66,-0.05 0.91,1.78 0.74,2.21 4.08,2.73 0.03,0 1.62,0.3 2.16,0.36 0.16,0.02 0.93,0.07 1.05,0.05l0.74 -0.34c-2.45,1.28 -3.65,3.1 -4.58,5.58l-0.38 1.22c-1.21,3.7 -6.84,6.13 -10.09,8.14 -2.23,1.38 -4.1,2.35 -5.79,0.07l1.11 2.95 -4.72 1.22c2.38,-3.44 -0.15,-5.93 -0.29,-9.77 -0.02,-0.58 0.84,-0.51 0.78,-2.41l0.81 -4.52c0.91,-1.2 1.88,-2.83 3.92,-2.77 3.45,0.1 -0.23,1.55 5.16,1.08 -0.76,-2.03 -1.02,-3.03 -3.02,-3.33 4.18,-1.06 5.01,-3.4 8.78,-2.48 0.01,0 1.54,0.93 3.07,-0.69 -0.51,-0.63 -0.2,-2.35 -5.99,-1.47 -12.46,1.89 -5,4.18 -15.09,4.05l0.3 -1.38c0.16,-0.13 0.31,-0.29 0.44,-0.4 0.14,-0.12 0.33,-0.27 0.46,-0.43 -2.93,-1.51 -4.21,0.33 -6.77,0.35 0.98,0.28 10.34,-5.62 11.73,-7.02 3.17,-3.16 2.99,-1.69 6.89,-1.81 1.72,-0.06 2.92,-0.62 4.56,-0.61 0.28,0 2.91,0.43 3.5,0.7 3.88,1.82 -1.36,1.98 4.2,1.34 -1,-2.71 -2.73,-4.37 -6.07,-4.33l-2.26 -6.21z"/>
     <path class="fil15" d="M930.73 871.89c-0.68,-2.7 -0.2,-2.13 -2.01,-3.96l0.48 4.87c0.38,1.76 0.94,3.74 1.21,5.38 0.52,3.19 0.12,4.97 -1.17,7.73 -0.54,-2.46 -1.66,-5.53 -3.16,-7.24l-3.89 -3.69c-1.23,-1.39 -2,-3.05 -1.01,-4.99 2.08,0.18 2.78,2.88 6.66,1.41 0.22,-2.56 -2.41,-8.78 -2.82,-12.88 -0.19,-1.96 -0.12,-3.66 -0.92,-6.37 -1.97,-6.76 -0.03,0.62 -0.67,-5.47 -5.25,-2.81 -0.64,0.06 -4.75,-3.38 -3.61,-3.02 -7.16,-2.99 -8.64,-3.95 1.92,-1.56 5.5,-2.16 8.13,-2.38 4.49,-0.37 3.36,0.78 8.31,3.62 0.14,0.08 1.24,0.94 1.42,1.15 2.56,2.76 2.72,8.81 5.19,9.73 0,0 -0.01,-0.04 -0.03,-0.06l-3.31 3.12 -4.09 -4.35c-0.42,-0.4 -0.64,-0.6 -1.12,-0.88l-1.8 -0.76c1.67,7.1 4.78,3.9 4.61,8.28 -0.12,3.33 1.7,7.9 2.72,11.68 0.14,-0.04 0.35,-0.05 0.37,-0.22 0.02,-0.17 0.28,-0.18 0.34,-0.22 3.82,-2.69 6.32,-1.63 10.08,-6.46 1.67,-2.15 0.98,-2.16 2.04,-3.79 0.09,1.4 0.16,0.42 1.71,1.94 5.03,4.93 8.83,23.47 -0.5,25.34 -2.26,-2.81 -2.61,-5.18 -5.78,-8.38 -1.52,-1.53 -6.14,-5.49 -7.61,-4.82z"/>
     <path class="fil16" d="M902.65 850.49c5.22,0.11 5.53,-1.52 8.18,-3.96l-0.72 -3.04c-0.91,-0.34 -1.6,-0.82 -2.33,-0.22 3.28,-0.24 10.89,4.04 12.25,6.22 2.6,4.16 2.73,11.91 3.18,13.72 0.52,2.1 1.28,3.01 1.85,5.72l-6.52 -6.41c-4.3,-3.73 -9.05,-8.68 -13.99,-5.99 1.28,2.2 0.57,1.34 2.55,2.23 2.1,0.95 4.82,0.84 6.56,3.69 1.72,2.82 3.33,7.65 3.24,11.34 0.09,-1.22 1.15,0.83 -1.6,-0.98 -3.33,-2.19 -2.37,-3.97 -8.66,-4.16 0.12,0.16 0.38,0.55 0.43,0.43l1.58 1.43c5.21,4.67 3.31,2.58 7.12,5.6 0.08,0.07 0.21,0.17 0.3,0.24 3.12,2.59 2.38,4.17 1.83,7.69 -0.49,3.17 -2.52,10.54 -4.24,1.88 -1.52,-7.61 -6.2,-14.18 -6.94,-16.84 -1.29,-4.64 -0.99,-8.73 -2.67,-14.8 -0.41,-1.49 -1.38,-3.33 -1.41,-3.79z"/>
     <path class="fil15" d="M855.24 893.7l-2.01 0.41c-0.63,-3.27 0.08,-0.68 -1.22,-1.41 -1.15,1.64 -0.08,1.24 -1.4,0.1 -2.35,-2.04 -6.27,-3.8 -9.62,-3.75 1.77,-1.09 6.16,-5.26 6.9,-7.31 -0.5,3.44 0.66,0.95 -0.95,5.25 -0.85,2.28 -0.47,-0.26 -0.69,2.87 0.74,-0.27 1.73,-0.72 1.89,-0.84 1.02,-0.73 0.65,-0.49 1.03,-1.06 1.76,-2.57 1.19,-15.51 2.84,-20.26 0.84,-2.42 6.54,-11.13 11.21,-8 2.67,1.79 1.63,2.39 1.61,2.47l-0.56 1.49c-0.07,0.18 -0.18,0.41 -0.24,0.62 1.25,0.18 0.88,0.37 2.84,-0.05 0.81,3.65 2.01,2.66 1.62,5.14 -0.22,1.39 -1.45,1.61 -2.52,3.18 -0.84,1.24 -0.94,2 -2.08,3.34 -0.8,0.93 -1.93,1.71 -2.94,2.78l-2.65 2.53c-0.08,0.08 -0.19,0.2 -0.27,0.28 -4.48,4.58 -4.55,4.98 -10.27,7.48 0.85,0.63 6.12,1.88 8.08,1.64 -1.29,-1.64 -0.28,-0.7 -1.67,-1.58 -0.58,-0.37 -1.05,-0.36 -1.55,-0.41l8.02 -5.92 3.33 2.02c-2.36,2.73 -1.12,3.95 -4.17,6.14l-2.68 1.75 -2.84 -1.25 0.96 2.35z"/>
     <path class="fil15" d="M869.59 863.63c0.92,-0.95 2.27,-1.1 3.97,-2.48 2.69,-2.18 2.2,-4.38 6.71,-1.73 4.61,2.7 6.01,7.64 7.31,13.38 0.57,2.5 0.97,3.3 1.82,5.41 0.97,2.38 1.91,3.16 3.38,5.26l-8.16 -2.31c-0.41,-0.26 -1.03,-0.77 -1.33,-0.95l-2.87 -1.38c-3.49,-1.78 -2.53,-2.02 -4.56,-4.4 -3.68,-4.33 -3.21,-3 -5.6,-9.17 -0.41,-1.05 -0.22,0.09 -0.67,-1.63z"/>
     <path class="fil16" d="M883.01 857.27l1.2 -4.77c7.4,-2.09 10,2.37 12.66,2.16 2.73,-0.22 1.33,-0.86 2.77,-2.31 4.87,9.68 1.43,11.75 3.99,17.47 1.43,3.18 0.52,3.3 -2.2,1.22l-0.88 -0.79c-1.64,-1.61 -4.49,-6.57 -8.22,-7.86 -3.58,-1.24 -2.97,1.87 -8.42,-4.1 -0.34,-0.37 -0.46,-0.46 -0.9,-1z"/>
     <path class="fil16" d="M832.54 890.83l0.26 -2.52c-0.24,-2.4 -1.9,-5.32 -2.64,-8.3 4.25,1.07 3.66,-1.74 6.96,-3.75 -0.39,1.71 -1.42,3.92 -2.2,5.82 1.97,-0.36 0.98,-0.32 2.16,0.1l1.78 -3.1c-0.14,-0.1 -0.08,1.19 -0.79,-1.18l0.95 -3.06c0.11,-0.02 0.34,-0.09 0.47,-0.1 0.12,-0.01 0.31,-0.03 0.44,-0.03 2.16,-0 -0.8,0.28 1.77,0.49 1.34,-2.27 3.73,-4.3 6.38,-5.75l-0.38 7.12c0.02,1.46 0.39,2.38 -0.87,3.73l-6.13 5.88c-3.44,3.39 -2.63,1.42 -6.48,3.44l-0.32 1.78c-0.36,-1.09 0.41,-0.66 -1.37,-0.6z"/>
     <path class="fil15" d="M881.79 843.84c-2.11,2.23 -3.03,0.01 -3.52,4.76l3.53 -2.14c-0.79,0.04 0.27,-0.16 -0.66,0.38l-6.04 8.17c-3.08,0.35 -3.38,-0.45 -6.53,1.43 -0.73,-3.23 -5.33,-9.59 -0.38,-13.76 5.81,-4.9 11.7,0.88 13.6,1.17z"/>
     <path class="fil17" d="M958.57 834.98c-0.75,-3.4 -1.83,-6.54 -3.68,-8.97 1,-0.38 5.72,0.65 8.56,0.01 4.47,-1.01 5.24,-2.99 8.27,-3.94 1.1,3.5 1.62,2.96 0.63,6.36 -0.67,2.29 -1.39,3.46 -2.46,4.9 -1.68,2.28 -2.2,2.56 -5.05,2.07 -2.12,-0.37 -1,-0.42 -3.34,-0.4 -1.71,0.02 -1.48,0.1 -2.93,-0.02z"/>
     <path class="fil16" d="M794.91 890.86l0.56 -1.72c0.04,-0.12 0.08,-0.28 0.12,-0.41 2.82,-9.98 3.5,-9.05 10.44,-10.58 2.89,7.95 0.52,7.83 -2.03,11.54l-0.65 -0.89c-0.06,-0.09 -0.15,-0.25 -0.21,-0.34 -0.52,-0.83 -0.15,-0.58 -0.88,-1.48 -1.69,2.52 -0.21,1.49 -0.67,4.71 -4.04,1.13 -3.66,1.14 -6.67,-0.82z"/>
    </g>
    <circle class="fil18" transform="matrix(0.23513 -0.0516072 -0.0516072 -0.23513 924.111 852.147)" r="14.06"/>
    <circle class="fil18" transform="matrix(0.23513 -0.0516072 -0.0516072 -0.23513 905.22 846.758)" r="14.06"/>
    <circle class="fil18" transform="matrix(0.150707 -0.0330777 -0.0330777 -0.150707 871.482 870.108)" r="14.06"/>
    <circle class="fil18" transform="matrix(0.150707 -0.0330777 -0.0330777 -0.150707 852.696 854.414)" r="14.06"/>
    <circle class="fil18" transform="matrix(0.150707 -0.0330777 -0.0330777 -0.150707 960.023 833.369)" r="14.06"/>
    <circle class="fil18" transform="matrix(0.150707 -0.0330777 -0.0330777 -0.150707 928.961 870.36)" r="14.06"/>
    <circle class="fil18" transform="matrix(0.150707 -0.0330777 -0.0330777 -0.150707 839.011 878.512)" r="14.06"/>
    <circle class="fil18" transform="matrix(0.127027 -0.0278803 -0.0278803 -0.127027 818.682 860.392)" r="14.06"/>
    <circle class="fil18" transform="matrix(0.127027 -0.0278803 -0.0278803 -0.127027 814.287 854.588)" r="14.06"/>
    <circle class="fil18" transform="matrix(0.0635134 -0.0139401 -0.0139401 -0.0635134 793.703 858.599)" r="14.06"/>
    <circle class="fil18" transform="matrix(0.0635134 -0.0139401 -0.0139401 -0.0635134 788.866 873.314)" r="14.06"/>
    <circle class="fil18" transform="matrix(0.0635134 -0.0139401 -0.0139401 -0.0635134 840.356 865.969)" r="14.06"/>
    <circle class="fil18" transform="matrix(0.0635134 -0.0139401 -0.0139401 -0.0635134 815.347 883.926)" r="14.06"/>
    <circle class="fil18" transform="matrix(0.0635134 -0.0139401 -0.0139401 -0.0635134 866.585 844.656)" r="14.06"/>
    <circle class="fil18" transform="matrix(0.0635134 -0.0139401 -0.0139401 -0.0635134 894.247 871.109)" r="14.06"/>
    <circle class="fil18" transform="matrix(0.0635134 -0.0139401 -0.0139401 -0.0635134 934.164 841.22)" r="14.06"/>
    <circle class="fil18" transform="matrix(0.0635134 -0.0139401 -0.0139401 -0.0635134 915.486 873.704)" r="14.06"/>
    <circle class="fil18" transform="matrix(0.0635134 -0.0139401 -0.0139401 -0.0635134 964.625 842.601)" r="14.06"/>
    <circle class="fil18" transform="matrix(0.0635134 -0.0139401 -0.0139401 -0.0635134 900.925 864.326)" r="14.06"/>
    <circle class="fil18" transform="matrix(0.0635135 -0.0139401 -0.0139401 -0.0635134 847.141 887.882)" r="14.06"/>
    <circle class="fil18" transform="matrix(0.0635135 -0.0139401 -0.0139401 -0.0635134 947.549 849.286)" r="14.06"/>
    <circle class="fil18" transform="matrix(0.0635135 -0.0139401 -0.0139401 -0.0635134 842.07 847.78)" r="14.06"/>
   </g>
  </g>
  <rect class="fil19" width="1562.5" height="1562.5"/>
 </g>
</svg>
