<?xml version="1.0" encoding="UTF-8"?>
<!DOCTYPE svg PUBLIC "-//W3C//DTD SVG 1.1//EN" "http://www.w3.org/Graphics/SVG/1.1/DTD/svg11.dtd">
<!-- Creator: CorelDRAW 2021 (64-Bit Evaluation Version) -->
<svg xmlns="http://www.w3.org/2000/svg" xml:space="preserve" width="50mm" height="50mm" version="1.1" style="shape-rendering:geometricPrecision; text-rendering:geometricPrecision; image-rendering:optimizeQuality; fill-rule:evenodd; clip-rule:evenodd"
viewBox="0 0 1562.5 1562.5"
 xmlns:xlink="http://www.w3.org/1999/xlink"
 xmlns:xodm="http://www.corel.com/coreldraw/odm/2003">
 <defs>
  <style type="text/css">
   <![CDATA[
    .str2 {stroke:#332C2B;stroke-width:7.81;stroke-miterlimit:22.9256}
    .str3 {stroke:#332C2B;stroke-width:6.25;stroke-miterlimit:22.9256}
    .str0 {stroke:#332C2B;stroke-width:6.25;stroke-miterlimit:22.9256}
    .str1 {stroke:black;stroke-width:6.25;stroke-miterlimit:22.9256}
    .fil0 {fill:none}
    .fil21 {fill:#FEFEFE}
    .fil19 {fill:#332C2B}
    .fil23 {fill:#F4B3B3}
    .fil15 {fill:#D5EBE5}
    .fil18 {fill:#A79CCB}
    .fil20 {fill:#5E5872}
    .fil22 {fill:#020201}
    .fil1 {fill:#040304}
    .fil17 {fill:#532485}
    .fil14 {fill:#6E4896}
    .fil13 {fill:#76A7C2}
    .fil16 {fill:#8B40D1}
    .fil9 {fill:#A57CCB}
    .fil12 {fill:#A57CCB}
    .fil7 {fill:#DDF2F2}
    .fil5 {fill:#DEBCFE}
    .fil2 {fill:#F1E8F9}
    .fil3 {fill:#FAF7FE}
    .fil8 {fill:url(#id0)}
    .fil11 {fill:url(#id1)}
    .fil4 {fill:url(#id2)}
    .fil6 {fill:url(#id3)}
    .fil10 {fill:url(#id4)}
   ]]>
  </style>
  <linearGradient id="id0" gradientUnits="userSpaceOnUse" x1="873.69" y1="1292.77" x2="756.71" y2="1411.9">
   <stop offset="0" style="stop-opacity:1; stop-color:#BAE0D6"/>
   <stop offset="1" style="stop-opacity:1; stop-color:#FEFEFE"/>
  </linearGradient>
  <linearGradient id="id1" gradientUnits="userSpaceOnUse" xlink:href="#id0" x1="877.99" y1="1227.3" x2="745.97" y2="1338.92">
  </linearGradient>
  <linearGradient id="id2" gradientUnits="userSpaceOnUse" x1="946.67" y1="1004.07" x2="633.28" y2="1536.4">
   <stop offset="0" style="stop-opacity:1; stop-color:#DEBCFE"/>
   <stop offset="0.529412" style="stop-opacity:1; stop-color:#00789C"/>
   <stop offset="1" style="stop-opacity:1; stop-color:#ECF6F3"/>
  </linearGradient>
  <linearGradient id="id3" gradientUnits="userSpaceOnUse" x1="1102.29" y1="1048.6" x2="1310.5" y2="1175.24">
   <stop offset="0" style="stop-opacity:1; stop-color:#C5D9DA"/>
   <stop offset="1" style="stop-opacity:1; stop-color:#00789C"/>
  </linearGradient>
  <linearGradient id="id4" gradientUnits="userSpaceOnUse" xlink:href="#id0" x1="836.13" y1="1203.69" x2="573.18" y2="1112.46">
  </linearGradient>
 </defs>
 <g id="圖層_x0020_1">
  <metadata id="CorelCorpID_0Corel-Layer"/>
  <rect class="fil0" width="1562.5" height="1562.5"/>
  <g id="_2082201554864">
   <path class="fil1" d="M392.79 170.23c5.29,-10.27 11.39,-10.71 15.53,-9.77 7.47,1.72 10.65,13.45 6.13,18.86 -3.61,4.31 4.36,1.35 6.8,-3.98 0,-0 26.55,87.05 106.07,114.33 -48.67,0.25 -161.21,12.09 -187.5,53.44 -18.76,29.48 3.06,5.64 19.95,18.01 19.03,15.64 18.38,44.03 27.78,64.51 22.43,-6.8 43.7,23.01 55.18,42.68 23.2,-0.24 31.25,14.12 48.58,32.68 11.92,-10.19 23.13,-10.14 35.88,-21.07 -3.39,65.34 66.02,117.59 86.37,126.75 7.78,32.97 -19.08,65.77 -20.68,90.32 -27.72,-9.19 -49.83,-24.79 -75.77,-3.01 -18.34,18.65 -25.15,48.93 -34.34,65.68 -9.24,13.9 -21.59,17.97 -22.39,33.1 -1.96,36.96 55.74,11.87 68.54,-19.54 3.1,-10.4 -0.88,-18.51 2.99,-25.9 9.83,-2.18 45.95,12.44 71.82,12.33 41.28,63.44 57.08,63.85 102.56,77.4 0.97,54.63 -38.81,47.77 -58.93,68.4 -6.17,6.32 -9.78,17.46 -7.64,29.76 2.45,14.11 3.72,17.9 18.59,19.95 10.65,1.47 64.62,1.31 75.16,-0.24 31.04,-4.57 36.71,-4.13 37.47,-37.88 0.32,-14.35 8.98,-50.55 16.07,-60.82 8.63,1.85 15.58,4.58 25.49,6.07 9.2,1.38 17.94,3.34 26.88,4.81 21.71,3.57 40.09,1.1 61.27,3.2 1.8,3.6 6.74,27.79 7.22,33.22 1.48,16.95 -4.08,19.03 -14.52,25.87 -58.79,38.5 -42.61,53.76 20.76,50.27 16.84,-0.93 43.47,-0.64 57.68,-6.93 21.16,-9.37 -7.67,-36.53 1.95,-76.21 2.37,-9.76 6.82,-17.02 9.05,-28.06 16.08,1.62 40.36,3.9 72.92,54.06 104.19,160.53 -110.81,331.68 -197.17,271.76 -7.54,-5.23 -30.76,-31.88 -52.63,-45.77 -55.51,-57.23 -173.98,-62.32 -201.83,-26.97 5.8,8.24 66.12,47.08 84.39,65.11 10.07,9.94 53.62,67.93 60.67,80.94 21.96,40.47 39.3,127.09 28.73,177.38 -8.41,40.03 -46.96,72.53 3.65,41.96 10.01,-6.04 50.71,-34.68 57.82,-41.82 33.66,-33.79 83.01,-175.54 110.61,-177.22 15.12,1.46 74.86,35.05 81.62,27.26 4.4,-5.08 12.87,-22.13 27.81,-35.51 9.71,-8.69 34.48,-15.8 48.33,-9.67 11.7,5.18 16.77,12.14 17.03,-6.67 0.07,-4.87 0.18,-9.78 0.39,-14.64 0.99,-23.1 14.82,-43.6 28.26,-59.63 14.16,-16.89 44.7,-49.56 66.94,-54.37 -10.56,-16.53 -32.05,-22.04 -20.83,-52.95 18.87,-71.11 37.53,-31.49 27.7,-55.95 -8.86,-26.22 -18.66,-85.87 -18.88,-113.6 -0.11,-14.59 -1.98,-40.22 -2.05,-44.78 -0.22,-16.42 -25.38,61.34 -85.4,-19.48 -57.37,-84.25 -85.97,-83.27 -176.08,-123.02 -40.86,-15.55 -50.83,-58.03 -62.65,-94.51 106.16,-37.08 98.99,-119.03 101.92,-131.6 0.66,-2.83 20.03,16.69 28.79,64.06 6.79,-9.31 6.99,-14.68 15.21,-20.7 15.13,-9.02 19.2,-5.72 47.75,0.78 2.67,-14.91 7.87,-28.68 16.76,-38.89 16.58,-17.43 37.4,-11.67 50.02,-14.8 1.51,-9.29 -8.89,-11.89 -11.8,-26.15 -1.2,-22.54 -1.12,-67.17 43.27,-88.57 -34.81,-39.93 -119.4,-76.73 -180.92,-59.54 0.62,-3.57 0.16,-11.65 -2.08,-16.66 0.03,-1.98 55.77,-17.54 110.36,-61.68 4.62,-4.94 7,-7.09 9.92,-12.76 -30.61,-4.84 10.58,-61.11 17.5,-25.9 19.48,-12.83 42.36,-56.35 47.94,-72.55 11.71,-34.01 25.45,-36.72 -32.22,-35.12 -67.17,5.93 -112.82,28.56 -157.34,65.85 -19.25,16.13 -34.31,35.97 -45.8,58.12 -92.95,-78.73 -244.37,-80.64 -341.8,-2.76 -12.81,-74.53 -72.69,-91.37 -152.12,-104.23 -36.79,-6.28 -46.49,-14.4 -56.86,-22.83 -7.67,-6.23 -11.98,21.17 -5.56,74.08 0.76,3.39 5.23,30.52 7.73,31.73z"/>
   <path class="fil2" d="M534.52 343.24c2.1,31.26 14.89,33.46 5.12,78.6 -10.09,56.1 -15.23,86.5 23.7,135.36 6.91,8.67 12.67,15.74 21.31,22.83 96.48,79.19 339.69,58.98 385.34,-51.89 17.01,-41.32 -1.45,-77.19 6.2,-115.2 6.78,-33.38 15.55,-60 15.04,-94.72 -0.38,-26.02 -22.95,-43.38 -44.9,-51.32 -38.07,-12.64 -57.22,2.67 -96.64,-19.95 -27.26,-15.64 -53.32,-40.4 -52.16,-37.09 1.21,3.46 8.21,20.67 7.78,57.41 0.08,46.68 -76.97,38.12 -19.09,-58.89 -18.16,-0.34 -31.63,4.61 -49.33,18.26 -22.77,25.15 -44.22,28.5 -78.97,20.25 -58.8,-13.96 -127.22,39.61 -123.41,96.34z"/>
   <path class="fil3" d="M613.42 598.68c266.68,112 545.21,-132.97 202.41,-202.36 -228.27,-48.06 -344.66,128.08 -202.41,202.36z"/>
   <path class="fil4" d="M602.25 674.05c0.64,7.61 9.98,24.04 15.88,30.16 12.53,12.98 36.07,29.33 50.81,38.76 5.47,3.49 23.39,12.68 26.3,16.27 1.38,-6.81 0.8,-2.32 2.2,-4.13 1.41,-8.43 2.91,-21.82 7.99,-27.43 0.63,0.74 1.6,-0.09 1.14,5.37 -0.15,1.83 -0.75,4.99 -0.96,7.31 -4.45,49.2 11.88,72.18 5.21,115.64 -5.48,50.16 -58.12,38.06 -63.19,64.23l3.49 6.52c0.3,-0.17 1.32,-0.79 1.65,-0.91 4.08,-1.44 2.42,1.13 12.25,0.69 -3.02,-5.07 -6.21,-4.83 -6.12,-10.62 11.71,-1.11 19.51,0.94 29.17,4.1 7.4,2.42 6.39,-2.32 6.55,-2.94 -0.3,-0.13 -0.72,-0.17 -0.96,-0.22l-2.98 -0.57c-1.62,-0.29 -1.95,-0.24 -3.99,-0.73 -5.8,-1.39 -17.66,-3.43 -20.08,-5.27 1.46,-2.06 -0.33,-0.56 2.53,-2.41l10.21 -3.47c4.77,-1.46 9.38,-2.89 14.57,-2.12 0.42,4.35 -0.63,9.72 1.68,13.33 0.63,-3.3 1.35,-7.13 2,-10.98 0.84,-4.92 0.65,-6.27 4.43,-7.88 2.75,1.44 2.67,1.95 4.36,5.88 4.02,9.35 0.99,9.91 -3.71,14.59 4.58,-2.38 2.83,-1.72 8.47,-1.13 0.96,-4.1 0.83,-8.4 13.54,-8.46 6.06,-0.03 3.39,1.72 9.31,-0.27 5.7,-1.92 28.33,-15.12 32.81,-18.84 1.37,-18.69 11.35,-36.41 22.16,-51 3.79,-5.12 7.78,-7.45 11.35,-11.31 48.19,-52.17 27.11,-90.87 34.25,-103.56 4.6,4.78 5.15,33.16 3.66,42.01 -0.86,5.12 -2.96,13.73 -4.23,19.21 -1.35,5.8 -5.57,13.16 -5.72,17.76 6.87,4.66 50.04,16.68 60.65,18.49l1.66 -3.57c1.38,-3.11 -0.63,0.24 1.01,-2.33 -0.22,-6.86 -0.24,-15.7 6.22,-16.88 3.12,18.76 -3.51,7.68 6.28,47.86 3.69,15.14 7.34,29.36 10.96,44.77 7.05,30.05 1.6,38.32 -24.91,53.28 -11.57,6.53 -9.01,11.28 -13.79,13.61 1.19,1.82 -2.85,4.94 3.22,1.03 2.69,-1.74 -0.3,-3.53 5.95,-8.07 8.08,2.15 0.74,5.88 10.84,7.56 -2.86,-7.13 -5.19,-4.21 -7.05,-10.83 1.66,-2.13 0.07,-0.47 2.13,-1.99 3.36,-2.48 9.29,-4.62 13.76,-5.21 0.45,6.01 -1.88,10.77 -3.23,16.86 4.89,-2.39 0.09,0.25 2.52,-1.7l3.69 -3.67c5.17,1.57 1.27,1.85 6.74,2.68 -2.76,-4.57 -3.36,-2.41 -3.4,-9.48 4.82,-1.6 16.12,-4.38 21.62,-4.36 -0.39,3.87 -2.36,5.64 -1.18,8.22 2.23,-2.35 2.55,-4.73 5.49,-4.66l3.52 1.47c0.65,-4.14 2.95,-11.06 5.72,-14.1 5.39,0.37 1.71,-0.55 5.19,2.78 4.06,3.89 -0.53,1.29 4.5,3.49 -1.2,-4.93 -12.18,-12.17 3.9,-16.64l1.32 1.42c3.45,3.35 0.68,6.29 2.47,1.11 0.02,-11.39 -1.16,-20.92 1.54,-32.11 6.51,-26.94 10.26,-7 10.9,-59.63 0.1,-8.21 -2.95,-28.12 0.76,-32.69 9.06,5.88 7.41,51.1 6.75,63.78 6.08,-1.92 22.99,3.03 29.69,6.08 19.37,8.8 46.53,39.34 56.75,58.77 7.13,13.57 18.01,39.82 20.05,56.86 20.14,142.94 -149.45,273.48 -241.81,211.33 -24.26,-25.93 -72.79,-63.24 -104.62,-76.49 -71.21,-23.85 -110.72,-5.39 -133.03,2.9 9.42,6.62 54.42,36.58 68.15,46.7 30.41,22.41 65.6,64.88 81.34,99.24 5.92,12.93 12.52,25.72 16.13,41.39 9.95,65.3 25.8,118.55 -12.03,179.53 3.76,-0.85 16.63,-9.68 19.72,-12.16 59.78,-48.03 61.28,-41.2 95.57,-113.98 64.62,-164.05 132.21,-142.59 200.34,-212.03 78.65,-88.38 88.88,-171.75 48.3,-288.26 -19.03,-48.01 -49.17,-79.05 -90.42,-107.69 -79.46,-49.18 -138.67,-30.73 -161.78,-139.7 -45.06,14.23 -88.67,18.38 -126.14,18.55 -74.41,-2.31 -89.12,-8.57 -132.4,-24.41 0.1,24.17 -3.18,41.33 -15.59,65.34z"/>
   <path class="fil5" d="M557.37 271.99c90.23,-71.85 121.63,1.62 167.24,-41.36 69.84,-65.82 88.29,-13.15 126.88,11.11 33.86,21.28 97.27,-2.92 134.26,44.06 -1.45,-17.67 -24.19,-53 -35.19,-66.89 -91.19,-120.45 -336.79,-109.13 -393.19,53.09z"/>
   <path class="fil6" d="M944.13 1263.89c16.5,-8.42 35.38,13.41 84.33,24.56 3.59,-14.3 22.83,-36.18 33.42,-42.11 5.07,-2.84 19.24,-6.48 24.86,-7.6 14.9,-2.96 17.82,1.33 28.83,3.97 0.89,-22.73 -0.08,-29.07 9.25,-47.91 7.99,-16.13 37.87,-52.8 51.18,-62.03 43.29,-33.58 35.1,-8.62 19,-38.01 -9.22,-15.81 1.93,-45.71 9.05,-60.98 6.21,-13.31 9.31,-17.39 16.08,-22.7 -12.34,-59.27 -20.63,-91.83 -17.22,-155.3 -27.85,29.61 -69.28,-0.31 -69.09,0.43 26.84,104.04 37.38,131.58 5.88,209.08 -33.51,82.42 -82.85,116.92 -133.56,146.66 -35.5,20.83 -49.88,30.11 -62,51.96z"/>
   <path class="fil7" d="M1015.18 533.88c16.29,-28.78 34.26,-20.23 58.4,-15.69 15.02,-37.84 14.33,-49.96 65.75,-51.22 -1.99,-6.59 -11.45,-9.96 -11.34,-31.27 0.04,-7.53 0.88,-18.23 -1.43,-23.34 -2.53,-5.62 -12.19,-16.57 -15.89,-21.68 -26.06,-26.64 -36.46,-35.12 -64.46,-57.87 -13.77,-8.74 -44.81,-28.14 -50.79,-29.61 1.96,19.34 -1.85,65.87 -7.21,83.49 -6.3,20.69 -14.97,67.58 -3.92,81.38 8.78,10.96 14.78,23.73 21.66,37.31 5.18,13.31 4.8,15.37 9.23,28.49z"/>
   <path class="fil7" d="M391.94 422.25c21.46,-1.42 40.34,24.16 51.39,42.74 28.43,-0.6 33.74,20.07 47.51,30.43 48.62,-16.24 34.96,-31.26 43.95,-74.33 5.51,-27.8 3.29,-40.75 -5.64,-74.27 -3.44,-12.92 9.22,-37.69 3.32,-35.21 -50.68,21.3 -126.34,53.33 -140.54,110.66z"/>
   <path class="fil7" d="M538.53 289.2c5.34,-7.63 20.76,-31.14 18.67,-36.9 -18.51,-32.98 -67.34,-82.75 -97.25,-105.76 -6.14,-4.17 -29.57,-22.17 -35.45,-22.34 -13.84,17.16 4.62,61.72 11.77,77.77 14.49,32.51 68.57,89 102.26,87.23z"/>
   <path class="fil5" d="M941.86 200.32c3.48,4.24 23.74,26.55 29.56,38.98 28.73,-52.64 101.11,-114.17 187.41,-128.69 -0.69,14.23 -6.08,30.77 -10.44,41.13 4.79,-4.12 33.74,-61.33 34.41,-76.99 -84.99,-10.39 -205.72,45.24 -240.94,125.57z"/>
   <path class="fil5" d="M392.46 163.78c6.43,-6.56 14.67,-9.99 25.64,-2.42 -1.8,-11.7 -4.2,-21.27 4.44,-40.62 67.03,-1.74 122.14,36.95 164.96,84.11 2.01,-1.31 9.06,-7.88 9.45,-10.69 -12.13,-47.95 -24.58,-64.95 -73.68,-86.72 -40.06,-17.77 -102.95,-13.65 -135.38,-39.19 -7.9,8.86 -3.42,73.25 4.56,95.53z"/>
   <path class="fil8" d="M787.95 1326.09c14.21,66.39 15.98,81.92 -2.09,136.89 34.38,-16.08 124.62,-131.15 90.46,-213.01 -35.11,26.2 -47.66,66.09 -88.38,76.12z"/>
   <path class="fil9" d="M697.34 756.19c-42.71,-14.2 -85.29,-58.91 -95.1,-82.14 -5.7,18.88 -7.92,45.97 -4.96,59.02 9.89,43.57 65.45,90.82 107.26,98.01 -0.91,-26.39 -10.15,-44.14 -7.21,-74.88z"/>
   <path class="fil5" d="M337.28 354.04c39.59,-4.54 39.29,35.57 50.89,66.14 27.21,-64.66 88.92,-87.51 146.2,-112.35 0.56,-2.85 2.33,-11.44 0.05,-12.38 -10.78,-4.48 -74.06,0.4 -123.95,14.04 -39.5,10.8 -68.1,27.89 -73.18,44.55z"/>
   <path class="fil10" d="M633.74 1124.17c52.82,15.4 71.41,58.33 114.81,81.4 27.5,14.62 70.35,11.62 117.73,17.3 1.16,-9.05 -31.15,-36.82 -39.26,-42.12 -27.8,-18.19 -52.9,-36.81 -83.29,-50.94 -21.74,-8.34 -64.31,-23.66 -109.98,-5.63z"/>
   <path class="fil11" d="M785.03 1320.49c19.94,-2.94 71.58,-63.31 88.57,-76.22 -0.23,-2.45 -4.25,-12.17 -9.15,-12.91 -29.71,-4.47 -108.65,-9.92 -125.58,-21.38 11.96,25.55 44.34,70.73 46.16,110.5z"/>
   <path class="fil5" d="M1030.81 318.67c48.61,30.81 70.93,51.83 98,90.08 6.37,-22.37 9.06,-41.24 38.8,-56.97 -49.48,-48.89 -134.68,-64.58 -170.29,-53.81 -4.91,1.48 10.04,6.19 33.5,20.69z"/>
   <path class="fil12" d="M462.32 799.18c0.44,5.57 6.19,8.9 12.79,8.7 16.12,-0.5 40.1,-15.35 47.27,-26.16 15.35,-23.43 -7.98,-44.28 26.1,-35.03 11.28,3.71 41.42,10.56 53.99,10.38 -5.41,-9.76 -7.27,-20.43 -8.88,-32.47 -1.64,-29.42 4.76,-21.02 -32.22,-35.94 -19.14,-7.72 -38.69,1.01 -51.56,17.73 -9.15,15.64 -12.93,28.06 -19.4,42.09 -10.75,28.01 -30.89,29.54 -28.08,50.7z"/>
   <path class="fil13 str0" d="M397.51 418.38c20.87,5.58 37.11,26.3 46.43,41.45 11.4,-26.21 83.49,-139.75 83.42,-140.54 -25.59,5.13 -73.45,32.57 -101.91,57.6 -6.5,5.71 -27.99,29.94 -27.93,41.49z"/>
   <path class="fil13" d="M560.3 249.46c6.06,-14.21 9.9,-20.88 15.95,-29.19 3.38,-4.66 11.45,-10.86 9.04,-13.97 -34.45,-44.47 -106.23,-86.39 -154.25,-82.29 34.27,20.33 113.75,87.49 129.26,125.46z"/>
   <path class="fil7" d="M974.92 250.3c0.33,0.7 14.19,23.04 15.34,24.35 28.5,-11.98 93.84,-44.27 115.69,-67.21 -19.3,-11.65 -6.54,-28.91 -4.12,-35.91 -15.82,-0.57 -50.09,24.04 -62.78,32.57 -15.74,10.58 -56.46,33.38 -64.14,46.2z"/>
   <path class="fil13" d="M974.53 243.82c14.26,-12.33 19.55,-13.59 38.31,-26.29 20.77,-13.98 54.35,-39.44 74.74,-47.65 9.43,-3.8 15.06,-1.39 23.45,-6.67 8.85,-5.64 18.88,0.1 21.77,8.1 0.73,-0.81 16.15,-15.6 22.24,-55.25 -27.66,-1.68 -87.17,31.65 -107.44,46.58 -9.03,6.65 -72.52,69.65 -73.07,81.18z"/>
   <path class="fil14" d="M647.99 918.73c-3.85,11.65 -3.54,23.58 3.33,26.8 7.34,4.91 100.76,1.63 107.63,-4.36 8.97,-7.82 6.21,-37.87 7.86,-52.68 -4.48,3.72 -27.11,16.92 -32.81,18.84 -5.92,1.99 -3.25,0.24 -9.31,0.27 -12.71,0.07 -12.58,4.36 -13.54,8.46 -5.64,-0.58 -3.9,-1.25 -8.47,1.13 4.71,-4.67 7.73,-5.24 3.71,-14.59 -1.69,-3.94 -1.61,-4.44 -4.36,-5.88 -3.79,1.61 -3.6,2.96 -4.43,7.88 -0.65,3.85 -1.37,7.68 -2,10.98 -2.31,-3.62 -1.26,-8.98 -1.68,-13.33 -5.18,-0.77 -9.8,0.67 -14.57,2.12l-10.21 3.47c-2.87,1.85 -1.08,0.35 -2.53,2.41 2.42,1.85 14.29,3.88 20.08,5.27 2.03,0.49 2.37,0.44 3.99,0.73l2.98 0.57c0.24,0.05 0.66,0.09 0.96,0.22 -0.16,0.62 0.85,5.36 -6.55,2.94 -9.66,-3.16 -17.46,-5.2 -29.17,-4.1 -0.08,5.79 3.11,5.55 6.12,10.62 -9.83,0.44 -8.17,-2.13 -12.25,-0.69 -0.33,0.12 -1.36,0.74 -1.65,0.91l-3.14 -8.01z"/>
   <path class="fil9" d="M891.6 814.18c-1.64,2.57 0.38,-0.78 -1.01,2.33l-1.66 3.57c-10.61,-1.81 -53.78,-13.83 -60.65,-18.49 -3.01,2.27 -2.46,2.23 -4.5,6.16 -8.69,16.68 -28,30.88 -32.98,41.35 3.19,2.18 42.43,7.32 50.14,8.5 18.19,2.79 37.81,1.5 56.85,1.2 0.43,-4.26 -3.1,-16.17 -4.17,-21.19 -2.07,-9.73 -1.73,-13.05 -2.03,-23.42z"/>
   <path class="fil13 str0" d="M1122.43 449.97c-8.33,-45.12 23.16,-17.12 -40.61,-76.8 -10.19,-11.3 -66.87,-63.45 -75.12,-54.1 -5.67,6.43 15.31,39.89 26.7,56.66 8.62,12.68 72.86,74.24 89.03,74.24z"/>
   <path class="fil13 str0" d="M1075.18 506.82c5.03,-19.73 10.1,-40.63 42.86,-41.9 -16.13,-16.46 -49.69,-35.34 -71.93,-60.63 -3.38,-3.85 -17.84,-21.34 -20.97,-22.64 -2.74,42.14 25.17,91.91 50.04,125.17z"/>
   <path class="fil13 str0" d="M452.15 459.98c12.69,2.52 27.1,16.89 36.98,28.64 7.42,8.83 35.64,-17.22 41.06,-71.62 2.8,-28.06 -6.18,-57.42 -6.22,-80.15 -7.52,5.74 -65.22,105.6 -71.82,123.13z"/>
   <path class="fil1" d="M756.38 497.71c-20.63,2.81 -24.79,3.96 -14.38,22.45 5.83,10.35 10.36,24.27 26.68,15.79 9.58,-4.98 21.93,-18.6 22.02,-25.68 0.14,-10.84 -22.98,-14.1 -34.33,-12.56z"/>
   <path class="fil14" d="M870.4 958.42c-34.95,22.92 62.68,14.06 76.4,11.93 36.35,-4.01 23.78,-6.2 19.97,-38.09 -0.42,-3.48 -0.51,-6.7 -2.69,-9.53 -1.8,5.18 0.98,2.23 -2.47,-1.11l-1.32 -1.42c-16.08,4.47 -5.1,11.7 -3.9,16.64 -5.03,-2.19 -0.44,0.41 -4.5,-3.49 -3.47,-3.33 0.2,-2.41 -5.19,-2.78 -2.77,3.05 -5.07,9.97 -5.72,14.1l-3.52 -1.47c-2.94,-0.07 -3.26,2.31 -5.49,4.66 -1.19,-2.58 0.78,-4.35 1.18,-8.22 -5.51,-0.03 -16.81,2.75 -21.62,4.36 0.03,7.07 0.63,4.91 3.4,9.48 -5.47,-0.83 -1.57,-1.12 -6.74,-2.68l-3.69 3.67c-2.42,1.95 2.38,-0.68 -2.52,1.7 1.35,-6.09 3.68,-10.85 3.23,-16.86 -4.47,0.59 -10.4,2.73 -13.76,5.21 -2.06,1.52 -0.47,-0.14 -2.13,1.99 1.86,6.62 4.19,3.7 7.05,10.83 -10.11,-1.68 -2.77,-5.41 -10.84,-7.56 -6.25,4.54 -3.26,6.33 -5.95,8.07 -8.36,5.39 3.44,-2.81 -9.19,0.57z"/>
   <path class="fil15 str1" d="M955.04 1257.38c20.35,4.58 54.59,23.91 68.85,25.75 0,-23.72 7.11,-42.7 15.58,-78.8 -11.96,4.56 -43.64,23.19 -46.78,25.03 -6.39,3.75 -37.2,26.19 -37.65,28.02z"/>
   <path class="fil15 str0" d="M1041.06 1248.77c24.17,-16.6 37.36,-18.26 62.88,-18.12 -3.72,-20.57 -0.71,-51.5 -1.81,-75.4 -15.91,12.25 -62.17,69.96 -61.07,93.52z"/>
   <path class="fil16" d="M790.31 218.3c-61.75,87.42 39.99,104.39 0,0z"/>
   <path class="fil2" d="M930.55 354.14c1.96,3.76 10.84,8.77 14.92,17.1 4.13,8.42 4.27,17.01 5.77,26.17 4.64,-6.96 6.49,-16.88 9.66,-25.71 2.79,-7.78 9.1,-17.98 9.76,-25.53 -10.99,-0.28 -32.31,2.99 -40.12,7.97z"/>
   <path class="fil17 str2" d="M689.89 339.21c-1.78,7.39 12.18,23.99 17.63,26.21 4.15,1.69 8.84,2.15 12.85,0.58 11.78,-30.29 -27.28,-27.83 -30.48,-26.79z"/>
   <g>
    <circle class="fil18" cx="632.81" cy="416.51" r="75.15"/>
    <circle class="fil19" cx="632.81" cy="416.51" r="59.88"/>
    <circle class="fil20" cx="632.81" cy="416.51" r="33.1"/>
    <circle class="fil19" cx="643.93" cy="413.46" r="22.26"/>
    <circle class="fil21 str3" cx="655.26" cy="399.17" r="16.13"/>
    <circle class="fil21 str3" cx="625.86" cy="426.45" r="6.65"/>
   </g>
   <g>
    <circle class="fil18" cx="885.27" cy="425.09" r="75.15"/>
    <circle class="fil19" cx="885.27" cy="425.09" r="59.88"/>
    <circle class="fil20" cx="885.27" cy="425.09" r="33.1"/>
    <circle class="fil19" cx="896.39" cy="422.03" r="22.26"/>
    <circle class="fil21 str3" cx="907.72" cy="407.75" r="16.13"/>
    <circle class="fil21 str3" cx="878.31" cy="435.03" r="6.65"/>
   </g>
   <path class="fil17 str2" d="M825.02 344.05c1.78,7.39 -12.18,23.99 -17.63,26.21 -4.15,1.69 -8.84,2.15 -12.85,0.58 -11.78,-30.29 27.27,-27.83 30.48,-26.8z"/>
   <ellipse class="fil21 str3" cx="778.5" cy="508.61" rx="8.59" ry="4.29"/>
   <path class="fil22" d="M755.24 534.11c-13.19,12.01 -31.89,-5.45 -37.54,-4.32 3.42,9.06 11.77,12.68 20.02,14.35 10.56,2.14 15.07,-1.3 22.49,-7.67 6.28,5.43 7.49,10.7 18.17,12.79 5.48,1.08 16.72,-1.32 19.4,-6.07 -8.01,-2.86 -16.24,8.05 -33.13,-8.65 -1.37,-10 -7.55,-8.36 -9.4,-0.43z"/>
   <ellipse class="fil23 str3" cx="559.16" cy="470.9" rx="29.41" ry="10.73"/>
   <ellipse class="fil23 str3" cx="956.27" cy="478.42" rx="29.41" ry="10.73"/>
   <path class="fil15 str0" d="M1100.48 1146.88c41.72,-9.71 62.48,-15.43 98.43,-34.49 -23.04,-22.72 -31.57,-37.28 -46.08,-61.72 0.02,30.11 -42.62,85.94 -52.35,96.21z"/>
   <path class="fil15 str0" d="M1155.49 1041.7c20.25,1.83 48.66,-27.71 59.79,-34.22 -23.04,-22.72 -39.08,-37.28 -53.6,-61.72 4.86,29.04 0.17,77.33 -6.19,95.94z"/>
   <path class="fil15 str0" d="M1158.97 934.1c11.4,-21.52 37.66,-44.35 38.86,-66.68 -20.36,12.16 -37.21,12.09 -51.45,2.95 4.86,29.03 7.41,37.07 12.59,63.74z"/>
   <path class="fil15 str0" d="M1211.61 989.65c-13.29,-38.96 -13.32,-72.52 -12.12,-94.86 -12.85,19.68 -23.25,27.39 -32.13,42.93 12.1,23.13 28.07,39.49 44.25,51.93z"/>
   <path class="fil15 str0" d="M1191.23 1094.82c-8.19,-29.03 0.8,-46.35 10.32,-67.35 -18.48,13.24 -25.3,17.32 -40.62,22.67 12.1,23.13 16.02,30.08 30.3,44.69z"/>
   <path class="fil15 str0" d="M1111.42 1224.48c3.01,-33.48 30.95,-70.17 48.61,-84.99 -22.39,3.95 -35.13,8.44 -52.59,12.82 0.92,26.09 -2.58,52.84 3.99,72.18z"/>
  </g>
 </g>
</svg>
