<?xml version="1.0" encoding="UTF-8"?>
<!DOCTYPE svg PUBLIC "-//W3C//DTD SVG 1.1//EN" "http://www.w3.org/Graphics/SVG/1.1/DTD/svg11.dtd">
<!-- Creator: CorelDRAW 2021 (64-Bit Evaluation Version) -->
<svg xmlns="http://www.w3.org/2000/svg" xml:space="preserve" width="50mm" height="50mm" version="1.1" style="shape-rendering:geometricPrecision; text-rendering:geometricPrecision; image-rendering:optimizeQuality; fill-rule:evenodd; clip-rule:evenodd"
viewBox="0 0 1562.5 1562.5"
 xmlns:xlink="http://www.w3.org/1999/xlink"
 xmlns:xodm="http://www.corel.com/coreldraw/odm/2003">
 <defs>
  <style type="text/css">
   <![CDATA[
    .str0 {stroke:#332C2B;stroke-width:6.25;stroke-miterlimit:22.9256}
    .fil0 {fill:none}
    .fil18 {fill:#332C2B}
    .fil4 {fill:#050502}
    .fil11 {fill:#251D0D}
    .fil15 {fill:#502F05}
    .fil8 {fill:#604819}
    .fil6 {fill:#765811}
    .fil10 {fill:#B99757}
    .fil1 {fill:#C7A770}
    .fil2 {fill:#E9D4A3}
    .fil12 {fill:#ED927E}
    .fil9 {fill:#EEAB97}
    .fil3 {fill:#EECC49}
    .fil13 {fill:#F09D25}
    .fil17 {fill:#F1B33B}
    .fil5 {fill:#F1E7D1}
    .fil14 {fill:#F6C1AE}
    .fil7 {fill:#F92F0B}
    .fil16 {fill:white}
   ]]>
  </style>
 </defs>
 <g id="圖層_x0020_1">
  <metadata id="CorelCorpID_0Corel-Layer"/>
  <rect class="fil0" width="1562.5" height="1562.5"/>
  <g id="_2082645036640">
   <path class="fil1" d="M580.27 1025.62l-25.23 0.62c-6.11,5.13 -20.95,32.74 -23.84,40.8 -4.53,12.65 -9.47,24.85 -5.91,37.14 3.15,10.89 -1.35,0.46 7.08,7.06l27.96 13.67 -1.86 3.04 -14.27 -7.96c-32.51,9.78 -7.58,89.5 1.98,110.75 8.92,0.76 38.19,-4.18 47.47,-6.65 6.36,-1.69 35.45,-14.07 36.89,-15.67 -1.2,-17.16 -20.25,-121.62 -12.28,-127.87 5.81,5.15 13.49,74.75 15.21,87.94 5.62,43.07 16.82,45.65 -18.08,70.1 10.34,9.17 106.96,-6.32 123.9,-13.02 -2.94,-9.84 -8.1,-90.93 1.71,-96.76l2.33 42.67 38.72 -10.54 -11.89 -40.38 1.73 -0.54c17.68,1.68 23.16,92.84 23.58,107.89 15.34,-0.46 102.39,-13.78 103.48,-27.27 -10.49,-27.91 -6.81,-44.74 -11.69,-73.37 -2.27,-13.29 -18.89,-63.25 -17.59,-65.17 13.47,10.55 22.97,53.65 25.98,70.77 2.65,15.06 1.55,29.93 3.68,44.49 3.46,23.6 6.57,17.28 17.58,29.45 15.87,-3.47 47.95,-13.59 56.99,-24.79 6.62,-12.71 15.06,-15.16 18.9,-31.79 12.92,-55.95 -31.96,-81.33 -74.33,-71.32 8.88,-12.34 21.51,-12.44 31.75,-10.08 17.35,4 17.58,9.73 30.82,16.71l4 -80.52c5.6,-12.07 4.67,1.57 7.6,-21.56 1.55,-12.2 -10.47,-8.95 -6.94,-17.79 2.36,-5.92 12.49,-3.46 -1.7,-14.28 -7.39,-5.64 -13.97,-4.28 -14.33,-13.58l14.63 -7.98c-2.01,-10.12 -18.29,-23.05 -26.75,-24.61 -14.68,19.91 -53.7,43.04 -84.44,58.35 -38.18,19.02 -66.96,19.33 -99.99,32.85 -7.78,40.12 9.33,40.01 11.07,44.4 0.08,9.08 -0.96,22.66 -10.72,25.43 -16.54,-9.71 -3.88,-27.49 -6.76,-40.64l-23.62 19.01 8.64 27.03 -1.6 20.58c-11.01,-2.51 -18.38,-9.76 -16.78,-18.56 2.03,-11.19 8.07,1.06 6.16,-28.15l-27.61 -4.24c0.3,11.57 10.47,29.22 -1.84,38.64 -7.68,-1.06 -9.37,-7.45 -10.75,-15.09 -3.99,-22.03 5.36,-0.88 6.71,-19.37 0.28,-3.88 -9.13,-28.23 -11.98,-37.8l-113.75 18z"/>
   <path class="fil2" d="M498.16 956.05c17.6,22.86 34.64,30.95 64.08,32.66 46.9,2.73 130.97,-1.51 175.33,-16.37 54.38,-18.21 81.06,-33.2 129.42,-61.47 47.09,-27.53 82.19,-57.66 70.48,-118.43 2.93,-198.1 -66.26,-199.78 -277.43,-153.53 -18.08,3.96 -34,8.61 -51.06,15.62 -8.16,3.35 -14.28,6.46 -22.11,10.43 -180.32,91.4 -214.05,128.32 -88.72,291.08z"/>
   <path class="fil1" d="M421.41 652.32c11.22,-5.7 36.27,13.18 20.07,22.46 -5.3,3.04 -11.57,2.87 -16.43,8.34 -5.47,6.16 -1.35,11.35 -8.88,16.05 -16.62,10.36 -17.95,-13.77 -13.41,-26.39 7.9,-9.57 6.36,-14.22 18.64,-20.46zm433.52 -90.65c11.03,-5.4 33.71,-1.57 44.28,5.78 19.06,13.26 6.1,30.53 -1.34,32.94 -20.54,6.66 -27.82,-10.88 -39.19,-12.77 -8.65,-1.43 -17.24,3.54 -14.97,-10.1 1.45,-8.68 4.17,-12.4 11.21,-15.85zm-454.53 258.94c-2.85,31.18 71.18,124.99 92.41,150.53l13.93 3.28c-12.6,-19.95 -39.17,-47.7 -50.36,-75.91 -8.32,-0.96 -15.62,-2.83 -22.74,-8.94 -1.24,-16.6 4.9,-14.8 5.58,-25.42 0.64,-9.85 -1,-17.47 0.14,-30.65 1.07,-12.37 -14.93,-30.86 -19.03,-44.78 -24.93,-84.59 61.42,-147.07 121.95,-125.12 34.66,12.57 16.04,10.17 42.33,-4.11 14.59,-7.93 29.86,-14.53 45.81,-19.29 32.86,-9.8 79.86,-18.47 113.48,-12.28 38.8,7.14 16.46,9.65 44.22,-8.51 44.23,-28.95 105.65,-21.46 136.08,23.91 8.98,13.39 15.6,30.61 18.89,46.36 5.48,26.26 -4.44,48.12 -2.97,55.76 12.68,0.27 24.91,-7.04 33.72,9.77 3.15,20.27 -17.09,26.08 -31.11,33.99 7.79,36.31 1.71,37.47 -6.12,69.75 32.14,-13.34 55.03,-46.43 63.2,-67.19 4.83,-8.76 4.53,-21.41 2.71,-35.6 -6.57,0.6 -13.15,1.19 -19.72,1.79 7.04,-2.81 10.04,-9.03 9.82,-18.37 -6.13,0.2 -27.98,-4.59 -36.55,-9.91 -2.14,-10.99 11.81,-92.69 -10.98,-163.17 -2.52,-7.81 -19.79,-39.24 -19.73,-40.61l25.51 5.6c-2.15,-8.55 -6.48,-11.42 -7.31,-16.03 -0.5,-2.76 3.61,-7.28 3.56,-7.38 -5.14,-10.23 -8.27,-1.32 -29.32,2.13 -12.16,-17.39 -11.83,-27.57 -25.24,-44.73 -7.83,-10.03 -24.01,-31.14 -36.66,-32.66 -60.1,20.82 -78.89,92.83 -213.06,123.71 -6.47,11.49 -18.91,41.08 -34.78,38.23l-0.25 -21.02c-42.53,11.51 -80.71,23.44 -124.73,34.07 -22,5.31 -42.12,8.78 -64.24,14.88 -19.75,5.45 -59.8,3.84 -70.95,8.17 -8.42,21.17 9.07,29.73 5.63,50.39l-16.28 2.69 -0.41 18.73 15.13 -8.59c2.28,2.91 25.77,52.76 35.47,65.47 5.39,7.06 18.91,21.31 21.98,27.76 5.37,11.28 4.3,29.12 -9.02,33.3z"/>
   <path class="fil1" d="M1207.79 789.88c-34.88,23.7 -38.14,58.02 -47.5,96.22 -2.29,9.33 -2.7,20.08 -9.35,38.73 -2.71,24.92 -25.23,68.24 -41.01,87.76 -15.22,18.82 -58.39,38.09 -80.93,49.91 -2.56,9.48 -5.74,13.97 -7.26,24.97l-2.36 21.75c0.99,9.44 -1.93,4.66 4.36,5.96 58.4,-50.85 140.03,-68.68 190.8,-112.83 18.24,-15.87 43.39,-80.28 48.07,-104.55 2.81,-14.6 -10.41,-31.73 -3.61,-63.62 6.29,-29.53 23.03,-35.07 26.88,-50.69 7.27,-29.48 3.57,-106.3 -14.16,-132.33 -18.04,-26.49 -50.33,-74.82 -85.23,-44.52 -29.51,25.6 -52.31,66.32 -45.33,106.54 2.21,12.71 19.6,37.78 28.21,48.08 17.68,21.14 46.98,19.06 50.54,26.53l-12.11 2.08z"/>
   <path class="fil3" d="M593.16 399.43c-12.94,-3.78 -27.18,-19.24 -33.74,-30.64 -10.88,-18.91 -9.76,-33.88 -15.52,-50.53 -73.85,24.13 -49.96,129.01 -33.02,118.49 -7.85,10.93 -44.07,-9.62 -54.71,-28.34 -9.03,-15.88 -6.57,-17.58 -9.6,-24.96 -20.56,4.43 -32.38,19.94 -34.16,36.39 -2.6,24.16 12.55,53.97 23.14,71.6 13.62,22.67 40.19,31.82 58.03,50.26l-4.29 0.61c33.67,3.46 88.07,-13.75 106.86,-22.87 11.85,5.77 32.27,20.45 43.62,31.65 8.22,-15.85 10.71,-45.64 12.82,-60.58 3.49,-24.73 20.81,-22.29 39.62,-35.29 33.24,-22.98 33.84,-78.18 19.66,-111.69 -14.94,-35.29 -58.52,-62.82 -92.68,-38.88 -50.84,34.59 -36.52,84.67 -13.84,99.28l-12.17 -4.51z"/>
   <path class="fil1" d="M1319.07 899.28c-1.79,4.98 -31.17,47.58 -36.06,53.61 -9.65,11.89 -32.44,36.09 -46.17,41.82 -46.83,36.51 -83,48.91 -133.38,76.02 -3.35,6.3 -26.02,22.08 -29.57,36.45 -6.47,6.17 -15.88,15.68 1.71,6.91 32.69,-8.53 59.98,-12.27 93.01,-17.83 38.99,-6.57 43.78,-13.91 71.96,-39.95 55.14,-50.96 124.73,-138.32 118.1,-218.84 -8.11,-98.52 -89.67,-50.39 -94.19,12.71 -4.88,68.16 61.69,33.3 54.61,49.1z"/>
   <path class="fil1" d="M1091.68 818.25c-9.23,6.88 -11.14,9.82 -17.32,19.14 -8.44,6.08 -12.88,15.29 -10.38,25.28 -12.98,33.32 -11.21,93.28 -12.13,130.07 -3.71,10.92 -19.72,49.2 -13.87,57.33 20.59,-6.56 67.81,-36.46 76.54,-57.7 12.53,-30.46 -1.21,-89.84 -3.8,-122.8 -3.11,-39.52 11.78,-94.72 3.93,-123.45 -7.13,-26.12 -23.25,-75.37 -51.2,-85.95 -65.11,19.47 -64.88,185.62 45.82,144.03 1.45,10.1 -8.97,11.64 -17.6,14.05z"/>
   <path class="fil4" d="M884.11 695.91c0.23,9.71 13.31,31.86 3.88,43.85 -5.71,30.97 -48.09,42.62 -71.8,20.87 -26.23,-24.06 -12.5,-67.25 19.52,-71.49l15.66 -5.23c5.05,-7.91 10.33,-14.33 21.47,-10.95 13.61,4.12 10.71,12.96 11.28,22.96zm-54.83 -66.86c-101.9,21.81 -68.28,175.82 33.35,153.17 99.53,-22.18 67.15,-174.68 -33.35,-153.17z"/>
   <path class="fil4" d="M552.02 750.18l6 28.97c-3.35,41.24 -44.11,60.35 -73.21,33.51 -28.82,-26.59 -7.1,-74.01 34.13,-71.13l1.29 -3.32c4.4,-9.08 11.14,-14.89 22,-11.04 12.08,4.29 10.26,12.33 9.79,23zm-113.82 20.61c13.96,97.99 165.83,79.19 152.53,-22.24 -13.09,-99.8 -167.23,-80.89 -152.53,22.24z"/>
   <path class="fil1" d="M924.38 404.48c-20.31,16.08 -14.29,1.78 -18.81,-6.24 -6.62,5.31 -10.44,13.52 -16.94,19.15 -9.86,8.53 -18.87,5.03 -26.57,8.84 8.75,10.03 21.35,18.67 32.38,31.17 15.63,17.72 14.48,22.71 24.86,40.23 63.19,-37.35 135.44,-42.52 125.57,-139.93 -14.33,4.98 -36,26.57 -59.81,33.52 -11.4,3.32 -25.47,4.94 -35.73,10.84 -4.92,2.83 -9.56,7.47 -13.84,9.86 -12.33,6.88 -8.13,-1.68 -11.1,-7.43z"/>
   <path class="fil3" d="M1214.57 589.58c0.17,0.41 34.21,23.44 39.92,29.16 60.14,60.32 33.33,143.85 38.33,164.54 2.23,0.12 31.12,-11.7 32.35,-13.26 3.8,-4.81 9.94,-29.9 11.31,-36.86 6.17,-31.24 6.97,-57.31 0.72,-88.72 -7.86,-39.53 -7.72,-37.14 -42.28,-53.69 -16.92,-8.1 -68.45,-15.58 -80.35,-1.17z"/>
   <path class="fil3" d="M1211.22 1088.46c67.98,-4.5 118.74,-80.98 150.55,-134.38 20.23,-33.95 32.33,-62.28 41.73,-100.91 11.41,-46.88 -19.39,-73.99 -64.27,-73.56 9.89,16.53 16.3,10.63 22.32,39.33 11.16,53.22 -10.76,97.99 -34.17,142.61 -27.68,52.74 -74.25,87.81 -116.15,126.9z"/>
   <path class="fil5" d="M438.2 770.79c-14.69,-103.14 139.45,-122.04 152.53,-22.24 13.3,101.43 -138.58,120.23 -152.53,22.24zm132.04 -92.76c-16.34,-14.89 -58.86,-14.96 -79.72,-8.43 -19.76,6.18 -45.31,22.41 -55.66,40.38 -11.22,19.48 -15.63,58.03 -8.63,79.14 2.63,7.94 12.06,24.15 17.32,30.75 70.8,88.93 245.39,-20.36 126.7,-141.83z"/>
   <path class="fil1" d="M205.89 701.86c14.33,-27.8 40.89,-47.61 66.66,-62.63 9.4,-5.48 25.23,-10.79 30.61,-14.3 -0.33,-23.17 -1.97,-53.24 10.11,-76.88 3.91,-7.66 11.5,-15.59 7.37,-19.65l-49.03 21.76c7.24,7.16 22.87,7.85 21.64,18.23l-20.33 4.86c3.38,4.56 8.62,9.36 9.28,15.06l-135.36 69.72c0.11,16.83 42.28,41.41 59.05,43.84z"/>
   <path class="fil5" d="M829.28 629.05c100.49,-21.51 132.88,130.99 33.35,153.17 -101.63,22.65 -135.25,-131.36 -33.35,-153.17zm-74.19 32.11c-37.62,87.45 69.41,181.64 153.25,111.18 22.07,-16.28 31.95,-37.2 31,-65.08 -0.8,-23.6 -11.52,-52.68 -27.38,-70.33 -45.77,-50.96 -132.45,-32.54 -156.88,24.22z"/>
   <path class="fil3" d="M1068.27 656.75c0.96,3.72 29.27,19.51 41.73,55.22 12.21,34.98 17.17,44.16 10.94,82.07 -12.62,76.84 0.63,83.65 3.11,136.54 0.42,9.09 -1.47,42.02 -0.61,46.19 16.67,-7.19 23.04,-70.04 22.78,-86.51 -0.3,-18.12 -4.17,-34.71 -3.33,-52.76 0.84,-17.98 6.2,-31.75 6.49,-49.6 0.74,-45.16 -17.36,-60.07 -15.39,-96.25 1.12,-20.64 3.25,-32.22 -18.67,-37.62 -10.83,-2.67 -38.46,-4.77 -47.04,2.72z"/>
   <path class="fil6" d="M320.64 528.39c4.13,4.06 -3.46,12 -7.37,19.65 -12.08,23.64 -10.44,53.72 -10.11,76.88 -5.38,3.5 -21.21,8.81 -30.61,14.3 -25.77,15.02 -52.33,34.83 -66.66,62.63l33.63 6.41c1.07,-0.63 6.65,-11.47 18.42,-18.49 8.37,-4.99 16.69,-8.15 25.33,-13.46 32.21,-19.77 20.45,-13.97 55.45,-21.7l2.62 -24.37 -19.07 -0.47c-10.02,-11.33 -6.25,-35.48 5.09,-44.34 22.65,-17.69 -2.97,-17.18 27.06,-31.93 -1.27,-24.71 10.86,-39.12 19.2,-59.48l-52.97 34.37z"/>
   <path class="fil6" d="M630.53 1208.41c-1.44,1.6 -30.53,13.99 -36.89,15.67 -9.28,2.46 -38.56,7.41 -47.47,6.65 -9.56,-21.25 -34.48,-100.97 -1.98,-110.75 -15.98,-8.92 -39.35,-1.9 -50.4,10.48 -13.2,14.79 -17.74,33.02 -13.9,52.9 3.32,17.28 21.04,23.56 32.36,34.96 18.54,18.67 -19.96,10.83 -31.21,24.95 12.07,4.11 5.48,-1.95 16.72,7.94 10.39,9.15 1.64,-2.12 10.28,11.27l19.99 -0.27c7.05,-9.94 5.75,-14.5 24.07,-17.77 19.96,-3.56 21.66,8.28 32.09,8.97 4.87,-4.31 1.08,-8.81 11.38,-13.52 13.56,-6.19 43.35,-14.97 34.97,-31.47z"/>
   <path class="fil3" d="M756.94 971.42l14.37 25.27c35.16,-5.58 79.81,-26.48 111.77,-43.32 22.22,-11.71 50.98,-26.72 67.09,-46.21 14.34,-17.36 4.19,-15.64 -7.18,-18.76 -3.89,-29.46 -23.67,-7.1 -40,4.19 -54.17,37.47 -83.12,53.29 -146.06,78.83z"/>
   <path class="fil1" d="M1331.09 771.82l41.86 6.1c19.19,-32.02 24.65,-56.62 13.58,-95.49 -6.48,-22.75 -33.32,-58.88 -54.07,-69.51 14.31,47.91 19.79,71.27 9.35,122.56 -2.37,11.63 -9.59,28.2 -10.73,36.34z"/>
   <path class="fil3" d="M602.65 552.13c2.53,-8.46 -0.88,-23.66 -16.39,-16.86 -55.57,24.37 -115.75,40.96 -176.46,45.4 -25.72,1.88 -58.91,-7.84 -79.29,11 -53.94,49.86 247.19,-21.93 272.14,-39.55z"/>
   <path class="fil3" d="M694.96 987.22c-15.8,-4.72 -117.89,15 -182.12,-1.02 -5.56,-1.39 -19.3,-8.65 -22.97,-5.6 -4.58,3.8 -6.9,15.83 -5.66,23.19 3.22,19.17 93.03,15.81 109.03,13.47 14.62,-2.13 73,-8.58 98.7,-12.65 1.71,-0.27 2.98,0.14 3.43,-0.31 4.03,-3.99 0.17,-11.8 -0.41,-17.09z"/>
   <path class="fil1" d="M1265.57 1076.36c46.21,-7.45 82.75,-49.49 106.98,-86.67 14.83,-22.75 26.26,-36.26 34.56,-63.22 6.71,-21.78 16.15,-65.6 4.48,-84.5 -4.31,6.89 -17.13,79.97 -56.25,133.59 -13.18,18.07 -23.88,37.93 -40.2,54.46 -14.99,15.2 -36.76,32.41 -49.57,46.33z"/>
   <path class="fil3" d="M655.37 528c13.26,2.03 89.83,-41.97 105.79,-50.35 12.32,-6.46 90,-62.23 75.03,-75.23 -13.03,-11.32 -38.18,14.58 -47.17,23.96 -9.67,10.09 -78.13,57.25 -93.71,64.54 -15.47,7.24 -43.76,15.64 -39.94,37.08z"/>
   <path class="fil7" d="M645.19 552.47c10.93,4.46 113.54,-41.61 127.14,-51.24 19.48,-12.45 87.15,-65.83 86.81,-88.02 -13.44,-10.77 -35.83,22.53 -50.03,33.27 -44.57,33.7 -53.65,43.06 -109.62,68.82 -12.86,5.92 -58.78,17.96 -54.3,37.18z"/>
   <path class="fil6" d="M532.37 1111.23c-8.45,-7.83 -3.95,2.04 -7.08,-7.06 -3.56,-12.29 1.38,-24.49 5.91,-37.14 2.89,-8.06 17.74,-35.67 23.84,-40.8l-73.28 -10.37 -7.46 14.18c12.81,7.27 16.88,-5.02 7.85,14.08 -2.76,5.84 -5.72,22.59 -4.64,29.13l13.18 1.1c6.17,38.31 4.47,6.25 11.8,24.83 1.88,4.77 1.43,8.02 4.65,13.53l25.23 -1.49z"/>
   <path class="fil7" d="M594.29 526.14c-6.37,-3.2 -78.03,38.66 -126.07,19.18 -48.36,-19.62 -9.38,-12.13 -51.34,2.36 -24.44,8.44 -83.26,8.34 -70.78,26.04 3.02,4.28 12.33,2.24 17.62,2.2 52.33,-0.38 53.12,2.36 111.11,-9.24 16.74,-3.35 115.07,-28.25 119.46,-40.53z"/>
   <path class="fil6" d="M492.81 971.14c-21.23,-25.54 -95.26,-119.35 -92.41,-150.53l-21.7 9.34c8.83,12.1 21.81,9.65 5.48,19.92l-0.17 17.22c7.27,2.41 13.34,7.48 21.8,7.22 8.95,19.86 -0.12,26.62 30.4,61.43 18.97,21.64 29.16,25.71 56.6,35.39z"/>
   <path class="fil7" d="M324.97 612.19c-8.09,42.01 275.54,-37.41 280.27,-46.17 11.18,-20.69 -47.31,3.82 -56.59,6.34 -69.14,18.78 -54.47,22.95 -140.69,34.8 -57.88,7.05 -73.09,2.15 -82.99,5.02z"/>
   <polygon class="fil6" points="743.33,1171.48 744.52,1245.41 790,1244.48 790.31,1241.7 782.05,1160.93 "/>
   <path class="fil6" d="M1150.94 924.83c5.27,-10.71 7.06,-29.39 9.35,-38.73 5.68,-23.18 31.53,-82.76 47.5,-96.22l-40.4 -15.31c-33.28,51.43 -9.88,93.84 -16.45,150.26z"/>
   <path class="fil6" d="M359.55 552.02c16.9,1.57 65.53,-12.3 77.33,-24.73 -22.5,-22.34 -20.66,-24.98 -32.96,-58.82 -16.23,14.42 -45.37,60.19 -44.37,83.55z"/>
   <path class="fil8" d="M887.98 739.76l0.33 -10.86c-7.62,7.4 -36.34,32.77 -46.03,10.67 -12.6,3.17 -16.49,-3.47 -10.01,-14.5 -18.6,-4.88 12.05,-33.13 14.17,-37.09l-10.74 1.15c-32.02,4.24 -45.75,47.44 -19.52,71.49 23.71,21.75 66.1,10.1 71.8,-20.87z"/>
   <path class="fil9" d="M244.99 713.38c17.75,14.71 63.65,0.66 84.68,-3.5 -9.91,-20.77 -8.83,-13.15 -5.77,-31.75l23.42 -1.36 -1.56 -16.32c-31.53,-0.8 -30.18,3.27 -55.55,19.77 -22.33,14.52 -29.2,10.15 -45.22,33.16z"/>
   <path class="fil6" d="M916.89 1206.79c5.54,9.88 10.32,17.42 5.18,27.86 48.36,1.82 54.54,-41.64 91.05,-11.7 5.83,-23.27 7.32,-8.8 14.5,-17.57 -0.58,-36.12 -55.13,-3.35 -53.74,-23.38 -9.04,11.19 -41.12,21.32 -56.99,24.79z"/>
   <path class="fil8" d="M558.02 779.15c-6.47,7.01 -7.88,14.14 -18.78,18.14 -8.54,3.13 -24.18,3.38 -28.13,-5.18 -7.45,2.47 -9.83,1.92 -13.66,-6.09l4.38 -7.92c-7.76,-2.03 -3.16,-17.75 0.8,-23.63 5.21,-7.73 11.78,-9.4 16.31,-12.94 -41.23,-2.88 -62.96,44.54 -34.13,71.13 29.1,26.84 69.86,7.73 73.21,-33.51z"/>
   <path class="fil7" d="M658.44 505.32c46.58,-18.55 123.56,-75.17 159.84,-110.03 -23.16,-15.92 -47.07,22.41 -80.55,49.63 -11.46,9.32 -32.7,17.17 -46.76,23.1 -25.84,10.91 -33.77,3.62 -32.53,37.3z"/>
   <path class="fil6" d="M615.39 1238.59c-11.08,7.19 -25.6,5.59 -21.25,20.34 16.91,12.15 13.43,-23.87 45.89,6.33l33.94 -0.45c8.58,-5.72 11.96,-18.11 29.42,-17.21 15.3,0.79 25.9,21.03 31.79,8.91l4.12 -30.93c-16.94,6.7 -113.56,22.19 -123.9,13.02z"/>
   <path class="fil10" d="M705.65 452.62c28.54,-8.83 44.57,-19.92 65.18,-40.95 9.97,-10.61 35.9,-18.21 -0.16,-26.01 -13.73,-5.39 -29.19,-10.47 -43.98,-10.64 -3.82,45.22 -5.38,49.16 -21.05,77.6z"/>
   <path class="fil11" d="M835.7 689.13l10.74 -1.15c-2.12,3.96 -32.77,32.22 -14.17,37.09 9.95,0.61 17.42,3.11 10.01,14.5 9.69,22.1 38.42,-3.27 46.03,-10.67l-0.33 10.86c9.43,-11.99 -3.64,-34.14 -3.88,-43.85 -6.88,5.22 -9.85,11.27 -21.61,7.86 -9.88,-2.87 -11.61,-10.85 -11.14,-19.87l-15.66 5.23z"/>
   <path class="fil12" d="M928.91 502.24c9.12,-0.42 12.36,-3.62 22.51,-0.82l-7.87 14.03c16.24,15.52 17.41,20.63 -5.41,19.93l5.65 10.31c29.36,-4.64 58.63,-61.78 67.06,-88.35 -14.03,7.77 -23.1,15.66 -41.31,22.64 -15.5,2.8 -30.05,11.1 -40.62,22.27z"/>
   <path class="fil6" d="M795.46 1227.9c6.33,25.04 4.92,26.19 33.83,23.83 26.01,-40.82 49.62,-13.08 62.93,-14.68 7.62,-3.63 2.49,-4.68 7.82,-12.28 6.15,-8.76 8.38,-1.37 15.08,-6.9l-16.19 -17.24c-1.09,13.49 -88.13,26.81 -103.48,27.27z"/>
   <path class="fil13" d="M495.12 543.01c-38.91,-40.24 -73.37,-56.6 -82.08,-121.78 -7.24,8.57 -2.65,35.41 -1.04,47.14 -0.28,40.89 39.93,73.74 83.12,74.63z"/>
   <path class="fil11" d="M501.83 778.1c9.41,0.46 17.37,3.95 9.27,14.02 3.95,8.56 19.59,8.31 28.13,5.18 10.91,-4 12.32,-11.13 18.78,-18.14l-6 -28.97c-6.72,4.82 -10.41,10.24 -20.93,6.98 -9.28,-2.88 -11.06,-10.13 -10.86,-18.95l-1.29 3.32c-4.53,3.54 -11.1,5.21 -16.31,12.94 -3.96,5.88 -8.56,21.6 -0.8,23.63z"/>
   <path class="fil6" d="M1053.63 921.4c6.92,-24.38 6.78,-62.92 20.73,-84.01 24.83,-34.49 30.64,-8.58 -24.6,-26.32 -9.18,12.22 -14.03,36.9 -10.97,52.97l14.84 57.36z"/>
   <path class="fil13" d="M446.6 383.55c3.39,12.38 4.22,17.08 9.57,24.87 10.64,18.71 42.67,46.12 57.6,27.74 -22.15,-22.17 -21.53,-2.88 -24.61,-59.73 -3.61,-0.78 -27.11,-1.8 -42.56,7.12z"/>
   <path class="fil13" d="M542.33 318.8c5.75,16.65 6.2,31.09 17.09,49.99 6.56,11.4 20.8,26.86 33.74,30.64 -5.13,-15.77 -19.87,-18.86 -11.28,-57.55 1.37,-6.2 5.59,-12.38 6.02,-17.21 -10.11,-9.52 -35.27,-18.63 -45.56,-5.88z"/>
   <path class="fil2" d="M721.82 990.28c27.57,-10.07 38.83,19.08 20.76,33.64 -7.19,5.8 -22.02,5.77 -26.36,-5.03 -3.38,-8.41 -4.57,-24.89 5.6,-28.61zm29.79 -16.26c-5.86,0.5 -45.1,9.61 -47.62,12.54 -8.81,10.27 -5.1,43.53 13.17,48.22 44.88,11.54 62.59,-28.42 34.44,-60.77z"/>
   <path class="fil6" d="M1037.98 1050.08c-5.86,-8.14 10.15,-46.42 13.87,-57.33 -6.86,4.25 -11.84,15.52 -17.57,21.77 -6.7,7.32 -14.31,12.94 -20.5,19.88 -15.12,16.95 -24.28,30.62 -22.08,55.15 8.79,-18.81 31.03,-28.47 46.28,-39.47z"/>
   <path class="fil6" d="M1236.83 994.71c13.73,-5.73 36.53,-29.93 46.17,-41.82 4.89,-6.03 34.27,-48.63 36.06,-53.61 -13.02,3.21 -19.4,3.2 -32.78,2.58 -1.22,21.71 -10.05,33.59 -18.1,51.62 -7.3,16.35 -23.43,26.54 -31.35,41.23z"/>
   <path class="fil6" d="M1103.45 1070.73c-20.51,7.41 -59.74,36.02 -78.14,51.19 -7.52,6.2 -3.54,6.19 -9.57,12.11 -4.05,3.98 -7.51,5.16 -10.71,10.11 10.75,-5.8 20.4,-12.16 31.36,-17.36 12.77,-4.03 23.32,-4.05 32.42,-10.15 13.72,-9.18 24.24,-26.39 34.63,-45.9z"/>
   <path class="fil13" d="M639.08 550.29c-11.35,-11.2 -19.28,-25.33 -40.82,-33.68 15.74,31.21 13.49,34.59 17.5,69.08 9.05,-3.47 20.52,-25.66 23.32,-35.39z"/>
   <path class="fil14" d="M501.2 867.17c-10.3,-14.62 -62.73,1.46 -59.38,16.39 4.22,18.75 54.84,-0.69 59.38,-16.39z"/>
   <path class="fil6" d="M1023.74 1115.19c-7.51,-10.41 2.09,-40.99 5.25,-52.68 -9.85,5.82 -23.12,17.69 -29.38,27.59 -7.13,11.28 -2.25,7.55 0.22,19.13 1.89,8.87 1.53,17.07 2.46,25.65l21.45 -19.69z"/>
   <path class="fil3" d="M1230.22 990.4c5.33,-3.69 29.08,-31.74 32.11,-38.06 5.48,-11.45 18.31,-41.12 18.22,-52.65l-13.27 -8.23c-13.32,75.73 -27.29,66.62 -37.06,98.94z"/>
   <path class="fil4" d="M851.14 580.09c1.84,-16.62 12.63,-14.06 26.31,-12.63 40.32,4.19 25.98,36.95 1.9,24.5 -15.68,-8.11 -6.09,-10.49 -28.21,-11.87zm3.78 -18.43c-7.04,3.44 -9.76,7.16 -11.21,15.85 -2.27,13.64 6.32,8.67 14.97,10.1 11.37,1.89 18.65,19.43 39.19,12.77 7.44,-2.41 20.39,-19.68 1.34,-32.94 -10.57,-7.35 -33.25,-11.18 -44.28,-5.78z"/>
   <path class="fil14" d="M946.96 751.43c-15.61,4.33 -50.69,43.56 -10.56,31.71 33.46,-9.88 40.04,-39.89 10.56,-31.71z"/>
   <path class="fil15" d="M851.14 580.09c22.12,1.38 12.53,3.76 28.21,11.87 24.08,12.45 38.42,-20.32 -1.9,-24.5 -13.68,-1.42 -24.47,-3.99 -26.31,12.63z"/>
   <path class="fil4" d="M408.8 694.31c-12.03,-12.15 7.29,-43.65 26.35,-36.87 5.38,1.92 7.42,6.3 3.49,10.94 -1.69,2 -9.24,3.77 -12.92,6.04 -13.36,8.21 -6.5,18.62 -16.92,19.89zm-8.25 -21.72c-4.54,12.62 -1,36.93 15.62,26.57 7.53,-4.7 3.41,-9.89 8.88,-16.05 4.86,-5.47 11.13,-5.3 16.43,-8.34 26.62,-15.25 -25.33,-45.51 -40.92,-2.19z"/>
   <path class="fil16" d="M851.35 683.9c-0.47,9.02 1.27,17 11.14,19.87 11.76,3.42 14.73,-2.63 21.61,-7.86 -0.58,-10 2.32,-18.84 -11.28,-22.96 -11.14,-3.38 -16.42,3.05 -21.47,10.95z"/>
   <path class="fil16" d="M520.23 738.21c-0.2,8.81 1.58,16.07 10.86,18.95 10.52,3.26 14.2,-2.17 20.93,-6.98 0.47,-10.67 2.28,-18.72 -9.79,-23 -10.85,-3.85 -17.59,1.95 -22,11.04z"/>
   <path class="fil4" d="M743.54 1012.78c-6.24,14.56 -29.54,11.33 -22.8,-12.2 3.3,-11.51 30.92,-6.73 22.8,12.2zm-21.72 -22.51c-10.17,3.72 -8.98,20.2 -5.6,28.61 4.34,10.8 19.17,10.83 26.36,5.03 18.07,-14.56 6.81,-43.71 -20.76,-33.64z"/>
   <path class="fil15" d="M408.8 694.31c10.41,-1.27 3.56,-11.68 16.92,-19.89 3.68,-2.26 11.23,-4.04 12.92,-6.04 3.93,-4.65 1.9,-9.03 -3.49,-10.94 -19.06,-6.78 -38.38,24.72 -26.35,36.87z"/>
   <path class="fil17" d="M743.54 1012.78c8.12,-18.94 -19.5,-23.72 -22.8,-12.2 -6.74,23.54 16.56,26.76 22.8,12.2z"/>
   <path class="fil18" d="M534.42 1261.03c3.95,1.98 43.16,-1.16 47.56,-3.35 -0.26,-0.15 -0.67,-0.32 -0.82,-0.39 -0.15,-0.07 -0.65,-0.32 -0.84,-0.41 -0.21,-0.1 -0.67,-0.32 -0.91,-0.43 -1.33,-0.64 -1.31,-0.57 -3.02,-1.45 -12.83,-6.56 -19.26,-9.07 -32.67,-0.14 -8.57,5.7 -6.32,0.78 -9.3,6.17z"/>
   <path class="fil16" d="M842.28 739.57c7.41,-11.39 -0.06,-13.88 -10.01,-14.5 -6.48,11.02 -2.59,17.67 10.01,14.5z"/>
   <path class="fil16" d="M511.11 792.11c8.09,-10.06 0.14,-13.56 -9.27,-14.02l-4.38 7.92c3.83,8.01 6.21,8.56 13.66,6.09z"/>
   <path class="fil18" d="M500.27 1261.09c-1.59,-3.89 -0.17,-0.46 -1.87,-1.73 -6.99,-5.22 -9.56,-15.56 -23.55,-6.01 6.62,9.45 20.63,10.33 25.42,7.74z"/>
   <path class="fil4" d="M534.42 1261.03c2.97,-5.39 0.73,-0.48 9.3,-6.17 13.41,-8.93 19.84,-6.41 32.67,0.14 1.72,0.88 1.7,0.81 3.02,1.45 0.24,0.11 0.7,0.33 0.91,0.43 0.19,0.09 0.69,0.34 0.84,0.41 0.15,0.07 0.56,0.24 0.82,0.39 -4.39,2.19 -43.6,5.33 -47.56,3.35zm-59.58 -7.68c13.99,-9.55 16.56,0.78 23.55,6.01 1.7,1.27 0.28,-2.15 1.87,1.73 -4.78,2.58 -18.8,1.71 -25.42,-7.74zm276.77 -279.33c28.15,32.35 10.43,72.31 -34.44,60.77 -18.28,-4.7 -21.99,-37.96 -13.17,-48.22 2.52,-2.93 41.76,-12.04 47.62,-12.54zm-56.66 13.21c0.82,3.43 0.64,11.9 -0.76,15.97 -0.62,1.79 -0.33,1.16 -2.27,1.43 -29.47,4.07 -83.93,10.49 -98.7,12.65 -16,2.34 -105.81,5.7 -109.03,-13.47 -1.23,-7.37 1.08,-19.39 5.66,-23.19 3.67,-3.04 17.41,4.22 22.97,5.6 64.23,16.02 164.47,0.57 182.12,1.02zm278.92 194.78c-1.39,20.04 53.16,-12.73 53.74,23.38 -7.18,8.77 -8.67,-5.71 -14.5,17.57 -36.5,-29.94 -42.68,13.53 -91.05,11.7 5.13,-10.45 0.36,-17.99 -5.18,-27.86 -11.02,-12.16 -14.12,-5.85 -17.58,-29.45 -2.14,-14.56 -1.03,-29.43 -3.68,-44.49 -3.01,-17.12 -12.51,-60.21 -25.98,-70.77 -1.3,1.92 15.33,51.88 17.59,65.17 4.88,28.63 1.2,45.46 11.69,73.37l16.19 17.24c-6.71,5.53 -8.94,-1.86 -15.08,6.9 -5.33,7.61 -0.21,8.65 -7.82,12.28 -13.31,1.6 -36.92,-26.13 -62.93,14.68 -28.91,2.36 -27.5,1.2 -33.83,-23.83 -0.42,-15.05 -5.89,-106.21 -23.58,-107.89l-1.73 0.54 11.89 40.38 8.26 80.76 -0.3 2.78 -45.48 0.92 -1.2 -73.93 -2.33 -42.67c-9.82,5.83 -4.66,86.92 -1.71,96.76l-4.12 30.93c-5.89,12.12 -16.49,-8.12 -31.79,-8.91 -17.45,-0.9 -20.83,11.49 -29.42,17.21l-33.94 0.45c-32.46,-30.19 -28.98,5.82 -45.89,-6.33 -4.36,-14.75 10.16,-13.15 21.25,-20.34 34.9,-24.45 23.71,-27.03 18.08,-70.1 -1.72,-13.19 -9.4,-82.79 -15.21,-87.94 -7.98,6.25 11.08,110.71 12.28,127.87 -1,19.22 -21.41,25.28 -34.97,31.47 -10.3,4.71 -6.51,9.2 -11.38,13.52 -10.43,-0.69 -12.13,-12.53 -32.09,-8.97 -18.33,3.27 -17.03,7.83 -24.07,17.77l-19.99 0.27c-8.63,-13.38 0.12,-2.12 -10.28,-11.27 -11.24,-9.89 -4.65,-3.83 -16.72,-7.94 11.25,-14.11 49.76,-6.28 31.21,-24.95 -11.32,-11.4 -29.03,-17.68 -32.36,-34.96 -3.83,-19.88 0.71,-38.11 13.9,-52.9 11.05,-12.38 34.42,-19.4 50.4,-10.48l14.27 7.96 1.86 -3.04 -27.96 -13.67 -25.23 1.49c-3.22,-5.51 -2.77,-8.76 -4.65,-13.53 -7.33,-18.58 -5.63,13.48 -11.8,-24.83l-13.18 -1.1c-1.07,-6.54 1.88,-23.29 4.64,-29.13 9.03,-19.11 4.96,-6.81 -7.85,-14.08 2.49,-4.73 4.97,-9.45 7.46,-14.18 31.37,9.5 61.99,11.64 98.51,9.74 37.92,-6 75.83,-12 113.75,-18 2.84,9.58 12.26,33.92 11.98,37.8 -1.35,18.48 -10.7,-2.67 -6.71,19.37 1.38,7.64 3.07,14.03 10.75,15.09 12.31,-9.42 2.14,-27.06 1.84,-38.64 7.92,4.54 15.37,5.86 27.61,4.24 -5.28,25.03 -4.13,16.96 -6.16,28.15 -1.6,8.8 7.61,17.89 18.62,20.4 9.46,-17.88 2.85,-28.19 -8.88,-49.44 11.46,-3.21 18.6,-6.51 23.62,-19.01 2.88,13.15 -9.78,30.93 6.76,40.64 9.77,-2.77 10.81,-16.35 10.72,-25.43 -1.74,-4.39 -18.45,-3.2 -10.67,-43.32 42.06,-11.69 60.71,-14.56 99.6,-33.93 30.75,-15.32 63.14,-30.73 84.44,-58.35 8.46,1.56 24.74,14.49 26.75,24.61l-18.86 8.17c5.32,10.25 11.16,7.76 18.55,13.39 14.19,10.83 1.04,8.76 -1.32,14.68 -3.71,9.3 18.72,3.66 2.36,38.96 -8.13,26.84 -10.02,49.63 -4,80.52 -10.12,-8.99 -13.47,-12.71 -30.82,-16.71 -10.24,-2.36 -27.83,-2.26 -31.75,10.08 28.96,-5.42 87.25,15.37 74.33,71.32 -3.84,16.63 -12.28,19.09 -18.9,31.79zm256.33 -191.6c9.77,-32.33 23.74,-23.21 37.06,-98.94l13.27 8.23c0.09,11.53 -12.75,41.2 -18.22,52.65 -3.03,6.32 -26.78,34.38 -32.11,38.06zm35.35 85.96c12.81,-13.92 34.58,-31.13 49.57,-46.33 16.31,-16.53 27.02,-36.39 40.2,-54.46 39.12,-53.62 51.94,-126.71 56.25,-133.59 11.67,18.9 2.24,62.71 -4.48,84.5 -8.3,26.96 -19.74,40.47 -34.56,63.22 -24.23,37.18 -60.77,79.22 -106.98,86.67zm-508.63 -104.94c62.93,-25.54 91.88,-41.36 146.06,-78.83 16.33,-11.29 36.11,-33.65 40,-4.19 11.37,3.12 21.52,1.4 7.18,18.76 -10.56,12.78 -52.38,38.46 -67.09,46.21 -31.96,16.84 -75.97,32.84 -111.13,38.42 -1.36,-9.55 -6.03,-15.41 -15.02,-20.37zm-255.74 -104.25c-4.53,15.7 -55.16,35.15 -59.38,16.39 -3.36,-14.93 49.08,-31.02 59.38,-16.39zm574.39 246.92c-10.38,4.72 -27.35,7.08 -39.2,12.69 -10.96,5.2 -20.62,11.57 -31.36,17.36 3.2,-4.95 6.66,-6.12 10.71,-10.11 6.03,-5.93 2.05,-5.91 9.57,-12.11 18.4,-15.17 57.63,-43.79 78.14,-51.19 50.38,-27.11 86.56,-39.52 133.38,-76.02 7.92,-14.69 24.05,-24.88 31.35,-41.23 8.06,-18.04 16.89,-29.92 18.1,-51.62 13.39,0.62 19.77,0.63 32.78,-2.58 7.08,-15.81 -59.49,19.06 -54.61,-49.1 4.52,-63.1 86.08,-111.23 94.19,-12.71 6.63,80.52 -62.96,167.88 -118.1,218.84 -28.17,26.04 -32.97,33.38 -71.96,39.95 -33.03,5.56 -60.31,9.3 -93.01,17.83zm135.63 -25.62c41.9,-39.09 88.47,-74.16 116.15,-126.9 23.41,-44.62 45.33,-89.39 34.17,-142.61 -6.02,-28.7 -12.42,-22.8 -22.32,-39.33 44.89,-0.43 75.69,26.67 64.27,73.56 -9.41,38.64 -21.51,66.96 -41.73,100.91 -31.81,53.4 -82.57,129.88 -150.55,134.38zm-173.24 -38.39c-15.25,11 -37.49,20.66 -46.28,39.47 -2.2,-24.54 6.95,-38.2 22.08,-55.15 6.19,-6.93 13.8,-12.56 20.5,-19.88 5.73,-6.26 10.7,-17.53 17.57,-21.77 7.73,-21.85 10.31,-39.66 7.75,-70.51l-20.8 -58.19c-3.06,-16.06 1.79,-40.75 10.97,-52.97 18.41,8.25 18.87,11.95 41.91,7.17 8.63,-2.41 19.04,-3.95 17.6,-14.05 -110.71,41.6 -110.93,-124.56 -45.82,-144.03 27.96,10.59 44.07,59.83 51.2,85.95 7.85,28.74 -7.04,83.93 -3.93,123.45 2.59,32.96 16.33,92.34 3.8,122.8 -8.73,21.24 -55.96,51.14 -76.54,57.7zm-91.03 -298.65c29.48,-8.18 22.89,21.82 -10.56,31.71 -40.13,11.86 -5.05,-27.38 10.56,-31.71zm-9.48 41.02c11.71,60.77 -23.39,90.89 -70.48,118.43 -48.36,28.28 -75.05,43.27 -129.42,61.47 -44.36,14.85 -128.43,19.09 -175.33,16.37 -29.45,-1.71 -41.58,-11.26 -64.08,-32.66 -7.56,-9.81 -32.13,-47.26 -34.21,-57.25 14.31,-3.6 27.48,-7.93 38.75,-17.71 30.07,-40.56 -33.2,-26.36 -56.19,-18.84 -2.37,-13.3 0.67,-30.37 -2.97,-42.4 -5.25,-6.6 -14.68,-22.81 -17.32,-30.75 -7,-21.11 -2.58,-59.66 8.63,-79.14 10.35,-17.97 35.9,-34.19 55.66,-40.38 20.86,-6.53 58.65,-4.92 74.98,9.97 7.33,-0.28 9.4,-8.53 21.38,-14.6 7.83,-3.97 13.95,-7.07 22.11,-10.43 17.06,-7.02 32.98,-11.67 51.06,-15.62 80.17,-17.56 94.81,3.42 117.26,1.76 -2.5,-26.31 90.87,-52.5 134.66,-3.74 15.85,17.65 26.57,46.73 27.38,70.33 0.51,14.97 -4.74,27.21 -8.04,41.39 -27.74,22.81 -43.67,51.47 6.18,43.79zm86.26 322.75l-21.45 19.69c-0.93,-8.58 -0.57,-16.78 -2.46,-25.65 -2.47,-11.58 -7.35,-7.85 -0.22,-19.13 6.26,-9.9 19.53,-21.77 29.38,-27.59 22.55,-11.82 65.71,-31.09 80.93,-49.91 15.78,-19.52 38.31,-62.84 41.01,-87.76 6.57,-56.42 -16.83,-98.83 16.45,-150.26l40.4 15.31 12.11 -2.08c-3.56,-7.47 -32.86,-5.38 -50.54,-26.53 -8.61,-10.3 -26,-35.38 -28.21,-48.08 -6.99,-40.22 15.82,-80.94 45.33,-106.54 34.91,-30.29 67.19,18.03 85.23,44.52 17.73,26.03 21.43,102.85 14.16,132.33 -3.85,15.62 -20.59,21.16 -26.88,50.69 -6.79,31.9 6.43,49.02 3.61,63.62 -4.68,24.27 -29.83,88.69 -48.07,104.55 -50.76,44.15 -132.4,61.98 -190.8,112.83zm-778.75 -401.81c16.03,-23.01 22.89,-18.63 45.22,-33.16 25.38,-16.51 24.02,-20.58 55.55,-19.77l1.56 16.32 -23.42 1.36c-3.07,18.61 -4.15,10.98 5.77,31.75 -21.03,4.16 -66.93,18.21 -84.68,3.5zm901.23 176.89c0.27,16.47 -6.1,79.32 -22.78,86.51 -0.86,-4.18 1.04,-37.11 0.61,-46.19 -2.47,-52.89 -15.73,-59.7 -3.11,-136.54 6.22,-37.91 1.27,-47.09 -10.94,-82.07 -12.47,-35.71 -40.77,-51.5 -41.73,-55.22 8.58,-7.48 36.22,-5.38 47.04,-2.72 21.92,5.4 19.8,16.98 18.67,37.62 -1.96,36.18 16.13,51.09 15.39,96.25 -0.29,17.85 -5.65,31.62 -6.49,49.6 -0.84,18.05 3.04,34.63 3.33,52.76zm184.88 -118.44c1.14,-8.14 8.36,-24.71 10.73,-36.34 10.43,-51.29 4.96,-74.65 -9.35,-122.56 20.75,10.63 47.58,46.76 54.07,69.51 11.07,38.87 5.62,63.47 -13.58,95.49l-41.86 -6.1zm-116.53 -182.24c11.9,-14.42 63.43,-6.93 80.35,1.17 34.57,16.55 34.42,14.16 42.28,53.69 6.25,31.42 5.45,57.48 -0.72,88.72 -1.38,6.96 -7.51,32.06 -11.31,36.86 -1.23,1.56 -30.12,13.38 -32.35,13.26 -5,-20.7 21.81,-104.22 -38.33,-164.54 -5.71,-5.73 -39.75,-28.76 -39.92,-29.16zm-889.6 22.61c9.88,-0.68 65.16,-0.66 82.99,-5.02 86.22,-11.85 71.55,-16.02 140.69,-34.8 9.28,-2.52 67.78,-27.03 56.59,-6.34 -4.73,8.75 -288.36,88.17 -280.27,46.17zm277.68 -60.06c-28.11,11.36 -326.08,89.41 -272.14,39.55 20.38,-18.84 53.57,-9.12 79.29,-11 60.71,-4.44 120.89,-21.03 176.46,-45.4 15.51,-6.8 18.92,8.4 16.39,16.86zm-8.36 -25.99c-4.39,12.28 -102.72,37.19 -119.46,40.53 -57.98,11.6 -58.78,8.86 -111.11,9.24 -5.29,0.04 -14.61,2.08 -17.62,-2.2 -12.48,-17.69 46.34,-17.6 70.78,-26.04 41.96,-14.49 2.98,-21.97 51.34,-2.36 48.04,19.49 119.7,-22.38 126.07,-19.18zm-234.73 25.88c-1,-23.36 28.13,-69.13 44.37,-83.55 10.45,32.46 10.46,36.48 32.96,58.82 -11.79,12.43 -60.43,26.3 -77.33,24.73zm133.26 419.12c-27.44,-9.68 -37.63,-13.76 -56.6,-35.39 -30.52,-34.81 -21.45,-41.57 -30.4,-61.43 -8.38,-1.09 -15.2,-3.47 -21.28,-8.79 5.38,0.08 9.56,-1.03 12.83,-6.36 -6.43,-2.18 -10.14,-4.9 -13.17,-9.29 16.33,-10.28 4.27,-8.01 -4.56,-20.1l20.78 -9.16c13.32,-4.19 14.39,-22.03 9.02,-33.3 -3.08,-6.46 -16.59,-20.7 -21.98,-27.76 -9.7,-12.71 -33.2,-62.56 -35.47,-65.47l-15.13 8.59 0.41 -18.73 16.28 -2.69c3.44,-20.66 -14.04,-29.22 -5.63,-50.39 11.14,-4.33 51.2,-2.72 70.95,-8.17 22.11,-6.1 42.23,-9.57 64.24,-14.88 44.02,-10.63 82.2,-22.57 124.73,-34.07l0.25 21.02c15.87,2.86 28.31,-26.73 34.78,-38.23 32.5,-3.66 92.97,-28.72 123.28,-49.17 30.89,-16.24 84,-64.92 89.78,-74.55 12.65,1.51 28.83,22.63 36.66,32.66 13.4,17.16 13.08,27.33 25.24,44.73l26.23 -4.3c-1.8,4.43 -2.76,6.96 -6.47,10.44 0.13,0.27 5.19,3.5 11.29,13.86l-23.49 -4.31c-0.06,1.37 17.21,32.81 19.73,40.61 22.79,70.48 8.85,152.18 10.98,163.17 12.33,8.35 29.41,10.29 36.55,9.91 -1.99,8.24 -4.89,14.36 -9.82,18.37 6.76,0.88 12.96,0.37 19.72,-1.79 1.83,14.19 -5.73,41.64 -12.08,51.04 -12.32,19.4 -35.75,42.11 -53.83,51.76 11.51,-26.4 13.91,-33.45 6.12,-69.75 14.02,-7.91 34.27,-13.72 31.11,-33.99 -8.81,-16.81 -21.04,-9.49 -33.72,-9.77 -1.46,-7.64 8.46,-29.5 2.97,-55.76 -3.29,-15.75 -9.92,-32.97 -18.89,-46.36 -30.42,-45.37 -91.84,-52.86 -136.08,-23.91 -27.76,18.17 -5.42,15.65 -44.22,8.51 -33.62,-6.19 -80.62,2.49 -113.48,12.28 -15.95,4.76 -31.22,11.36 -45.81,19.29 -26.3,14.28 -7.68,16.68 -42.33,4.11 -60.53,-21.95 -146.88,40.53 -121.95,125.12 4.1,13.91 20.11,32.41 19.03,44.78 -1.14,13.18 0.5,20.8 -0.14,30.65 -0.69,10.61 -12.62,11.66 -5.58,25.42 5.65,7.3 14.06,7.89 22.74,8.94 10.45,29.32 35.58,58.26 50.36,75.91l-13.93 -3.28zm-286.92 -269.28c-16.77,-2.43 -58.94,-27.01 -59.05,-43.84l135.36 -69.72c-0.65,-5.7 -5.9,-10.5 -9.28,-15.06l20.33 -4.86c1.23,-10.38 -14.4,-11.07 -21.64,-18.23l49.03 -21.76 52.97 -34.37c-8.34,20.36 -20.47,34.77 -19.2,59.48 -30.03,14.75 -4.41,14.24 -27.06,31.93 -11.33,8.86 -15.11,33.01 -5.09,44.34l19.07 0.47 -2.62 24.37c-35,7.74 -23.24,1.93 -55.45,21.7 -8.64,5.3 -16.96,8.46 -25.33,13.46 -11.77,7.02 -17.35,17.86 -18.42,18.49l-33.63 -6.41zm723.02 -199.61c10.57,-11.17 25.12,-19.46 40.62,-22.27 18.62,-3.37 27.28,-14.88 41.31,-22.64 -8.43,26.57 -37.71,83.71 -67.06,88.35l-4.91 -8.65c13.17,-1.5 19.05,-0.03 19.92,-4.17 0.8,-3.79 -3.59,-9.87 -14.12,-18.2l6.74 -13.24c-10.15,-2.79 -13.38,0.4 -22.51,0.82zm-281.15 48.21c-3.76,-18.28 39.62,-28.23 51.73,-35.16 55.97,-25.75 65.05,-35.12 109.62,-68.82 14.21,-10.74 36.59,-44.03 50.03,-33.27 -6.86,45.92 -176.44,141.25 -211.38,137.24zm7.61 -22.45c-3.82,-21.44 24.47,-29.84 39.94,-37.08 15.58,-7.29 84.05,-54.45 93.71,-64.54 8.99,-9.38 34.15,-35.28 47.17,-23.96 14.97,13.01 -62.72,68.77 -75.03,75.23 -15.96,8.38 -92.53,52.38 -105.79,50.35zm3.07 -22.68c-1.24,-33.67 6.69,-26.39 32.53,-37.3 14.06,-5.93 35.3,-13.78 46.76,-23.1 33.48,-27.22 57.38,-65.56 80.55,-49.63 -36.28,34.87 -113.26,91.48 -159.84,110.03zm265.95 -100.84c2.97,5.75 -1.23,14.31 11.1,7.43 4.28,-2.39 8.92,-7.03 13.84,-9.86 10.25,-5.9 24.33,-7.52 35.73,-10.84 23.82,-6.95 45.48,-28.53 59.81,-33.52 9.88,97.41 -62.38,102.59 -125.57,139.93 -10.38,-17.52 -9.23,-22.51 -24.86,-40.23 -11.03,-12.5 -23.62,-21.14 -32.38,-31.17 7.71,-3.81 16.72,-0.31 26.57,-8.84 6.5,-5.62 10.32,-13.83 16.94,-19.15 4.52,8.02 -1.5,22.32 18.81,6.24zm-218.73 48.14c19.76,-28.93 20.73,-54.62 21.05,-77.6 14.79,0.18 30.24,5.25 43.98,10.64 7.68,3.02 14.6,5.36 13.84,7.91 -4.07,13.64 -61.91,53.8 -78.86,59.04zm-100.32 -48.67c-19.58,-15.8 -35.37,-63.19 13.84,-99.28 34.17,-23.94 77.74,3.59 92.68,38.88 14.19,33.51 13.59,88.72 -19.66,111.69 -18.81,13 -36.12,10.55 -39.62,35.29 -3.42,24.27 -12.97,81.13 -36.82,95.16 -4.01,-34.49 -1.75,-37.86 -17.5,-69.08 -25.37,8.05 -152.35,76.13 -186.27,-48.23 -13.39,-97.23 72.71,-89.83 77.16,-91.94 -2.12,17.05 -2.41,27.55 2.28,40.17 2.26,5.02 10.5,17.48 14.53,19.95 9.35,5.73 9.64,4.35 7.39,-0.92 -55.81,-50.02 29.36,-153.53 74.53,-110.96 -14.16,23.6 -18.92,71.41 17.44,79.27zm342.55 149.61c14.35,-11.91 19.2,-7.71 33.78,-26.11 32.48,-40.99 26.86,-64.5 41.99,-79.02 20.91,-20.06 34.24,-58.43 28.41,-89.94 -3.5,-18.91 -24.09,2.47 -34.56,9.28 -33.29,21.66 -56.16,17.35 -83.39,36.5l-1.36 -13.74 -18.04 12.12 0.05 -15.28c-12.59,-3.56 -21.69,21.18 -39.6,27.94 -14.77,5.58 -5.84,1.57 -13.42,-6.77 -2.68,-2.94 -15.57,-7.76 -22.3,-12.48 -23.31,-16.36 -37.17,-6.78 -54.7,-12.01 -7.65,-2.28 -15.62,-7.56 -25.28,-10.41 -7.19,-2.12 -23.7,-3.82 -27.99,-6.05 -11.68,-6.08 -12.72,-64.88 -64.18,-75.44 -17.38,-3.57 -39.46,-4.24 -53.61,8.03 -33.7,25.68 -11.08,17.03 -41.39,8.72 -40.75,-11.18 -64.76,34.27 -80.74,59.19 -5.52,8.62 -61.73,-11.47 -84.54,45.63 -10.19,25.5 2.38,38.75 -13.62,53.06 -18.27,16.33 -57.79,48.87 -80.07,59.59 -8.86,4.26 -46.04,17.01 -48.76,21.32 -0.54,9.57 7.92,10.31 15.12,15.21 -4.18,1.83 -11.82,4.1 -14.66,7.4 2.1,5.37 3.52,11.96 7.47,16.22l-132.78 66.04c-2.6,19.84 17.49,31.67 31.73,42.11 14.25,10.45 38.9,18.73 56.29,21.16 10.54,1.47 29.81,17.56 66.3,10.57 13.8,-2.64 47.53,-12.45 56.22,-21.97 3.93,6.67 6.65,20.03 12.24,28.84 5.72,8.99 9.91,16.79 15.07,25.28 11.13,18.33 34.92,29.27 25.11,52.47 -11.97,9.95 -20.4,10.42 -30.71,18.07 7.12,10.07 14.71,12.9 2.21,19.89 3.38,6.51 5.39,5.28 6.92,10.81 2.1,7.44 -16,6.28 13.05,18.71 15.35,6.57 0.82,18.42 28.13,52.59 31.05,36.09 43.85,38.66 59.67,45.76 -0.94,8.33 -10.39,13.01 -6.95,31.73 2.7,14.68 -16.02,20.28 -2.68,29.36 8.34,5.67 -3.63,20.47 -1.59,33.73 1.73,11.23 8.06,6.08 13.22,9.09 5.91,3.44 8.17,22.7 16.46,33.79 -7.48,4.91 -14.79,13.78 -19.92,21.2 -7.1,10.26 -8.33,21.63 -8.59,33.81 -0.65,30.16 7.23,37.89 31.55,53.13 -9.02,6.17 -36.74,8.64 -36,33.79 9.54,17.09 50.22,12.97 68.58,13.01 12.13,0.03 26.31,-1.9 38.72,-2.89 27.49,-2.21 10.17,5.8 29.34,5.92 20.79,0.13 59.68,0.68 78.91,-2.47 10.68,-1.75 25.33,-3.29 36.23,-4.01 26.81,-1.77 14.55,-1.79 28.23,-12.32 15.4,-1.66 21.77,2.2 39.48,-1.27 11.14,-2.18 14.14,7.45 33.07,7.31 3.59,-0.03 69.08,-11.78 71.48,-12.63 33.42,-11.94 112.83,-7.31 138.72,-22.54 6.92,-10.78 10.29,-25.43 -1.34,-35.78 -17.86,-15.88 -24.89,-6.9 -44.44,-7.13 37.68,-89.22 248.52,-65.7 326.15,-117.43 41.11,-27.39 80.69,-76.38 98.93,-123 20.2,-51.63 23.99,-131.37 -32.65,-161.13 21.73,-39.71 30.92,-67.38 11.01,-113.07 -25.9,-59.43 -121.17,-118.19 -180.26,-82.83 -24.22,14.5 -59.74,45.72 -67.38,73.97 -74.77,-41.11 -129.98,10.33 -127.91,98.75 0.7,29.91 22.32,35.23 31.69,51.34 0.37,2.66 -20.28,28.83 -10.07,65.18 14.8,33 34.53,86.55 -0.79,132.19 -3.69,4.59 -38.12,40.61 -38.81,40.9 -2.93,-10.78 -3.76,-31.3 1.6,-40.82 5.78,-10.27 6.92,-28.36 -1.07,-38.03 9.75,-17.1 -2.64,-17.74 -15.01,-27.94 24.71,-15.21 3.83,-23.98 -12.34,-34.07 -15.12,-9.44 3.33,-9.74 -12.01,-22.11 -1.71,-1.38 -12.81,-14.72 -15.18,-18.12 15.95,-11 82.12,-60.96 66.36,-117.97 -4.16,3.04 -7.85,4.67 -13.39,5.55 2.37,-4.09 4.63,-10.41 5.53,-18 -13.41,-0.81 -24.53,-3.82 -36.1,-10.97 1.28,-30.69 2.5,-61.41 1,-92.31 -1.57,-32.1 -9.53,-49.75 -15.81,-78.18z"/>
   <path class="fil18 str0" d="M662.29 895.6c37.77,0.26 78,-6.61 109.5,-29.14 -31.64,26.59 -70.3,32.53 -109.5,29.14z"/>
  </g>
 </g>
</svg>
