<?xml version="1.0" encoding="UTF-8"?>
<!DOCTYPE svg PUBLIC "-//W3C//DTD SVG 1.1//EN" "http://www.w3.org/Graphics/SVG/1.1/DTD/svg11.dtd">
<!-- Creator: CorelDRAW 2021 (64-Bit Evaluation Version) -->
<svg xmlns="http://www.w3.org/2000/svg" xml:space="preserve" width="22.0799mm" height="5.1366mm" version="1.1" style="shape-rendering:geometricPrecision; text-rendering:geometricPrecision; image-rendering:optimizeQuality; fill-rule:evenodd; clip-rule:evenodd"
viewBox="0 0 363.44 84.55"
 xmlns:xlink="http://www.w3.org/1999/xlink"
 xmlns:xodm="http://www.corel.com/coreldraw/odm/2003">
 <defs>
  <style type="text/css">
   <![CDATA[
    .fil1 {fill:#FEFEFE}
    .fil0 {fill:#DCDDDD}
    .fil2 {fill:#3D5A98}
    .fil3 {fill:#3D5A98;fill-rule:nonzero}
   ]]>
  </style>
 </defs>
 <g id="圖層_x0020_1">
  <metadata id="CorelCorpID_0Corel-Layer"/>
  <path class="fil0" d="M21.67 5.07l320.11 0c11.96,0 21.66,17.79 21.66,39.74 0,21.95 -9.7,39.74 -21.66,39.74l-320.11 0c-11.97,0 -21.67,-17.79 -21.67,-39.74 0,-21.95 9.7,-39.74 21.67,-39.74z"/>
  <path class="fil1" d="M21.67 0l320.11 0c11.96,0 21.66,17.79 21.66,39.74 0,21.95 -9.7,39.74 -21.66,39.74l-320.11 0c-11.97,0 -21.67,-17.79 -21.67,-39.74 0,-21.95 9.7,-39.74 21.67,-39.74z"/>
  <path class="fil2" d="M32.2 60.61l8.23 0 0.02 -20.45 6.83 -0.04 1.04 -7.93 -7.88 -0.01c-0.12,-0.65 -0.03,-2.23 -0.03,-2.98 0,-0.62 -0.11,-2.52 0.11,-2.86 -0.13,-0.75 0.38,-1.72 0.71,-2.1 1.3,-1.48 5.18,-0.92 7.36,-1l-0.02 -7.11c-1.96,-0.31 -5.91,-0.46 -7.88,-0.21 -2.47,0.32 -4.4,1.35 -5.65,2.59 -4.27,4.25 -2.31,10.69 -2.87,13.67l-6.83 0.03 0 7.96 6.86 0.01 0 20.44z"/>
  <polygon class="fil3" points="96.67,32.82 86.39,32.82 86.39,39.86 96.26,39.86 96.26,42.89 86.39,42.89 86.39,53.61 83.2,53.61 83.2,29.79 96.67,29.79 "/>
  <path id="_1" class="fil3" d="M114.33 53.64l-3.17 0 -0.03 -1.05c-1.27,1.06 -2.67,1.6 -4.19,1.6 -1.5,0 -2.77,-0.48 -3.81,-1.43 -1.14,-1.02 -1.7,-2.36 -1.7,-4.02 0,-1.9 0.63,-3.37 1.9,-4.38 0.95,-0.75 2.2,-1.21 3.74,-1.4 0.68,-0.09 1.99,-0.13 3.91,-0.13l0 -1.02c0,-1.95 -0.98,-2.93 -2.93,-2.93 -1.04,0 -1.75,0.17 -2.14,0.51 -0.52,0.41 -0.82,1.12 -0.92,2.14l-3.1 0c0.13,-1.79 0.79,-3.17 1.98,-4.12 1.13,-0.86 2.54,-1.29 4.22,-1.29 3.9,0 5.85,1.89 5.85,5.68l0 7.65c0,1.47 0.12,2.87 0.37,4.19zm-3.33 -7.96c-1,0 -1.62,0.01 -1.87,0.03 -3.08,0.11 -4.63,1.12 -4.63,3.03 0,0.75 0.24,1.35 0.71,1.81 0.57,0.52 1.26,0.79 2.08,0.79 2.47,0 3.71,-1.88 3.71,-5.65z"/>
  <path id="_2" class="fil3" d="M132.61 47.72c-0.05,2.01 -0.63,3.57 -1.74,4.66 -1.16,1.16 -2.74,1.74 -4.73,1.74 -2.36,0 -4.16,-0.93 -5.41,-2.79 -1.09,-1.61 -1.63,-3.62 -1.63,-6.02 0,-2.39 0.56,-4.44 1.7,-6.16 1.29,-2 3.12,-3 5.47,-3 1.95,0 3.48,0.58 4.59,1.74 1.11,1.2 1.68,2.71 1.7,4.53l-2.96 0c-0.18,-2.27 -1.31,-3.4 -3.4,-3.4 -1.16,0 -2.11,0.62 -2.86,1.87 -0.77,1.27 -1.16,2.75 -1.16,4.42 0,1.66 0.36,3.04 1.09,4.15 0.7,1.19 1.58,1.77 2.63,1.77 1.27,0 2.17,-0.27 2.68,-0.82 0.57,-0.54 0.89,-1.44 0.95,-2.68l3.07 0z"/>
  <path id="_3" class="fil3" d="M151.67 45.95l-11.53 0c0.16,1.47 0.61,2.69 1.36,3.64 0.84,1.11 1.92,1.67 3.23,1.67 2.04,0 3.3,-1.03 3.77,-3.09l3.1 0c-0.3,1.79 -1.07,3.22 -2.32,4.28 -1.25,1.13 -2.81,1.7 -4.69,1.7 -2.4,0 -4.29,-0.88 -5.65,-2.65 -1.25,-1.66 -1.87,-3.8 -1.87,-6.43 0,-2.29 0.59,-4.32 1.77,-6.06 1.34,-1.93 3.16,-2.89 5.48,-2.89 2.47,0 4.39,1.01 5.75,3.03 1.16,1.79 1.69,4.06 1.6,6.81zm-3.13 -2.93c-0.31,-1.2 -0.82,-2.18 -1.53,-2.93 -0.75,-0.75 -1.64,-1.12 -2.65,-1.12 -2.14,0 -3.5,1.35 -4.09,4.05l8.27 0z"/>
  <path id="_4" class="fil3" d="M171.04 45.03c0,2.4 -0.49,4.41 -1.46,6.02 -1.18,2.06 -2.95,3.09 -5.31,3.09 -1.66,0 -3.23,-0.63 -4.73,-1.9 -0.02,0.2 -0.07,0.65 -0.13,1.32l-3.03 0c0.2,-1.9 0.31,-3.3 0.31,-4.18l0 -19.63 3 0 0 7.96c1.33,-1.07 2.83,-1.6 4.49,-1.6 2.33,0 4.11,0.98 5.31,2.92 1.05,1.66 1.57,3.65 1.57,5.99zm-3.03 -0.1c0,-1.59 -0.35,-2.95 -1.05,-4.08 -0.71,-1.22 -1.73,-1.84 -3.07,-1.84 -1.29,0 -2.33,0.65 -3.13,1.94 -0.73,1.2 -1.09,2.61 -1.09,4.22 0,1.84 0.36,3.28 1.09,4.32 0.8,1.18 1.92,1.77 3.37,1.77 1.27,0 2.24,-0.69 2.89,-2.07 0.66,-1.16 0.99,-2.58 0.99,-4.26z"/>
  <path id="_5" class="fil3" d="M190.68 45.1c0,2.39 -0.59,4.42 -1.77,6.13 -1.38,1.95 -3.3,2.93 -5.75,2.93 -2.5,0 -4.44,-0.98 -5.82,-2.93 -1.23,-1.73 -1.84,-3.76 -1.84,-6.13 0,-2.33 0.61,-4.36 1.84,-6.06 1.38,-1.95 3.32,-2.92 5.82,-2.92 2.45,0 4.37,0.96 5.75,2.89 1.18,1.7 1.77,3.73 1.77,6.09zm-3.09 0c0,-1.56 -0.37,-2.94 -1.09,-4.15 -0.84,-1.32 -1.95,-1.97 -3.33,-1.97 -1.43,0 -2.57,0.66 -3.44,1.97 -0.75,1.2 -1.12,2.58 -1.12,4.15 0,1.61 0.37,2.99 1.12,4.12 0.87,1.39 2.01,2.08 3.44,2.08 1.38,0 2.5,-0.69 3.33,-2.08 0.73,-1.13 1.09,-2.5 1.09,-4.12z"/>
  <path id="_6" class="fil3" d="M210.32 45.1c0,2.39 -0.59,4.42 -1.77,6.13 -1.38,1.95 -3.3,2.93 -5.75,2.93 -2.5,0 -4.44,-0.98 -5.82,-2.93 -1.23,-1.73 -1.84,-3.76 -1.84,-6.13 0,-2.33 0.61,-4.36 1.84,-6.06 1.38,-1.95 3.32,-2.92 5.82,-2.92 2.45,0 4.37,0.96 5.75,2.89 1.18,1.7 1.77,3.73 1.77,6.09zm-3.09 0c0,-1.56 -0.37,-2.94 -1.09,-4.15 -0.84,-1.32 -1.95,-1.97 -3.33,-1.97 -1.43,0 -2.57,0.66 -3.44,1.97 -0.75,1.2 -1.12,2.58 -1.12,4.15 0,1.61 0.37,2.99 1.12,4.12 0.87,1.39 2.01,2.08 3.44,2.08 1.38,0 2.5,-0.69 3.33,-2.08 0.73,-1.13 1.09,-2.5 1.09,-4.12z"/>
  <polygon id="_7" class="fil3" points="229.2,53.61 225.33,53.61 218.69,45.78 218.42,46.09 218.42,53.61 215.43,53.61 215.43,29.79 218.42,29.79 218.42,42 224.74,36.56 229.13,36.56 220.94,43.71 "/>
  <path id="_8" class="fil3" d="M246.28 24.96l13.34 0c0.66,1.13 1.53,2.21 2.62,3.23 0.73,-0.36 1.42,-0.74 2.08,-1.12 0.81,-0.57 1.62,-1.29 2.41,-2.18l2.55 1.56c-0.95,1.21 -1.86,2.1 -2.72,2.69 -0.46,0.43 -1.03,0.82 -1.74,1.16 0.66,0.48 1.33,0.92 2,1.33 0.71,-0.34 1.38,-0.8 2.01,-1.36 0.82,-0.64 1.61,-1.47 2.38,-2.52l2.55 1.6c-0.93,1.31 -1.81,2.33 -2.62,3.06 -0.44,0.34 -0.88,0.67 -1.33,0.99 1.61,0.91 3.38,1.79 5.31,2.65l-1.94 2.75c-2.15,-0.95 -4.05,-1.9 -5.68,-2.86l0 1.02 -17.42 0 0 -0.88c-1.77,1.06 -3.79,2.14 -6.06,3.23l-1.94 -3.17c2.38,-0.98 4.44,-1.93 6.19,-2.86 -0.82,-0.84 -1.79,-1.71 -2.93,-2.62l2.14 -2.07c1.41,1.02 2.62,2.01 3.64,2.99 0.05,-0.02 0.08,-0.05 0.1,-0.06 1.54,-1.02 2.97,-2.26 4.29,-3.71l-9.26 0 0 -2.86zm6.81 9.15l11.57 0c-0.11,-0.09 -0.22,-0.17 -0.3,-0.24 -2.38,-1.61 -4.32,-3.39 -5.82,-5.34 -1.07,1.59 -2.17,2.86 -3.3,3.81 -0.61,0.57 -1.32,1.16 -2.14,1.77zm-5.58 5.14l22.49 0 0 8.71 -22.49 0 0 -8.71zm19.23 5.85l0 -2.99 -15.92 0 0 2.99 15.92 0zm-14.25 3.23c1.13,1.23 2.17,2.64 3.09,4.26l6.46 0c1,-1.34 1.88,-2.76 2.62,-4.26l3.58 1.19c-0.69,1.18 -1.43,2.2 -2.25,3.07l8 0 0 2.86 -30.39 0 0 -2.86 8.27 0c-0.7,-0.98 -1.61,-2 -2.72,-3.07l3.33 -1.19z"/>
  <path id="_9" class="fil3" d="M294.64 30.27c-0.09,-0.43 -0.16,-0.89 -0.2,-1.36l-9.43 0 0 -3.13 12.83 0c0.55,6.74 1.99,12.04 4.32,15.89 2.29,3.92 5.58,7.56 9.86,10.92l-2.35 3.64c-4.92,-4.38 -8.4,-8.56 -10.45,-12.56 -1.23,-2.26 -2.26,-4.71 -3.1,-7.34 -1.07,3.69 -2.29,6.76 -3.68,9.19 -1.97,3.31 -5.32,6.83 -10.03,10.58l-2.39 -3.3c4.5,-3.36 7.76,-6.78 9.8,-10.28 1.95,-3.29 3.55,-7.37 4.8,-12.25z"/>
 </g>
</svg>
