<?xml version="1.0" encoding="UTF-8"?>
<!DOCTYPE svg PUBLIC "-//W3C//DTD SVG 1.1//EN" "http://www.w3.org/Graphics/SVG/1.1/DTD/svg11.dtd">
<!-- Creator: CorelDRAW 2021 (64-Bit Evaluation Version) -->
<svg xmlns="http://www.w3.org/2000/svg" xml:space="preserve" width="22.0799mm" height="5.1366mm" version="1.1" style="shape-rendering:geometricPrecision; text-rendering:geometricPrecision; image-rendering:optimizeQuality; fill-rule:evenodd; clip-rule:evenodd"
viewBox="0 0 642.73 149.52"
 xmlns:xlink="http://www.w3.org/1999/xlink"
 xmlns:xodm="http://www.corel.com/coreldraw/odm/2003">
 <defs>
  <style type="text/css">
   <![CDATA[
    .fil1 {fill:#FEFEFE}
    .fil3 {fill:#EEEEEF}
    .fil0 {fill:#DCDDDD}
    .fil2 {fill:#02B801}
    .fil4 {fill:#02B801;fill-rule:nonzero}
   ]]>
  </style>
 </defs>
 <g id="圖層_x0020_1">
  <metadata id="CorelCorpID_0Corel-Layer"/>
  <path class="fil0" d="M38.31 8.97l566.11 0c21.16,0 38.31,31.46 38.31,70.28 0,38.81 -17.15,70.28 -38.31,70.28l-566.11 0c-21.16,0 -38.31,-31.46 -38.31,-70.28 0,-38.81 17.15,-70.28 38.31,-70.28z"/>
  <path class="fil1" d="M38.31 0l566.11 0c21.16,0 38.31,31.46 38.31,70.28 0,38.81 -17.15,70.28 -38.31,70.28l-566.11 0c-21.16,0 -38.31,-31.46 -38.31,-70.28 0,-38.81 17.15,-70.28 38.31,-70.28z"/>
  <path class="fil2" d="M83.22 24.64c-17.53,1.19 -36.05,10.44 -42.34,27.8 -2.38,6.59 -2.52,13.47 -0.52,20.3 1.84,6.27 5.38,10.97 8.76,14.61 5.59,6.01 14.25,10.57 22.34,12.77 2.75,0.75 8.2,1.55 9.61,2.15 1.6,0.69 2.33,1.34 2.4,3.47 0.06,1.87 -0.34,3.65 -0.63,5.41 -0.26,1.58 -0.99,4.12 0.83,4.44 3.82,0.69 18.51,-9.99 22.46,-12.69 1.19,-0.81 2.18,-1.64 3.34,-2.47l6.54 -5.21c2.26,-2.08 3.68,-3.13 6.05,-5.57 1.94,-1.99 3.65,-3.92 5.47,-6.28 3.17,-4.14 6.2,-10 6.89,-16.62 1.38,-13.28 -5.29,-24.24 -14.9,-31.7 -8.59,-6.67 -22.07,-11.38 -36.31,-10.42z"/>
  <path class="fil1" d="M81.27 54.18l-0 20.18c0,1.7 0.85,1.33 3.79,1.33 1.62,0 1.44,-0.63 1.43,-2.16 -0.01,-2.96 -0.13,-8.57 0.02,-11.02 0.56,0.59 1,1.25 1.53,1.96 0.52,0.7 1.06,1.43 1.58,2.15 1.03,1.41 2.07,2.77 3.13,4.2 3.93,5.29 2.75,4.86 6.01,4.86 1.41,0 2.34,0.27 2.34,-1.33l0 -19.91c0,-1.8 -0.84,-1.47 -3.72,-1.46 -1.69,0.01 -1.5,0.64 -1.49,2.15 0.01,2.24 0.15,9.81 -0.05,11.02l-3.07 -4.06c-1.06,-1.45 -2.03,-2.73 -3.11,-4.22 -1.02,-1.39 -2.05,-2.74 -3.06,-4.13 -0.75,-1.04 -1.14,-0.76 -2.77,-0.76 -1.28,-0 -2.55,-0.36 -2.55,1.18z"/>
  <path class="fil1" d="M119.01 61.8l-9.46 -0.06 0.02 -3.57 9.11 0.01c1.32,-0.13 0.94,-1.4 0.95,-3.6 0.01,-2.08 -1.1,-1.59 -3.03,-1.59 -3.13,0 -6.27,0 -9.4,0 -3.31,-0 -2.84,-0.88 -2.84,6.44l-0 14.1c-0.01,2.37 0.1,2.16 2.42,2.16 3.13,-0.01 6.27,0 9.4,0 1.56,0 3.39,0.48 3.45,-1.18 0.04,-1.1 0.41,-3.7 -0.71,-3.99 -0.99,-0.25 -7.43,0.13 -9.31,-0.08l-0.01 -3.46c2.26,-0.21 5.51,-0.03 7.84,-0.03 1.86,0.01 2.21,0.1 2.2,-1.85 -0.01,-1.27 0.31,-2.77 -0.61,-3.3z"/>
  <path class="fil3" d="M59.92 70.46c-0.24,-1.84 -0.05,-10.98 -0.05,-14.07 0,-1.74 0.52,-3.39 -1.34,-3.4 -1.26,-0.01 -3.6,-0.4 -3.84,0.8l-0.03 19.06c0,2.12 -0.45,2.87 1.79,2.86 3.18,-0.02 6.37,-0 9.54,-0 4.1,0 3.91,0.63 3.93,-3.13 0.02,-3.11 -0.21,-1.9 -10,-2.1z"/>
  <path class="fil1" d="M72.78 54.18l-0 20.18c0,1.74 1.28,1.33 3.99,1.33 1.43,0 1.24,-0.86 1.23,-2.16l0 -17.28c0,-3.8 0.27,-3.27 -3.58,-3.25 -1.03,0 -1.64,0.09 -1.64,1.18z"/>
  <path class="fil2" d="M119.01 61.8c-0.21,-0.16 0.32,-0.15 -0.48,-0.19l-8.86 0 0.02 -3.36c0.27,0.03 8.43,0.21 8.97,-0.07l-9.11 -0.01 -0.02 3.57 9.46 0.06z"/>
  <polygon class="fil4" points="260.23,94.74 235.56,94.74 235.56,52.68 241.21,52.68 241.21,89.39 260.23,89.39 "/>
  <path id="_1" class="fil4" d="M279.86 58.04l-5.48 0 0 -5.41 5.48 0 0 5.41zm0 36.76l-5.48 0 0 -30.14 5.48 0 0 30.14z"/>
  <path id="_2" class="fil4" d="M317.36 94.74l-5.3 0 0 -19.85c0,-3.97 -1.88,-5.96 -5.66,-5.96 -2,0 -3.58,0.76 -4.76,2.28 -1.16,1.49 -1.73,3.36 -1.73,5.6l0 17.93 -5.36 0 0 -22.68c0,-1.68 -0.19,-4.15 -0.54,-7.39l5.47 0 0.19 1.92c2.04,-1.81 4.5,-2.7 7.34,-2.7 4.29,0 7.28,1.64 8.97,4.93 0.92,1.93 1.39,4.35 1.39,7.28l0 18.65z"/>
  <path id="_3" class="fil4" d="M351.61 81.26l-20.4 0c0.28,2.61 1.08,4.75 2.4,6.44 1.49,1.96 3.39,2.95 5.72,2.95 3.62,0 5.83,-1.83 6.67,-5.47l5.48 0c-0.52,3.16 -1.89,5.69 -4.1,7.58 -2.21,2 -4.97,3.01 -8.3,3.01 -4.25,0 -7.59,-1.56 -9.99,-4.69 -2.21,-2.93 -3.31,-6.72 -3.31,-11.37 0,-4.06 1.04,-7.63 3.12,-10.71 2.37,-3.41 5.59,-5.11 9.69,-5.11 4.38,0 7.76,1.78 10.16,5.35 2.04,3.17 2.99,7.18 2.83,12.04zm-5.54 -5.18c-0.55,-2.12 -1.46,-3.85 -2.7,-5.18 -1.32,-1.32 -2.9,-1.98 -4.69,-1.98 -3.78,0 -6.18,2.38 -7.23,7.16l14.62 0z"/>
  <path id="_4" class="fil4" d="M382.71 44.14l23.59 0c1.17,2 2.71,3.91 4.63,5.71 1.28,-0.64 2.52,-1.3 3.68,-1.98 1.44,-1 2.86,-2.29 4.27,-3.85l4.51 2.76c-1.68,2.14 -3.29,3.72 -4.81,4.76 -0.81,0.77 -1.83,1.45 -3.07,2.05 1.16,0.84 2.34,1.62 3.54,2.34 1.25,-0.6 2.44,-1.41 3.55,-2.4 1.45,-1.13 2.84,-2.61 4.21,-4.46l4.52 2.84c-1.64,2.32 -3.19,4.13 -4.63,5.41 -0.77,0.6 -1.55,1.18 -2.35,1.75 2.84,1.6 5.98,3.16 9.38,4.69l-3.43 4.87c-3.81,-1.68 -7.16,-3.37 -10.04,-5.05l0 1.81 -30.81 0 0 -1.56c-3.13,1.88 -6.7,3.79 -10.71,5.71l-3.43 -5.6c4.21,-1.73 7.86,-3.41 10.95,-5.05 -1.45,-1.48 -3.17,-3.03 -5.18,-4.63l3.79 -3.66c2.49,1.8 4.63,3.56 6.44,5.29 0.08,-0.04 0.14,-0.08 0.18,-0.11 2.72,-1.81 5.26,-4 7.58,-6.56l-16.37 0 0 -5.05zm12.04 16.18l20.46 0c-0.2,-0.17 -0.38,-0.3 -0.54,-0.42 -4.21,-2.84 -7.64,-6 -10.29,-9.45 -1.89,2.8 -3.83,5.05 -5.84,6.74 -1.08,1 -2.34,2.04 -3.79,3.13zm-9.87 9.09l39.77 0 0 15.4 -39.77 0 0 -15.4zm34 10.34l0 -5.29 -28.16 0 0 5.29 28.16 0zm-25.21 5.72c2,2.17 3.83,4.67 5.47,7.53l11.43 0c1.77,-2.37 3.32,-4.88 4.63,-7.53l6.33 2.1c-1.21,2.09 -2.53,3.89 -3.98,5.42l14.14 0 0 5.05 -53.74 0 0 -5.05 14.62 0c-1.24,-1.73 -2.84,-3.53 -4.81,-5.42l5.89 -2.1z"/>
  <path id="_5" class="fil4" d="M468.23 53.53c-0.16,-0.76 -0.28,-1.57 -0.36,-2.41l-16.67 0 0 -5.53 22.68 0c0.97,11.91 3.51,21.29 7.64,28.1 4.05,6.93 9.87,13.37 17.45,19.32l-4.15 6.44c-8.71,-7.74 -14.86,-15.15 -18.47,-22.21 -2.17,-4 -4,-8.34 -5.48,-12.99 -1.89,6.53 -4.05,11.95 -6.5,16.25 -3.49,5.85 -9.41,12.09 -17.75,18.71l-4.22 -5.83c7.95,-5.94 13.72,-12 17.33,-18.18 3.45,-5.81 6.28,-13.03 8.48,-21.66z"/>
 </g>
</svg>
