<?xml version="1.0" encoding="UTF-8"?>
<!DOCTYPE svg PUBLIC "-//W3C//DTD SVG 1.1//EN" "http://www.w3.org/Graphics/SVG/1.1/DTD/svg11.dtd">
<!-- Creator: CorelDRAW 2021 (64-Bit Evaluation Version) -->
<svg xmlns="http://www.w3.org/2000/svg" xml:space="preserve" width="31.5474mm" height="31.5474mm" version="1.1" style="shape-rendering:geometricPrecision; text-rendering:geometricPrecision; image-rendering:optimizeQuality; fill-rule:evenodd; clip-rule:evenodd"
viewBox="0 0 1620.23 1620.23"
 xmlns:xlink="http://www.w3.org/1999/xlink"
 xmlns:xodm="http://www.corel.com/coreldraw/odm/2003">
 <defs>
  <style type="text/css">
   <![CDATA[
    .fil0 {fill:#FEFEFE}
    .fil1 {fill:#004334}
    .fil2 {fill:#004334;fill-rule:nonzero}
   ]]>
  </style>
 </defs>
 <g id="圖層_x0020_1">
  <metadata id="CorelCorpID_0Corel-Layer"/>
  <g id="_2082643476256">
   <circle class="fil0" cx="810.12" cy="810.12" r="810.12"/>
   <path class="fil1" d="M832.39 1184.05c-7.35,-9.12 -7.54,-3.93 -16.17,-8.17 -49.29,-24.24 -12.46,-53.42 12.21,-90.9 13.22,-20.1 10.7,-17 9.58,-46.3 -0.69,-18.08 -0.36,-37.45 -0.37,-55.71l22.98 0.42 -0.2 -20.66c0.11,-0.43 0.48,-1.18 0.59,-1.52 2.98,-9.65 20.76,5.63 24.44,8.38 16.36,12.27 1.44,12.92 23.13,11.01 -0.95,30.12 1.42,53.82 1.4,81.5l-4.07 135.53c20.99,3.53 120.69,12.96 136.58,4.99 9,-4.51 9.71,-14.91 8.01,-26.81 -2.31,-16.12 -25.89,-31.66 -29.57,-44.55 -9.33,-32.68 -1.88,-201.41 -0.78,-252.84 0.51,-24.12 0.24,-49.21 2.57,-70.18l3.72 -32.53c0.67,-10.8 2.33,-22.01 3.93,-32.07 4.84,-30.31 15.98,-52.68 37.62,-73.22 52.11,-49.49 145.84,-8 190.91,-69.85 28.08,-38.54 15.73,-93.63 -28.17,-109.31 -27.27,-9.75 -15.41,-3.84 -41.15,-11.09 -13.44,-3.79 -36.41,-13.18 -47.69,-21.4l-21.21 -30.04c-8.49,-11.37 -12.96,-19.67 -27.18,-28.23 -15.97,-9.61 -25.58,-17.56 -43.16,-27.57 -3.05,-2.25 -6.91,-4.33 -9.99,-7.12 -3.11,-2.81 -6.27,-6.87 -9.56,-9.77 -23.07,-20.32 -54.43,-83.7 -66.99,-114.87 -18.45,-45.78 -53.13,45.33 -61.44,62.54l-25.72 57.79c-7.93,20.35 0.37,8.61 -29.74,27.98 -26.41,16.98 -17.97,17.17 -42.8,42.67 -54.28,55.79 -35.71,127.63 -77.74,204.42 -11.39,20.81 -57.6,70.73 -85.36,85.85 -46.4,25.28 -75.47,44.83 -110.06,86.45 -37.3,44.87 -29.82,45.06 -47.13,96.23 -7.54,22.31 -12.88,75 -11.69,101.4 1.22,27.15 9.52,70.92 16.43,96.87 11.96,44.84 29.54,89.7 79.9,89.47 55.85,-0.25 112.31,1.54 168.79,0.92 19.02,-0.21 38.12,1.52 53.43,1.2 15.56,-0.33 38.19,4.42 41.7,-10.89zm-47 -664.62c-1.87,18.01 -8.93,48.66 -13.9,65.87 -7.13,24.64 -43.4,87.57 -56.85,101.5 -32.5,33.68 -44.88,42.65 -87.68,70.79 -17.18,11.3 -30.83,19.74 -45.82,32.98l-50.95 57.86c-27.07,49.53 -41.05,112.22 -33.35,169.93 3.16,23.71 2.64,46.86 10.67,68.27 3.65,9.71 7.16,18.84 11.7,26.99 2.76,4.95 3.96,7.87 6.53,12.68 28.31,53.09 43.16,34.04 94.97,39.71 29.94,3.28 79.85,2.67 112.27,1.4 10.69,-18.74 13.69,-69.94 20.81,-93.25 13.08,-42.89 4.32,-58 2.42,-99.9 -10.79,-1.76 -10.9,-2.72 -17.46,-8.24 2.52,-20.45 10.07,0.43 14.45,-54.47 1.96,-24.5 3.43,-38.93 11.12,-59.64 7.89,-21.24 13.32,-26.85 29.49,-38.68 33.82,-24.78 35.64,1.74 29.17,-67.39 -1.15,-12.22 3.03,-15.04 17.96,-28.97 2.75,-2.57 1.16,-1.69 4.94,-3.71 26.45,-14.02 80.38,-15.01 87.6,7.48 5.46,17 14.7,39.46 -4.45,47.98 3.73,69.68 -12.47,55.48 -40.85,55.4 -2.07,5.93 -13.45,14.77 -7.51,43.16 4.69,22.46 28.1,43.01 41.34,61.63 14.87,20.9 11.74,28.67 11.07,41.46 -0.81,15.52 -0.3,35.51 -0.33,51.32 -0.09,47.25 -2.79,50 0.7,100.62 1.28,18.49 0.47,41.26 0.04,59.62l93.26 1.11c5.33,-15.09 -9.29,-12.77 -17.48,-27.14 -6.75,-11.86 -6.64,-24.89 -9.46,-39.8 -2.12,-11.22 -8.49,-25.65 -10.19,-35.83 -2.51,-15.01 0.92,-119.91 2.77,-135.09 1.67,-13.78 1.61,-30.09 3.2,-43.68 5.97,-50.76 -1.65,-87.65 6.83,-138.67 6.87,-41.31 10.31,-41.59 20.74,-75.93 3.42,-11.25 10.86,-18.74 19.31,-27.05 12.37,-12.19 48.4,-30.92 62.74,-33.29l42.33 -6.15c8.62,-1 15.61,-0.07 23.43,-1.01 5.93,-0.71 11.89,-3.06 19.05,-4.31 22.72,-3.97 46.24,-17.56 55.83,-40.23 6.54,-15.45 8.74,-24.33 3.87,-39.77 -4.01,-12.76 -10.06,-22.36 -20.21,-27.1 -32.98,-15.4 -91,-6.59 -112.73,-45.26 -0.31,-0.58 -1.26,-2.21 -1.59,-2.77l-12.12 -17.87c-23.24,-24.83 -17.76,-27.54 -54.28,-41.89 -32.84,-12.91 -87.68,-96.09 -99.77,-130.94 -0.28,-0.8 -1.47,-3.87 -1.77,-4.5 -5.62,-11.63 -45.08,104.97 -51.14,120.6 -1.12,2.64 -1.68,4.18 -3.03,7.68 -7.59,19.75 -23.86,4.58 -49.37,23.33 -6.97,5.13 -24.03,26.34 -29.2,34.89 -11.96,19.75 -26.33,41.52 -29.12,68.29z"/>
   <path class="fil2" d="M361.33 1233.84c11.71,0 21.75,2.36 30.13,7.12 8.38,4.73 14.73,11.47 19.04,20.22 4.3,8.75 6.46,19.02 6.46,30.81 0,8.72 -1.19,16.65 -3.55,23.77 -2.36,7.14 -5.88,13.32 -10.61,18.54 -4.73,5.23 -10.5,9.22 -17.38,12 -6.88,2.76 -14.73,4.15 -23.61,4.15 -8.82,0 -16.73,-1.42 -23.69,-4.28 -6.98,-2.84 -12.79,-6.86 -17.47,-12.03 -4.67,-5.18 -8.19,-11.4 -10.59,-18.7 -2.39,-7.27 -3.57,-15.15 -3.57,-23.61 0,-8.66 1.23,-16.6 3.73,-23.85 2.5,-7.23 6.09,-13.37 10.82,-18.46 4.7,-5.07 10.45,-8.96 17.23,-11.64 6.75,-2.7 14.45,-4.04 23.06,-4.04zm32.46 57.99c0,-8.25 -1.34,-15.42 -3.99,-21.48 -2.68,-6.04 -6.49,-10.61 -11.43,-13.74 -4.94,-3.1 -10.64,-4.65 -17.05,-4.65 -4.54,0 -8.77,0.87 -12.63,2.57 -3.89,1.74 -7.23,4.23 -10.01,7.51 -2.78,3.28 -4.99,7.48 -6.62,12.58 -1.6,5.12 -2.42,10.85 -2.42,17.2 0,6.44 0.82,12.21 2.42,17.42 1.63,5.17 3.91,9.48 6.85,12.89 2.94,3.42 6.33,5.96 10.14,7.65 3.84,1.71 8.01,2.55 12.58,2.55 5.85,0 11.21,-1.47 16.13,-4.39 4.88,-2.92 8.77,-7.44 11.68,-13.55 2.89,-6.1 4.33,-13.63 4.33,-22.56z"/>
   <path id="_1" class="fil2" d="M442.96 1337.68l0 -91.08c0,-4.2 0.95,-7.38 2.81,-9.53 1.86,-2.16 4.39,-3.23 7.57,-3.23 3.15,0 5.73,1.07 7.67,3.2 1.95,2.13 2.92,5.31 2.92,9.56l0 91.08c0,4.25 -1,7.43 -2.97,9.56 -1.97,2.13 -4.51,3.2 -7.62,3.2 -3.07,0 -5.57,-1.1 -7.48,-3.31 -1.92,-2.21 -2.89,-5.36 -2.89,-9.46z"/>
   <path id="_2" class="fil2" d="M551.06 1338.44l0 -2.07c-2.81,3.23 -5.59,5.86 -8.35,7.88 -2.73,2.02 -5.73,3.57 -8.93,4.62 -3.2,1.05 -6.7,1.58 -10.51,1.58 -5.02,0 -9.67,-1.07 -13.94,-3.2 -4.28,-2.13 -8.01,-5.15 -11.14,-9.11 -3.12,-3.94 -5.49,-8.59 -7.12,-13.92 -1.6,-5.33 -2.41,-11.11 -2.41,-17.31 0,-13.13 3.2,-23.37 9.61,-30.7 6.4,-7.32 14.86,-11 25.31,-11 6.07,0 11.17,1.05 15.32,3.12 4.15,2.07 8.22,5.28 12.16,9.61l0 -31.02c0,-4.3 0.87,-7.56 2.58,-9.77 1.73,-2.2 4.18,-3.31 7.35,-3.31 3.18,0 5.62,1.02 7.35,3.05 1.71,2.02 2.57,5.02 2.57,8.96l0 92.6c0,3.99 -0.92,7.02 -2.75,9.01 -1.87,2 -4.26,2.99 -7.17,2.99 -2.86,0 -5.25,-1.05 -7.11,-3.12 -1.86,-2.07 -2.81,-5.04 -2.81,-8.88zm-41.29 -30.83c0,5.7 0.89,10.53 2.66,14.55 1.76,3.99 4.18,6.98 7.28,9.01 3.07,2.02 6.43,3.05 10.06,3.05 3.7,0 7.07,-0.97 10.11,-2.89 3.05,-1.92 5.49,-4.86 7.3,-8.82 1.81,-3.99 2.73,-8.93 2.73,-14.89 0,-5.57 -0.92,-10.37 -2.73,-14.4 -1.81,-4.04 -4.28,-7.12 -7.38,-9.24 -3.1,-2.13 -6.49,-3.18 -10.19,-3.18 -3.83,0 -7.27,1.08 -10.29,3.26 -3.02,2.18 -5.36,5.31 -7.04,9.38 -1.65,4.1 -2.5,8.82 -2.5,14.19z"/>
   <path id="_3" class="fil2" d="M739.64 1253.37l-45.02 0 0 28.84 37.64 0c3.47,0 6.1,0.79 7.8,2.34 1.71,1.57 2.57,3.68 2.57,6.28 0,2.62 -0.86,4.7 -2.6,6.25 -1.76,1.55 -4.36,2.31 -7.78,2.31l-37.64 0 0 37.14c0,4.73 -1.07,8.22 -3.2,10.5 -2.13,2.29 -4.86,3.42 -8.17,3.42 -3.39,0 -6.15,-1.16 -8.27,-3.47 -2.13,-2.31 -3.2,-5.8 -3.2,-10.45l0 -86.8c0,-3.29 0.5,-5.96 1.47,-8.04 0.97,-2.07 2.49,-3.6 4.57,-4.55 2.07,-0.95 4.73,-1.42 7.96,-1.42l53.87 0c3.65,0 6.36,0.82 8.12,2.41 1.76,1.63 2.65,3.76 2.65,6.36 0,2.68 -0.89,4.83 -2.65,6.46 -1.76,1.6 -4.47,2.41 -8.12,2.41z"/>
   <path id="_4" class="fil2" d="M788.67 1320.14l0 17.54c0,4.25 -1,7.43 -2.99,9.56 -1.99,2.13 -4.51,3.2 -7.59,3.2 -3.02,0 -5.51,-1.07 -7.46,-3.23 -1.94,-2.15 -2.92,-5.33 -2.92,-9.53l0 -58.49c0,-9.42 3.42,-14.15 10.22,-14.15 3.47,0 5.99,1.1 7.51,3.31 1.55,2.21 2.39,5.49 2.55,9.8 2.5,-4.31 5.07,-7.59 7.72,-9.8 2.65,-2.2 6.17,-3.31 10.59,-3.31 4.41,0 8.69,1.1 12.84,3.31 4.15,2.21 6.22,5.15 6.22,8.8 0,2.58 -0.86,4.68 -2.65,6.36 -1.76,1.68 -3.68,2.5 -5.73,2.5 -0.76,0 -2.62,-0.47 -5.57,-1.42 -2.97,-0.95 -5.57,-1.42 -7.83,-1.42 -3.07,0 -5.57,0.81 -7.54,2.41 -1.94,1.63 -3.47,4.02 -4.54,7.2 -1.08,3.18 -1.81,6.96 -2.23,11.35 -0.4,4.39 -0.61,9.72 -0.61,16.02z"/>
   <path id="_5" class="fil2" d="M865.73 1276.96l0 60.72c0,4.2 -1,7.38 -2.99,9.53 -2,2.16 -4.52,3.23 -7.59,3.23 -3.07,0 -5.57,-1.1 -7.48,-3.31 -1.92,-2.21 -2.89,-5.36 -2.89,-9.46l0 -60.09c0,-4.18 0.97,-7.3 2.89,-9.4 1.92,-2.1 4.41,-3.15 7.48,-3.15 3.07,0 5.59,1.05 7.59,3.15 2,2.1 2.99,5.04 2.99,8.77zm-10.37 -21.69c-2.92,0 -5.41,-0.89 -7.48,-2.68 -2.07,-1.79 -3.1,-4.33 -3.1,-7.62 0,-2.94 1.05,-5.38 3.18,-7.3 2.13,-1.92 4.6,-2.89 7.41,-2.89 2.73,0 5.12,0.87 7.22,2.6 2.1,1.76 3.15,4.28 3.15,7.59 0,3.23 -1.02,5.75 -3.07,7.57 -2.05,1.81 -4.47,2.73 -7.3,2.73z"/>
   <path id="_6" class="fil2" d="M953.95 1312.94l-41.1 0c0.05,4.78 1.02,8.98 2.89,12.63 1.87,3.65 4.36,6.38 7.46,8.22 3.1,1.86 6.54,2.78 10.27,2.78 2.52,0 4.81,-0.29 6.88,-0.89 2.1,-0.58 4.1,-1.49 6.04,-2.76 1.97,-1.26 3.76,-2.6 5.39,-4.04 1.65,-1.45 3.78,-3.39 6.4,-5.86 1.08,-0.92 2.6,-1.39 4.6,-1.39 2.16,0 3.91,0.61 5.25,1.79 1.31,1.16 2,2.84 2,4.99 0,1.89 -0.77,4.09 -2.23,6.64 -1.49,2.52 -3.73,4.97 -6.75,7.28 -2.99,2.34 -6.75,4.28 -11.29,5.8 -4.55,1.55 -9.77,2.31 -15.65,2.31 -13.5,0 -23.98,-3.86 -31.46,-11.56 -7.49,-7.69 -11.22,-18.12 -11.22,-31.31 0,-6.19 0.92,-11.97 2.76,-17.28 1.84,-5.31 4.55,-9.85 8.06,-13.66 3.54,-3.78 7.9,-6.7 13.08,-8.72 5.17,-2.02 10.92,-3.05 17.23,-3.05 8.22,0 15.26,1.74 21.12,5.2 5.88,3.47 10.27,7.93 13.21,13.45 2.92,5.49 4.39,11.08 4.39,16.78 0,5.28 -1.52,8.72 -4.55,10.3 -3.02,1.55 -7.27,2.34 -12.76,2.34zm-41.1 -11.98l38.08 0c-0.5,-7.17 -2.44,-12.53 -5.8,-16.1 -3.36,-3.54 -7.78,-5.33 -13.27,-5.33 -5.25,0 -9.53,1.81 -12.9,5.41 -3.36,3.63 -5.41,8.96 -6.12,16.02z"/>
   <path id="_7" class="fil2" d="M1015.89 1276.64l0 2.55c3.7,-4.88 7.74,-8.45 12.13,-10.74 4.39,-2.29 9.43,-3.42 15.13,-3.42 5.54,0 10.48,1.21 14.86,3.63 4.36,2.39 7.62,5.8 9.77,10.22 1.4,2.57 2.29,5.33 2.71,8.33 0.4,2.97 0.61,6.75 0.61,11.37l0 39.11c0,4.2 -0.97,7.38 -2.89,9.53 -1.92,2.16 -4.44,3.23 -7.51,3.23 -3.13,0 -5.68,-1.1 -7.64,-3.31 -1.95,-2.21 -2.92,-5.36 -2.92,-9.46l0 -35.04c0,-6.91 -0.97,-12.21 -2.89,-15.89 -1.92,-3.65 -5.75,-5.49 -11.5,-5.49 -3.73,0 -7.14,1.1 -10.25,3.34 -3.07,2.23 -5.33,5.31 -6.75,9.22 -1.02,3.12 -1.55,8.96 -1.55,17.54l0 26.32c0,4.25 -1,7.43 -2.97,9.56 -1.97,2.13 -4.51,3.2 -7.62,3.2 -3.02,0 -5.52,-1.1 -7.46,-3.31 -1.94,-2.21 -2.92,-5.36 -2.92,-9.46l0 -60.72c0,-4 0.87,-6.99 2.6,-8.96 1.76,-1.97 4.12,-2.97 7.14,-2.97 1.84,0 3.52,0.45 4.99,1.31 1.5,0.86 2.68,2.18 3.57,3.91 0.89,1.73 1.34,3.89 1.34,6.38z"/>
   <path id="_8" class="fil2" d="M1157.45 1338.44l0 -2.07c-2.81,3.23 -5.59,5.86 -8.35,7.88 -2.73,2.02 -5.73,3.57 -8.93,4.62 -3.2,1.05 -6.7,1.58 -10.51,1.58 -5.02,0 -9.67,-1.07 -13.94,-3.2 -4.28,-2.13 -8.01,-5.15 -11.14,-9.11 -3.12,-3.94 -5.49,-8.59 -7.12,-13.92 -1.6,-5.33 -2.41,-11.11 -2.41,-17.31 0,-13.13 3.2,-23.37 9.61,-30.7 6.4,-7.32 14.86,-11 25.31,-11 6.07,0 11.17,1.05 15.32,3.12 4.15,2.07 8.22,5.28 12.16,9.61l0 -31.02c0,-4.3 0.87,-7.56 2.58,-9.77 1.73,-2.2 4.18,-3.31 7.35,-3.31 3.18,0 5.62,1.02 7.35,3.05 1.71,2.02 2.57,5.02 2.57,8.96l0 92.6c0,3.99 -0.92,7.02 -2.75,9.01 -1.87,2 -4.26,2.99 -7.17,2.99 -2.86,0 -5.25,-1.05 -7.11,-3.12 -1.86,-2.07 -2.81,-5.04 -2.81,-8.88zm-41.29 -30.83c0,5.7 0.89,10.53 2.66,14.55 1.76,3.99 4.18,6.98 7.28,9.01 3.07,2.02 6.43,3.05 10.06,3.05 3.7,0 7.07,-0.97 10.11,-2.89 3.05,-1.92 5.49,-4.86 7.3,-8.82 1.81,-3.99 2.73,-8.93 2.73,-14.89 0,-5.57 -0.92,-10.37 -2.73,-14.4 -1.81,-4.04 -4.28,-7.12 -7.38,-9.24 -3.1,-2.13 -6.49,-3.18 -10.19,-3.18 -3.83,0 -7.27,1.08 -10.29,3.26 -3.02,2.18 -5.36,5.31 -7.04,9.38 -1.65,4.1 -2.5,8.82 -2.5,14.19z"/>
   <path id="_9" class="fil2" d="M1273.9 1323.03c0,5.78 -1.42,10.74 -4.23,14.87 -2.81,4.12 -6.98,7.25 -12.5,9.37 -5.52,2.13 -12.21,3.18 -20.12,3.18 -7.53,0 -14,-1.16 -19.38,-3.47 -5.38,-2.29 -9.35,-5.17 -11.92,-8.64 -2.55,-3.44 -3.84,-6.91 -3.84,-10.4 0,-2.31 0.82,-4.28 2.47,-5.91 1.63,-1.65 3.7,-2.47 6.22,-2.47 2.2,0 3.89,0.55 5.07,1.63 1.18,1.08 2.31,2.58 3.38,4.55 2.16,3.73 4.73,6.54 7.72,8.38 2.99,1.86 7.09,2.78 12.26,2.78 4.2,0 7.64,-0.95 10.32,-2.81 2.71,-1.86 4.04,-4.02 4.04,-6.44 0,-3.7 -1.39,-6.38 -4.18,-8.09 -2.81,-1.68 -7.41,-3.31 -13.82,-4.86 -7.22,-1.78 -13.1,-3.68 -17.65,-5.64 -4.52,-1.97 -8.14,-4.6 -10.87,-7.83 -2.71,-3.23 -4.07,-7.22 -4.07,-11.93 0,-4.23 1.26,-8.19 3.75,-11.95 2.52,-3.75 6.22,-6.72 11.14,-8.95 4.88,-2.23 10.79,-3.36 17.72,-3.36 5.44,0 10.32,0.55 14.63,1.68 4.33,1.13 7.96,2.66 10.85,4.55 2.92,1.92 5.12,4.02 6.62,6.33 1.52,2.31 2.28,4.55 2.28,6.78 0,2.39 -0.81,4.39 -2.44,5.91 -1.6,1.55 -3.91,2.31 -6.88,2.31 -2.15,0 -3.99,-0.6 -5.52,-1.84 -1.49,-1.23 -3.23,-3.07 -5.2,-5.54 -1.58,-2.04 -3.44,-3.7 -5.6,-4.94 -2.15,-1.23 -5.07,-1.84 -8.77,-1.84 -3.78,0 -6.93,0.82 -9.46,2.42 -2.49,1.63 -3.75,3.65 -3.75,6.07 0,2.2 0.92,4.02 2.76,5.41 1.86,1.42 4.33,2.6 7.46,3.52 3.13,0.92 7.44,2.04 12.92,3.38 6.52,1.58 11.85,3.49 15.97,5.7 4.12,2.2 7.25,4.81 9.37,7.83 2.13,2.99 3.2,6.41 3.2,10.27z"/>
  </g>
 </g>
</svg>
