<?xml version="1.0" encoding="UTF-8"?>
<!DOCTYPE svg PUBLIC "-//W3C//DTD SVG 1.1//EN" "http://www.w3.org/Graphics/SVG/1.1/DTD/svg11.dtd">
<!-- Creator: CorelDRAW 2021 (64-Bit Evaluation Version) -->
<svg xmlns="http://www.w3.org/2000/svg" xml:space="preserve" width="34.922mm" height="5.4884mm" version="1.1" style="shape-rendering:geometricPrecision; text-rendering:geometricPrecision; image-rendering:optimizeQuality; fill-rule:evenodd; clip-rule:evenodd"
viewBox="0 0 1038.67 163.24"
 xmlns:xlink="http://www.w3.org/1999/xlink"
 xmlns:xodm="http://www.corel.com/coreldraw/odm/2003">
 <defs>
  <style type="text/css">
   <![CDATA[
    .str0 {stroke:#56AAB7;stroke-width:2.27;stroke-miterlimit:22.9256}
    .fil1 {fill:#ECF6F3}
    .fil0 {fill:#BAE0D6}
   ]]>
  </style>
 </defs>
 <g id="圖層_x0020_1">
  <metadata id="CorelCorpID_0Corel-Layer"/>
  <path class="fil0" d="M62.91 21.58l912.85 0c34.12,0 61.78,31.71 61.78,70.83 0,39.12 -27.66,70.83 -61.78,70.83l-912.85 0c-34.12,0 -61.78,-31.71 -61.78,-70.83 0,-39.12 27.66,-70.83 61.78,-70.83z"/>
  <path class="fil1 str0" d="M62.91 1.13l912.85 0c34.12,0 61.78,31.71 61.78,70.83 0,39.12 -27.66,70.83 -61.78,70.83l-912.85 0c-34.12,0 -61.78,-31.71 -61.78,-70.83 0,-39.12 27.66,-70.83 61.78,-70.83z"/>
 </g>
</svg>
