<?xml version="1.0" encoding="UTF-8"?>
<!DOCTYPE svg PUBLIC "-//W3C//DTD SVG 1.1//EN" "http://www.w3.org/Graphics/SVG/1.1/DTD/svg11.dtd">
<!-- Creator: CorelDRAW 2021 (64-Bit Evaluation Version) -->
<svg xmlns="http://www.w3.org/2000/svg" xml:space="preserve" width="34.8458mm" height="5.1432mm" version="1.1" style="shape-rendering:geometricPrecision; text-rendering:geometricPrecision; image-rendering:optimizeQuality; fill-rule:evenodd; clip-rule:evenodd"
viewBox="0 0 1034.81 152.74"
 xmlns:xlink="http://www.w3.org/1999/xlink"
 xmlns:xodm="http://www.corel.com/coreldraw/odm/2003">
 <defs>
  <style type="text/css">
   <![CDATA[
    .fil1 {fill:#56AAB7}
    .fil0 {fill:#449294}
    .fil2 {fill:#FEFEFE;fill-rule:nonzero}
   ]]>
  </style>
 </defs>
 <g id="圖層_x0020_1">
  <metadata id="CorelCorpID_0Corel-Layer"/>
  <path class="fil0" d="M61.68 11.3l911.45 0c34.07,0 61.68,31.66 61.68,70.72 0,39.06 -27.62,70.72 -61.68,70.72l-911.45 0c-34.07,0 -61.68,-31.66 -61.68,-70.72 0,-39.06 27.62,-70.72 61.68,-70.72z"/>
  <path class="fil1" d="M61.68 0l911.45 0c34.07,0 61.68,31.66 61.68,70.72 0,39.06 -27.62,70.72 -61.68,70.72l-911.45 0c-34.07,0 -61.68,-31.66 -61.68,-70.72 0,-39.06 27.62,-70.72 61.68,-70.72z"/>
  <path class="fil2" d="M430.48 37.01l32.08 0c1.59,2.72 3.69,5.32 6.3,7.77 1.74,-0.87 3.42,-1.77 5,-2.7 1.96,-1.37 3.9,-3.12 5.81,-5.24l6.13 3.76c-2.29,2.9 -4.47,5.05 -6.54,6.47 -1.1,1.05 -2.49,1.97 -4.18,2.79 1.58,1.15 3.19,2.21 4.82,3.19 1.7,-0.81 3.31,-1.92 4.83,-3.27 1.97,-1.54 3.87,-3.55 5.73,-6.06l6.15 3.85c-2.24,3.16 -4.34,5.62 -6.3,7.36 -1.05,0.81 -2.11,1.61 -3.2,2.37 3.87,2.18 8.13,4.3 12.77,6.38l-4.67 6.62c-5.18,-2.29 -9.73,-4.58 -13.66,-6.87l0 2.46 -41.91 0 0 -2.12c-4.26,2.56 -9.12,5.16 -14.57,7.77l-4.67 -7.61c5.73,-2.35 10.69,-4.64 14.89,-6.87 -1.97,-2.01 -4.31,-4.12 -7.04,-6.3l5.15 -4.99c3.39,2.44 6.3,4.85 8.76,7.19 0.11,-0.05 0.19,-0.11 0.25,-0.15 3.7,-2.46 7.15,-5.43 10.31,-8.93l-22.27 0 0 -6.87zm16.37 22.01l27.82 0c-0.26,-0.22 -0.52,-0.41 -0.72,-0.57 -5.73,-3.87 -10.39,-8.16 -14,-12.85 -2.57,3.81 -5.21,6.87 -7.95,9.16 -1.47,1.37 -3.18,2.78 -5.15,4.26zm-13.43 12.36l54.1 0 0 20.95 -54.1 0 0 -20.95zm46.25 14.06l0 -7.19 -38.3 0 0 7.19 38.3 0zm-34.29 7.78c2.72,2.95 5.21,6.36 7.45,10.24l15.55 0c2.4,-3.23 4.51,-6.63 6.3,-10.24l8.61 2.86c-1.65,2.84 -3.44,5.29 -5.41,7.38l19.23 0 0 6.87 -73.1 0 0 -6.87 19.89 0c-1.69,-2.35 -3.87,-4.8 -6.54,-7.38l8.02 -2.86z"/>
  <path id="_1" class="fil2" d="M546.8 49.77c-0.23,-1.03 -0.38,-2.14 -0.49,-3.28l-22.67 0 0 -7.53 30.86 0c1.31,16.21 4.78,28.96 10.39,38.23 5.52,9.43 13.42,18.19 23.73,26.28l-5.64 8.76c-11.85,-10.53 -20.21,-20.6 -25.13,-30.21 -2.95,-5.45 -5.43,-11.34 -7.45,-17.67 -2.57,8.88 -5.52,16.26 -8.84,22.1 -4.75,7.96 -12.8,16.44 -24.14,25.45l-5.74 -7.94c10.81,-8.07 18.66,-16.31 23.58,-24.72 4.7,-7.91 8.53,-17.73 11.54,-29.46z"/>
 </g>
</svg>
