<?xml version="1.0" encoding="UTF-8"?>
<!DOCTYPE svg PUBLIC "-//W3C//DTD SVG 1.1//EN" "http://www.w3.org/Graphics/SVG/1.1/DTD/svg11.dtd">
<!-- Creator: CorelDRAW 2021 (64-Bit Evaluation Version) -->
<svg xmlns="http://www.w3.org/2000/svg" xml:space="preserve" width="31.547mm" height="31.547mm" version="1.1" style="shape-rendering:geometricPrecision; text-rendering:geometricPrecision; image-rendering:optimizeQuality; fill-rule:evenodd; clip-rule:evenodd"
viewBox="0 0 818.79 818.79"
 xmlns:xlink="http://www.w3.org/1999/xlink"
 xmlns:xodm="http://www.corel.com/coreldraw/odm/2003">
 <defs>
  <style type="text/css">
   <![CDATA[
    .fil2 {fill:none}
    .fil0 {fill:#ECF6F3}
    .fil1 {fill:#ECF6F3;fill-rule:nonzero}
   ]]>
  </style>
 </defs>
 <g id="圖層_x0020_1">
  <metadata id="CorelCorpID_0Corel-Layer"/>
  <path class="fil0" d="M432.41 624.72c-4.01,-4.98 -4.11,-2.14 -8.82,-4.46 -26.9,-13.22 -6.8,-29.15 6.66,-49.6 7.22,-10.97 5.84,-9.28 5.23,-25.26 -0.38,-9.87 -0.2,-20.44 -0.2,-30.4l12.54 0.23 -0.11 -11.27c0.06,-0.23 0.26,-0.64 0.32,-0.83 1.63,-5.26 11.33,3.07 13.34,4.58 8.93,6.7 0.78,7.05 12.62,6.01 -0.52,16.43 0.77,29.37 0.76,44.47l-2.22 73.95c11.45,1.93 65.86,7.07 74.53,2.72 4.91,-2.46 5.29,-8.13 4.37,-14.63 -1.26,-8.79 -14.13,-17.28 -16.13,-24.31 -5.09,-17.83 -1.03,-109.9 -0.43,-137.97 0.28,-13.16 0.13,-26.86 1.41,-38.29l2.03 -17.75c0.37,-5.9 1.27,-12.01 2.15,-17.5 2.64,-16.54 8.72,-28.74 20.52,-39.95 28.44,-27.01 79.58,-4.36 104.18,-38.12 15.32,-21.03 8.58,-51.09 -15.37,-59.65 -14.88,-5.32 -8.4,-2.09 -22.46,-6.05 -7.33,-2.06 -19.87,-7.19 -26.02,-11.67l-11.57 -16.39c-4.63,-6.2 -7.07,-10.73 -14.83,-15.4 -8.72,-5.25 -13.96,-9.59 -23.55,-15.04 -1.67,-1.23 -3.77,-2.36 -5.46,-3.89 -1.69,-1.53 -3.42,-3.75 -5.22,-5.33 -12.59,-11.09 -29.7,-45.68 -36.55,-62.68 -10.07,-24.98 -28.99,24.74 -33.53,34.13l-14.03 31.53c-4.33,11.1 0.2,4.7 -16.23,15.27 -14.41,9.27 -9.81,9.37 -23.35,23.29 -29.62,30.44 -19.48,69.65 -42.42,111.55 -6.21,11.35 -31.43,38.59 -46.58,46.85 -25.32,13.79 -41.18,24.46 -60.06,47.18 -20.35,24.48 -16.27,24.59 -25.72,52.51 -4.12,12.18 -7.03,40.93 -6.38,55.33 0.67,14.81 5.2,38.7 8.97,52.86 6.52,24.46 16.12,48.95 43.6,48.82 30.48,-0.13 61.29,0.84 92.1,0.5 10.38,-0.11 20.8,0.83 29.15,0.65 8.49,-0.18 20.84,2.41 22.76,-5.94zm-25.64 -362.66c-1.03,9.82 -4.87,26.55 -7.59,35.94 -3.89,13.44 -23.68,47.78 -31.02,55.39 -17.73,18.38 -24.49,23.27 -47.84,38.63 -9.38,6.17 -16.82,10.77 -25,17.99l-27.8 31.57c-14.77,27.03 -22.4,61.24 -18.2,92.73 1.73,12.94 1.44,25.57 5.82,37.25 1.99,5.3 3.91,10.28 6.39,14.73 1.51,2.7 2.16,4.29 3.56,6.92 15.45,28.97 23.55,18.58 51.82,21.67 16.34,1.79 43.57,1.46 61.26,0.76 5.84,-10.22 7.47,-38.16 11.35,-50.88 7.14,-23.41 2.36,-31.65 1.32,-54.51 -5.89,-0.96 -5.95,-1.48 -9.53,-4.5 1.37,-11.16 5.49,0.23 7.88,-29.72 1.07,-13.37 1.87,-21.25 6.07,-32.54 4.31,-11.59 7.27,-14.65 16.09,-21.11 18.46,-13.52 19.45,0.95 15.92,-36.77 -0.63,-6.67 1.66,-8.21 9.8,-15.81 1.5,-1.4 0.63,-0.93 2.7,-2.02 14.44,-7.65 43.86,-8.19 47.8,4.08 2.98,9.28 8.02,21.53 -2.43,26.18 2.04,38.02 -6.8,30.28 -22.29,30.23 -1.13,3.24 -7.34,8.06 -4.1,23.55 2.56,12.26 15.33,23.47 22.56,33.63 8.12,11.41 6.41,15.65 6.04,22.62 -0.44,8.47 -0.16,19.38 -0.18,28 -0.05,25.78 -1.52,27.28 0.38,54.9 0.7,10.09 0.26,22.52 0.02,32.53l50.89 0.61c2.9,-8.24 -5.07,-6.97 -9.54,-14.81 -3.68,-6.47 -3.62,-13.58 -5.16,-21.72 -1.16,-6.12 -4.64,-13.99 -5.56,-19.55 -1.37,-8.19 0.51,-65.43 1.51,-73.72 0.91,-7.52 0.88,-16.42 1.75,-23.83 3.26,-27.7 -0.9,-47.83 3.72,-75.67 3.75,-22.54 5.62,-22.69 11.32,-41.44 1.86,-6.14 5.93,-10.22 10.54,-14.76 6.75,-6.65 26.41,-16.87 34.24,-18.16l23.1 -3.36c4.71,-0.55 8.52,-0.04 12.78,-0.55 3.24,-0.39 6.49,-1.67 10.4,-2.35 12.4,-2.17 25.23,-9.58 30.47,-21.95 3.57,-8.43 4.77,-13.28 2.11,-21.7 -2.19,-6.96 -5.49,-12.2 -11.03,-14.79 -18,-8.4 -49.66,-3.6 -61.51,-24.7 -0.17,-0.31 -0.69,-1.2 -0.86,-1.51l-6.61 -9.75c-12.68,-13.55 -9.69,-15.03 -29.62,-22.86 -17.92,-7.05 -47.84,-52.43 -54.44,-71.45 -0.15,-0.43 -0.8,-2.11 -0.97,-2.46 -3.07,-6.34 -24.6,57.28 -27.9,65.81 -0.61,1.44 -0.92,2.28 -1.65,4.19 -4.14,10.78 -13.02,2.5 -26.94,12.74 -3.8,2.8 -13.11,14.37 -15.94,19.04 -6.52,10.78 -14.37,22.66 -15.88,37.27z"/>
  <path class="fil1" d="M175.36 651.9c6.39,0 11.86,1.29 16.43,3.88 4.57,2.58 8.04,6.26 10.39,11.04 2.35,4.77 3.52,10.37 3.52,16.81 0,4.76 -0.64,9.08 -1.93,12.97 -1.29,3.9 -3.21,7.26 -5.79,10.12 -2.58,2.85 -5.73,5.03 -9.49,6.55 -3.75,1.51 -8.04,2.27 -12.88,2.27 -4.81,0 -9.13,-0.78 -12.93,-2.34 -3.81,-1.55 -6.98,-3.74 -9.53,-6.56 -2.55,-2.82 -4.47,-6.22 -5.77,-10.2 -1.31,-3.97 -1.95,-8.27 -1.95,-12.88 0,-4.73 0.67,-9.06 2.03,-13.01 1.36,-3.94 3.32,-7.3 5.9,-10.08 2.57,-2.76 5.7,-4.88 9.4,-6.35 3.68,-1.48 7.88,-2.21 12.58,-2.21zm17.71 31.64c0,-4.5 -0.73,-8.41 -2.18,-11.72 -1.46,-3.29 -3.54,-5.79 -6.23,-7.49 -2.69,-1.69 -5.8,-2.54 -9.3,-2.54 -2.48,0 -4.79,0.47 -6.89,1.4 -2.12,0.94 -3.94,2.31 -5.46,4.1 -1.52,1.79 -2.72,4.08 -3.61,6.86 -0.87,2.8 -1.32,5.92 -1.32,9.39 0,3.51 0.44,6.66 1.32,9.5 0.89,2.82 2.14,5.17 3.74,7.04 1.6,1.86 3.45,3.25 5.53,4.17 2.09,0.93 4.37,1.39 6.86,1.39 3.2,0 6.12,-0.8 8.8,-2.39 2.67,-1.59 4.79,-4.05 6.38,-7.39 1.58,-3.32 2.36,-7.44 2.36,-12.31z"/>
  <path id="_1" class="fil1" d="M219.9 708.56l0 -49.7c0,-2.29 0.51,-4.03 1.53,-5.2 1.02,-1.17 2.39,-1.76 4.13,-1.76 1.72,0 3.12,0.59 4.19,1.75 1.06,1.16 1.59,2.89 1.59,5.21l0 49.7c0,2.32 -0.54,4.06 -1.62,5.22 -1.07,1.16 -2.47,1.75 -4.16,1.75 -1.67,0 -3.04,-0.6 -4.08,-1.81 -1.05,-1.2 -1.58,-2.92 -1.58,-5.16z"/>
  <path id="_2" class="fil1" d="M278.88 708.97l0 -1.13c-1.53,1.76 -3.05,3.2 -4.56,4.3 -1.49,1.1 -3.12,1.95 -4.87,2.52 -1.75,0.57 -3.65,0.86 -5.73,0.86 -2.74,0 -5.27,-0.59 -7.61,-1.75 -2.34,-1.16 -4.37,-2.81 -6.08,-4.97 -1.71,-2.15 -3,-4.68 -3.88,-7.59 -0.87,-2.91 -1.32,-6.06 -1.32,-9.44 0,-7.17 1.75,-12.75 5.24,-16.75 3.5,-4 8.11,-6.01 13.82,-6.01 3.31,0 6.09,0.57 8.35,1.71 2.27,1.13 4.49,2.88 6.64,5.25l0 -16.92c0,-2.35 0.47,-4.13 1.4,-5.33 0.94,-1.2 2.28,-1.81 4.01,-1.81 1.73,0 3.07,0.56 4.01,1.66 0.93,1.1 1.4,2.74 1.4,4.88l0 50.53c0,2.18 -0.5,3.83 -1.51,4.92 -1.02,1.09 -2.32,1.64 -3.91,1.64 -1.56,0 -2.87,-0.57 -3.89,-1.71 -1.02,-1.13 -1.53,-2.75 -1.53,-4.85zm-22.53 -16.82c0,3.11 0.49,5.75 1.45,7.94 0.96,2.18 2.28,3.81 3.97,4.92 1.68,1.1 3.51,1.66 5.49,1.66 2.02,0 3.85,-0.53 5.52,-1.58 1.66,-1.05 3,-2.65 3.98,-4.81 0.99,-2.18 1.49,-4.87 1.49,-8.12 0,-3.04 -0.5,-5.66 -1.49,-7.85 -0.99,-2.21 -2.34,-3.88 -4.03,-5.04 -1.69,-1.16 -3.54,-1.73 -5.56,-1.73 -2.09,0 -3.97,0.59 -5.62,1.78 -1.65,1.19 -2.92,2.9 -3.84,5.12 -0.9,2.24 -1.36,4.81 -1.36,7.74z"/>
  <path id="_3" class="fil1" d="M381.76 662.56l-24.56 0 0 15.73 20.53 0c1.89,0 3.32,0.43 4.26,1.27 0.93,0.86 1.4,2.01 1.4,3.43 0,1.43 -0.47,2.56 -1.42,3.41 -0.96,0.85 -2.38,1.26 -4.24,1.26l-20.53 0 0 20.26c0,2.58 -0.59,4.48 -1.75,5.73 -1.16,1.25 -2.65,1.86 -4.46,1.86 -1.85,0 -3.35,-0.63 -4.51,-1.89 -1.16,-1.26 -1.75,-3.17 -1.75,-5.7l0 -47.36c0,-1.79 0.27,-3.25 0.8,-4.38 0.53,-1.13 1.36,-1.96 2.49,-2.48 1.13,-0.52 2.58,-0.77 4.34,-0.77l29.39 0c1.99,0 3.47,0.44 4.43,1.32 0.96,0.89 1.45,2.05 1.45,3.47 0,1.46 -0.49,2.64 -1.45,3.52 -0.96,0.87 -2.44,1.32 -4.43,1.32z"/>
  <path id="_4" class="fil1" d="M408.51 698.99l0 9.57c0,2.32 -0.54,4.06 -1.63,5.22 -1.09,1.16 -2.47,1.75 -4.14,1.75 -1.65,0 -3.01,-0.59 -4.07,-1.76 -1.06,-1.17 -1.59,-2.91 -1.59,-5.2l0 -31.91c0,-5.14 1.86,-7.72 5.57,-7.72 1.89,0 3.27,0.6 4.1,1.81 0.85,1.2 1.31,3 1.39,5.34 1.36,-2.35 2.76,-4.14 4.21,-5.34 1.45,-1.2 3.37,-1.81 5.77,-1.81 2.41,0 4.74,0.6 7.01,1.81 2.26,1.2 3.39,2.81 3.39,4.8 0,1.4 -0.47,2.55 -1.45,3.47 -0.96,0.92 -2.01,1.36 -3.12,1.36 -0.42,0 -1.43,-0.26 -3.04,-0.77 -1.62,-0.52 -3.04,-0.77 -4.27,-0.77 -1.68,0 -3.04,0.44 -4.11,1.32 -1.06,0.89 -1.89,2.19 -2.48,3.92 -0.59,1.73 -0.99,3.8 -1.22,6.19 -0.22,2.39 -0.33,5.3 -0.33,8.74z"/>
  <path id="_5" class="fil1" d="M450.55 675.43l0 33.13c0,2.29 -0.54,4.03 -1.63,5.2 -1.09,1.18 -2.47,1.76 -4.14,1.76 -1.67,0 -3.04,-0.6 -4.08,-1.81 -1.05,-1.2 -1.58,-2.92 -1.58,-5.16l0 -32.79c0,-2.28 0.53,-3.98 1.58,-5.13 1.05,-1.15 2.41,-1.72 4.08,-1.72 1.68,0 3.05,0.57 4.14,1.72 1.09,1.14 1.63,2.75 1.63,4.79zm-5.66 -11.84c-1.59,0 -2.95,-0.49 -4.09,-1.46 -1.13,-0.97 -1.69,-2.36 -1.69,-4.16 0,-1.6 0.57,-2.94 1.73,-3.98 1.16,-1.05 2.51,-1.58 4.04,-1.58 1.49,0 2.79,0.47 3.94,1.42 1.15,0.96 1.72,2.34 1.72,4.14 0,1.76 -0.56,3.14 -1.68,4.13 -1.12,0.99 -2.43,1.49 -3.98,1.49z"/>
  <path id="_6" class="fil1" d="M498.69 695.06l-22.42 0c0.03,2.61 0.56,4.9 1.58,6.89 1.02,1.99 2.38,3.48 4.07,4.48 1.69,1.02 3.57,1.52 5.6,1.52 1.38,0 2.62,-0.16 3.75,-0.49 1.15,-0.32 2.23,-0.82 3.3,-1.51 1.07,-0.69 2.05,-1.42 2.94,-2.21 0.9,-0.79 2.06,-1.85 3.5,-3.2 0.59,-0.5 1.42,-0.76 2.51,-0.76 1.18,0 2.14,0.33 2.87,0.97 0.72,0.63 1.09,1.55 1.09,2.72 0,1.03 -0.42,2.24 -1.22,3.63 -0.82,1.38 -2.03,2.71 -3.68,3.97 -1.64,1.27 -3.68,2.33 -6.16,3.17 -2.48,0.84 -5.33,1.26 -8.54,1.26 -7.37,0 -13.08,-2.11 -17.17,-6.31 -4.08,-4.2 -6.12,-9.89 -6.12,-17.08 0,-3.38 0.5,-6.53 1.5,-9.43 1,-2.89 2.48,-5.37 4.4,-7.45 1.94,-2.07 4.31,-3.65 7.14,-4.76 2.82,-1.11 5.96,-1.66 9.4,-1.66 4.49,0 8.33,0.94 11.52,2.84 3.21,1.89 5.6,4.33 7.21,7.34 1.59,3 2.39,6.05 2.39,9.16 0,2.88 -0.83,4.76 -2.48,5.62 -1.65,0.85 -3.97,1.28 -6.96,1.28zm-22.42 -6.54l20.78 0c-0.27,-3.91 -1.33,-6.84 -3.17,-8.78 -1.83,-1.94 -4.24,-2.91 -7.24,-2.91 -2.87,0 -5.2,0.99 -7.04,2.95 -1.83,1.98 -2.95,4.89 -3.34,8.74z"/>
  <path id="_7" class="fil1" d="M532.47 675.26l0 1.39c2.02,-2.67 4.23,-4.61 6.62,-5.86 2.39,-1.25 5.14,-1.86 8.25,-1.86 3.02,0 5.72,0.66 8.11,1.98 2.38,1.31 4.16,3.17 5.33,5.58 0.76,1.4 1.25,2.91 1.48,4.54 0.22,1.62 0.33,3.68 0.33,6.21l0 21.33c0,2.29 -0.53,4.03 -1.58,5.2 -1.05,1.18 -2.42,1.76 -4.1,1.76 -1.71,0 -3.1,-0.6 -4.17,-1.81 -1.06,-1.2 -1.59,-2.92 -1.59,-5.16l0 -19.12c0,-3.77 -0.53,-6.66 -1.58,-8.67 -1.05,-1.99 -3.14,-3 -6.28,-3 -2.03,0 -3.9,0.6 -5.59,1.82 -1.68,1.22 -2.91,2.9 -3.68,5.03 -0.56,1.71 -0.85,4.89 -0.85,9.57l0 14.36c0,2.32 -0.55,4.06 -1.62,5.22 -1.07,1.16 -2.47,1.75 -4.16,1.75 -1.65,0 -3.01,-0.6 -4.07,-1.81 -1.06,-1.2 -1.59,-2.92 -1.59,-5.16l0 -33.13c0,-2.18 0.47,-3.81 1.42,-4.89 0.96,-1.07 2.25,-1.62 3.9,-1.62 1,0 1.92,0.24 2.72,0.72 0.82,0.47 1.46,1.19 1.95,2.14 0.49,0.94 0.73,2.12 0.73,3.48z"/>
  <path id="_8" class="fil1" d="M609.71 708.97l0 -1.13c-1.53,1.76 -3.05,3.2 -4.56,4.3 -1.49,1.1 -3.12,1.95 -4.87,2.52 -1.75,0.57 -3.65,0.86 -5.73,0.86 -2.74,0 -5.27,-0.59 -7.61,-1.75 -2.34,-1.16 -4.37,-2.81 -6.08,-4.97 -1.71,-2.15 -3,-4.68 -3.88,-7.59 -0.87,-2.91 -1.32,-6.06 -1.32,-9.44 0,-7.17 1.75,-12.75 5.24,-16.75 3.5,-4 8.11,-6.01 13.82,-6.01 3.31,0 6.09,0.57 8.35,1.71 2.27,1.13 4.49,2.88 6.64,5.25l0 -16.92c0,-2.35 0.47,-4.13 1.4,-5.33 0.94,-1.2 2.28,-1.81 4.01,-1.81 1.73,0 3.07,0.56 4.01,1.66 0.93,1.1 1.4,2.74 1.4,4.88l0 50.53c0,2.18 -0.5,3.83 -1.51,4.92 -1.02,1.09 -2.32,1.64 -3.91,1.64 -1.56,0 -2.87,-0.57 -3.89,-1.71 -1.02,-1.13 -1.53,-2.75 -1.53,-4.85zm-22.53 -16.82c0,3.11 0.49,5.75 1.45,7.94 0.96,2.18 2.28,3.81 3.97,4.92 1.68,1.1 3.51,1.66 5.49,1.66 2.02,0 3.85,-0.53 5.52,-1.58 1.66,-1.05 3,-2.65 3.98,-4.81 0.99,-2.18 1.49,-4.87 1.49,-8.12 0,-3.04 -0.5,-5.66 -1.49,-7.85 -0.99,-2.21 -2.34,-3.88 -4.03,-5.04 -1.69,-1.16 -3.54,-1.73 -5.56,-1.73 -2.09,0 -3.97,0.59 -5.62,1.78 -1.65,1.19 -2.92,2.9 -3.84,5.12 -0.9,2.24 -1.36,4.81 -1.36,7.74z"/>
  <path id="_9" class="fil1" d="M673.25 700.56c0,3.15 -0.77,5.86 -2.31,8.11 -1.53,2.25 -3.81,3.96 -6.82,5.12 -3.01,1.16 -6.66,1.74 -10.98,1.74 -4.11,0 -7.64,-0.63 -10.58,-1.89 -2.94,-1.25 -5.1,-2.82 -6.5,-4.72 -1.39,-1.88 -2.09,-3.77 -2.09,-5.67 0,-1.26 0.44,-2.34 1.35,-3.22 0.89,-0.9 2.02,-1.35 3.39,-1.35 1.2,0 2.12,0.3 2.77,0.89 0.64,0.59 1.26,1.4 1.85,2.48 1.18,2.03 2.58,3.57 4.21,4.57 1.63,1.02 3.87,1.52 6.69,1.52 2.29,0 4.17,-0.52 5.63,-1.53 1.48,-1.02 2.21,-2.19 2.21,-3.51 0,-2.02 -0.76,-3.48 -2.28,-4.41 -1.53,-0.92 -4.04,-1.81 -7.54,-2.65 -3.94,-0.97 -7.15,-2.01 -9.63,-3.08 -2.46,-1.07 -4.44,-2.51 -5.93,-4.27 -1.48,-1.76 -2.22,-3.94 -2.22,-6.5 0,-2.31 0.69,-4.47 2.05,-6.52 1.38,-2.05 3.4,-3.67 6.08,-4.89 2.67,-1.22 5.89,-1.83 9.67,-1.83 2.97,0 5.63,0.3 7.98,0.92 2.36,0.62 4.34,1.45 5.92,2.48 1.59,1.05 2.8,2.19 3.61,3.45 0.83,1.26 1.25,2.48 1.25,3.7 0,1.3 -0.44,2.39 -1.33,3.22 -0.87,0.85 -2.14,1.26 -3.76,1.26 -1.18,0 -2.18,-0.33 -3.01,-1 -0.82,-0.67 -1.76,-1.68 -2.84,-3.02 -0.86,-1.12 -1.88,-2.02 -3.05,-2.69 -1.17,-0.67 -2.76,-1 -4.79,-1 -2.06,0 -3.78,0.44 -5.16,1.32 -1.36,0.89 -2.05,1.99 -2.05,3.31 0,1.2 0.5,2.19 1.51,2.95 1.02,0.77 2.36,1.42 4.07,1.92 1.71,0.5 4.06,1.12 7.05,1.85 3.56,0.86 6.46,1.91 8.71,3.11 2.25,1.2 3.96,2.62 5.12,4.27 1.16,1.63 1.75,3.5 1.75,5.6z"/>
  <rect class="fil2" y="-0" width="818.79" height="818.79"/>
 </g>
</svg>
